<svg xmlns="http://www.w3.org/2000/svg" viewBox="-9455 -7171 200 131">
  <defs>
    <style>
      .cls-1 {
        fill: #085aa5;
        fill-rule: evenodd;
      }

      .cls-2 {
        fill: none;
      }
    </style>
  </defs>
  <g id="Group_4557" data-name="Group 4557" transform="translate(-9608 -10525)">
    <path id="Suzano" class="cls-1" d="M20.836,0c.282,0,.563.007.842.019V1.357c-.383-.024-.767-.038-1.156-.038-10.052,0-18.2,8.459-18.2,18.89S10.47,39.1,20.522,39.1c.389,0,.774-.014,1.156-.039v4.165c-.279.011-.559.019-.842.019C9.331,43.242,0,33.56,0,21.622S9.331,0,20.836,0Zm.449,2.37c.132,0,.262,0,.393.005V3.657c-.263-.015-.527-.024-.795-.024A13.992,13.992,0,0,0,7.159,17.876,13.993,13.993,0,0,0,20.884,32.118c.267,0,.531-.009.795-.024v3.941c-.131,0-.261,0-.393,0-8.959,0-16.224-7.539-16.224-16.834S12.327,2.37,21.286,2.37Zm-.158,2.55c.185,0,.368,0,.551.014v1.03q-.261-.016-.527-.016a9.117,9.117,0,0,0-8.943,9.28,9.116,9.116,0,0,0,8.943,9.278c.177,0,.353-.006.527-.017v4.136c-.183.009-.366.014-.551.014A11.652,11.652,0,0,1,9.7,16.78,11.652,11.652,0,0,1,21.127,4.92h0Zm1.249,44.228c-.282,0-.562-.008-.842-.019V47.791c.383.025.767.039,1.155.039,10.052,0,18.2-8.459,18.2-18.891s-8.152-18.889-18.2-18.889c-.388,0-.773.014-1.155.039V5.925c.279-.012.559-.019.842-.019,11.505,0,20.836,9.682,20.836,21.621S33.882,49.148,22.376,49.148h0Zm-.449-2.371c-.132,0-.262,0-.393-.005V45.491q.395.023.794.023A13.993,13.993,0,0,0,36.054,31.272,13.993,13.993,0,0,0,22.328,17.03q-.4,0-.794.025V13.113c.13,0,.261-.005.393-.005,8.959,0,16.224,7.539,16.224,16.834S30.886,46.777,21.927,46.777h0Zm.158-2.549q-.276,0-.55-.014v-1.03c.174.011.35.017.527.017a9.285,9.285,0,0,0,0-18.558c-.177,0-.353.006-.527.017V20.522c.182-.009.366-.014.55-.014a11.652,11.652,0,0,1,11.43,11.86,11.653,11.653,0,0,1-11.43,11.86Zm32.8-17.747a8.933,8.933,0,0,0,2.177,1.868,4.221,4.221,0,0,0,2.133.621,2.451,2.451,0,0,0,1.627-.532,1.673,1.673,0,0,0,.638-1.348,1.765,1.765,0,0,0-.549-1.395,7.009,7.009,0,0,0-2.492-1.009,8.162,8.162,0,0,1-3.765-1.868,4.376,4.376,0,0,1-1.1-3.156,5.566,5.566,0,0,1,1.741-4.242A6.3,6.3,0,0,1,59.8,13.78a9.924,9.924,0,0,1,2.844.4A9.27,9.27,0,0,1,65.188,15.4l-1.546,3.553a6.546,6.546,0,0,0-1.729-1.086,4.621,4.621,0,0,0-1.749-.363,2.327,2.327,0,0,0-1.449.427,1.321,1.321,0,0,0-.557,1.095,1.345,1.345,0,0,0,.49,1.09,5.266,5.266,0,0,0,1.884.781l.224.064a9.184,9.184,0,0,1,3.971,1.791,4.439,4.439,0,0,1,.981,1.606,6.086,6.086,0,0,1,.334,2.07,6,6,0,0,1-1.893,4.634A7.129,7.129,0,0,1,59.1,32.819a8.969,8.969,0,0,1-3.448-.642,9.815,9.815,0,0,1-2.99-2.02l2.225-3.676h0ZM69.853,14.216H74.78v8.813c0,1.3.034,2.227.1,2.793a5.333,5.333,0,0,0,.339,1.415A2.042,2.042,0,0,0,76.2,28.3a4.241,4.241,0,0,0,3.434,0,2.1,2.1,0,0,0,.993-1.061,5.307,5.307,0,0,0,.339-1.415c.063-.567.1-1.5.1-2.793V14.216h4.913V23.8a19.5,19.5,0,0,1-.359,4.4,5.927,5.927,0,0,1-1.212,2.421,5.628,5.628,0,0,1-2.547,1.652,14.414,14.414,0,0,1-7.879,0,5.7,5.7,0,0,1-2.556-1.652A6.083,6.083,0,0,1,70.217,28.2a19.387,19.387,0,0,1-.364-4.4V14.216ZM105.02,32.338H89l9.147-14.2H90.807V14.216h15.253L96.938,28.387h8.082v3.951h0Zm8.963-6.773H118.9l-1.847-5.978c-.055-.182-.136-.473-.232-.879s-.228-.921-.385-1.559c-.105.448-.211.871-.317,1.276s-.208.791-.313,1.162l-1.819,5.978h0Zm-6.921,6.773,6.253-18.122H119.5l6.262,18.122h-4.913l-.917-3.245h-7.018l-.941,3.245h-4.914Zm21.587,0V14.216h4.766l6.843,9.32c.132.19.347.57.651,1.145s.63,1.255.993,2.049q-.146-1.128-.215-2.007c-.047-.583-.068-1.1-.068-1.559V14.216h4.74V32.338h-4.74l-6.845-9.359a10.846,10.846,0,0,1-.664-1.144c-.3-.575-.625-1.247-.979-2.024q.145,1.141.215,2.019t.068,1.559v8.949ZM170,23.313a9.219,9.219,0,0,1-2.81,6.721,9.95,9.95,0,0,1-3.169,2.062,9.883,9.883,0,0,1-7.418,0,9.508,9.508,0,0,1-3.127-2.062,9.227,9.227,0,0,1-2.126-3.072,9.285,9.285,0,0,1,2.126-10.372,9.5,9.5,0,0,1,3.127-2.062,9.926,9.926,0,0,1,7.435,0,9.613,9.613,0,0,1,3.152,2.062A9.261,9.261,0,0,1,170,23.313h0Zm-9.68,5.323a4.353,4.353,0,0,0,3.4-1.508,5.536,5.536,0,0,0,1.343-3.815,5.506,5.506,0,0,0-1.36-3.8,4.541,4.541,0,0,0-6.777,0,5.529,5.529,0,0,0-1.343,3.807,5.557,5.557,0,0,0,1.322,3.824,4.348,4.348,0,0,0,3.418,1.5Z" transform="translate(168 3395)"/>
    <rect id="Rectangle_1568" data-name="Rectangle 1568" class="cls-2" width="200" height="131" transform="translate(153 3354)"/>
  </g>
</svg>
