<svg xmlns="http://www.w3.org/2000/svg" viewBox="-10562.6 -10690 24 24">
  <defs>
    <style>
      .cls-1 {
        fill: #fff;
      }
    </style>
  </defs>
  <g id="Group_3456" data-name="Group 3456" transform="translate(-10592 -12358)">
    <path id="Path_3050" data-name="Path 3050" class="cls-1" d="M17.723,17.369a4.871,4.871,0,0,1-2.712,1.151c-.247,0-.329.164-.329.411V20.41H13.532v-1.4a.388.388,0,0,0-.411-.411,12,12,0,0,1-3.7-.822V15.56a12.777,12.777,0,0,0,1.89.658,9.66,9.66,0,0,0,2.384.411,3.032,3.032,0,0,0,1.4-.247,1.043,1.043,0,0,0,.575-1.068,1.32,1.32,0,0,0-.411-.9c-.247-.164-.575-.329-.986-.575-.411-.164-.986-.411-1.726-.658a5.868,5.868,0,0,1-1.89-.986,4.325,4.325,0,0,1-.986-1.151A4.013,4.013,0,0,1,9.34,9.478a2.725,2.725,0,0,1,.9-2.137,4.355,4.355,0,0,1,2.795-.986.388.388,0,0,0,.411-.411V5.122H14.6v.9a.388.388,0,0,0,.411.411,13.116,13.116,0,0,1,3.37.74l-.822,1.973a9.282,9.282,0,0,0-3.37-.74,2.882,2.882,0,0,0-1.315.247.944.944,0,0,0-.493.9,1.256,1.256,0,0,0,.329.822,5.9,5.9,0,0,0,.9.575,10.729,10.729,0,0,0,1.562.575,7.382,7.382,0,0,1,2.712,1.479,2.865,2.865,0,0,1,.74,2.055.411.411,0,0,0,.822,0,3.6,3.6,0,0,0-.986-2.63,8,8,0,0,0-3.041-1.726c-.658-.247-1.151-.411-1.479-.575a1.754,1.754,0,0,1-.658-.411c-.082-.082-.082-.082-.082-.247,0-.082,0-.164.082-.164a2.181,2.181,0,0,1,.9-.164,8.974,8.974,0,0,1,3.452.9.25.25,0,0,0,.329,0l.247-.247,1.151-2.712a.425.425,0,0,0-.247-.575A14.822,14.822,0,0,0,15.5,5.533V4.711a.388.388,0,0,0-.411-.411H13.121a.388.388,0,0,0-.411.411V5.7A6.055,6.055,0,0,0,9.751,6.848,3.65,3.65,0,0,0,8.6,9.642a4.286,4.286,0,0,0,.411,1.89,3.888,3.888,0,0,0,1.233,1.4A7.95,7.95,0,0,0,12.3,14c.74.247,1.315.493,1.726.658a6.674,6.674,0,0,1,.822.411.3.3,0,0,1,.082.247c0,.164-.082.247-.164.247a2.082,2.082,0,0,1-.986.164,8.043,8.043,0,0,1-2.219-.329,20.452,20.452,0,0,1-2.384-.9.373.373,0,0,0-.411,0,.328.328,0,0,0-.164.329v3.205a.452.452,0,0,0,.247.411,15.082,15.082,0,0,0,3.781.986v1.4a.388.388,0,0,0,.411.411h1.973a.388.388,0,0,0,.411-.411V19.341A4.952,4.952,0,0,0,18.3,18.026a.4.4,0,0,0,0-.575A.352.352,0,0,0,17.723,17.369Z" transform="translate(27.54 1667.234)"/>
    <path id="Path_3051" data-name="Path 3051" class="cls-1" d="M21.712,18.7H19.329a.329.329,0,1,0,0,.658h2.384a.329.329,0,0,0,0-.658Z" transform="translate(25.688 1664.67)"/>
    <path id="Path_3052" data-name="Path 3052" class="cls-1" d="M12.4,0a12,12,0,1,0,12,12A12.014,12.014,0,0,0,12.4,0Zm0,23.1A11.19,11.19,0,0,1,1.222,11.918,11.178,11.178,0,1,1,12.4,23.1Z" transform="translate(29 1668)"/>
  </g>
</svg>
