<svg id="Group_3705" data-name="Group 3705" xmlns="http://www.w3.org/2000/svg" viewBox="-7623 -10439.4 58 58.4">
  <defs>
    <style>
      .cls-1 {
        fill: #fff;
      }

      .cls-2 {
        fill: none;
      }
    </style>
  </defs>
  <path id="Path_4016" data-name="Path 4016" class="cls-1" d="M35.826,142.593l2.223-2.829a1.21,1.21,0,0,0,.606-1.213c0-2.223-5.254-2.627-9.094-2.829v-1.01l5.254-5.254a5.29,5.29,0,0,0,3.436,1.01,6.008,6.008,0,0,0,4.042-1.617c2.021-2.021,4.244-10.1,4.446-10.913a1.822,1.822,0,0,0-.2-1.01,1.544,1.544,0,0,0-1.01-.4c-1.01.2-9.094,1.819-11.317,3.638a5.863,5.863,0,0,0-.808,7.477l-3.84,3.84V114.907a1.01,1.01,0,0,0-2.021,0v10.711l-3.031-3.031a9.139,9.139,0,0,0-1.01-10.913C20.467,108.44,7.331,105,5.715,104.6a1.822,1.822,0,0,0-1.01.2,1.544,1.544,0,0,0-.4,1.01c.2,1.415,2.829,14.753,5.861,18.188a8.718,8.718,0,0,0,6.467,2.829A8.557,8.557,0,0,0,22.69,124.4l.2-.2,4.446,4.446v6.871c-3.84,0-9.094.606-9.094,2.829a1.747,1.747,0,0,0,.606,1.213l2.223,2.829c-7.073,1.617-11.721,5.456-11.721,9.7,0,5.861,8.286,10.509,19,10.509s19-4.648,19-10.509C47.547,147.847,42.9,144.21,35.826,142.593Zm-.2-20.815c1.01-1.01,5.254-2.223,8.69-2.829-.808,3.233-2.223,7.477-3.436,8.488a4.256,4.256,0,0,1-2.627,1.01,3.9,3.9,0,0,1-2.021-.606l2.829-2.829a.977.977,0,0,0,0-1.415.889.889,0,0,0-1.01-.2v-2.021a.2.2,0,0,0-.4,0V123.8l-2.627,2.627A3.946,3.946,0,0,1,35.624,121.778ZM21.478,122.99a6.745,6.745,0,0,1-4.648,1.819,7.236,7.236,0,0,1-5.052-2.223c-2.021-2.223-4.244-10.711-5.052-15.561,4.648,1.213,13.136,3.84,15.157,6.063a6.771,6.771,0,0,1,1.01,7.882l-4.446-4.446v-3.84a.2.2,0,0,0-.4,0v3.233L16.628,114.5a1,1,0,1,0-1.415,1.415l3.031,3.031H14c-.2.606-.2.606-.2.808a.2.2,0,0,0,.2.2h4.85l2.627,3.031Zm-.606,15.561a20.349,20.349,0,0,1,6.669-.808v3.436a1.01,1.01,0,1,0,2.021,0v-3.436a20.349,20.349,0,0,1,6.669.808l-3.031,3.84H23.9ZM24.1,143h8.69v.2a.742.742,0,0,0,.2.606H24.1c0-.2,0-.4,0-.808Zm4.446,17.582c-9.094,0-16.976-3.84-16.976-8.488,0-3.638,4.85-6.871,11.721-8.084H33.6c6.871,1.213,11.721,4.446,11.721,8.084C45.526,156.739,37.645,160.579,28.551,160.579Z" transform="translate(-7620 -10544)"/>
  <rect id="Rectangle_1579" data-name="Rectangle 1579" class="cls-2" width="58" height="58" transform="translate(-7623 -10439)"/>
</svg>
