<svg xmlns="http://www.w3.org/2000/svg" viewBox="-9339 -10352 30.1 30.1">
  <defs>
    <style>
      .cls-1 {
        fill: #fff;
      }
    </style>
  </defs>
  <g id="Group_3461" data-name="Group 3461" transform="translate(10361 1453)">
    <path id="Path_3032" data-name="Path 3032" class="cls-1" d="M27.3,60.3H22.7V55.7A2.689,2.689,0,0,0,20,53H2.7A2.689,2.689,0,0,0,0,55.7V73.1a2.689,2.689,0,0,0,2.7,2.7H7.3v4.6A2.689,2.689,0,0,0,10,83.1H27.4a2.689,2.689,0,0,0,2.7-2.7V63A2.843,2.843,0,0,0,27.3,60.3ZM2.7,74.8A1.685,1.685,0,0,1,1,73.1V55.8a1.685,1.685,0,0,1,1.7-1.7H20.1a1.685,1.685,0,0,1,1.7,1.7v4.6H9.9a2.689,2.689,0,0,0-2.7,2.7V74.9H2.7ZM29,80.4a1.685,1.685,0,0,1-1.7,1.7H9.9a1.685,1.685,0,0,1-1.7-1.7V63a1.685,1.685,0,0,1,1.7-1.7H27.3A1.685,1.685,0,0,1,29,63V80.4Z" transform="translate(-19700 -11858)"/>
    <path id="Path_3033" data-name="Path 3033" class="cls-1" d="M25.6,65.5H12a.5.5,0,0,0,0,1H25.6a.472.472,0,0,0,.5-.5A.536.536,0,0,0,25.6,65.5Z" transform="translate(-19700 -11858)"/>
    <path id="Path_3034" data-name="Path 3034" class="cls-1" d="M25.6,68.6H12a.5.5,0,0,0,0,1H25.6a.472.472,0,0,0,.5-.5A.536.536,0,0,0,25.6,68.6Z" transform="translate(-19700 -11858)"/>
    <path id="Path_3035" data-name="Path 3035" class="cls-1" d="M25.6,71.8H12a.5.5,0,0,0,0,1H25.6a.5.5,0,0,0,0-1Z" transform="translate(-19700 -11858)"/>
    <path id="Path_3036" data-name="Path 3036" class="cls-1" d="M25.6,74.9H12a.5.5,0,0,0,0,1H25.6a.5.5,0,0,0,0-1Z" transform="translate(-19700 -11858)"/>
    <path id="Path_3037" data-name="Path 3037" class="cls-1" d="M19.7,78H12a.5.5,0,0,0,0,1h7.7a.5.5,0,1,0,0-1Z" transform="translate(-19700 -11858)"/>
  </g>
</svg>
