<svg xmlns="http://www.w3.org/2000/svg" viewBox="-10489.916 -10479.4 23.845 24">
  <defs>
    <style>
      .cls-1 {
        fill: #fff;
      }
    </style>
  </defs>
  <g id="Group_3506" data-name="Group 3506" transform="translate(-11190 -12740)">
    <path id="Path_3043" data-name="Path 3043" class="cls-1" d="M15.041,328.67a1.44,1.44,0,0,0,0-.845l-.423-1.014a4.527,4.527,0,0,0,1.268-1.268l1.014.423a.762.762,0,0,0,.423.085,1.1,1.1,0,0,0,1.014-.676l.676-1.69a1.146,1.146,0,0,0-.592-1.521l-1.014-.423a6.243,6.243,0,0,0,0-1.775l1.1-.423a1.021,1.021,0,0,0,.592-.592,1.44,1.44,0,0,0,0-.845l-.676-1.69a1.1,1.1,0,0,0-1.014-.676.762.762,0,0,0-.423.085l-1.1.423a7.83,7.83,0,0,0-1.183-1.183l.507-1.183a1.146,1.146,0,0,0-.592-1.521l-1.69-.676a.762.762,0,0,0-.423-.085,1.1,1.1,0,0,0-1.014.676l-.507,1.183a5.116,5.116,0,0,0-1.606,0l-.507-1.183a1.1,1.1,0,0,0-1.014-.676.762.762,0,0,0-.423.085l-1.69.676a1.021,1.021,0,0,0-.592.592,1.44,1.44,0,0,0,0,.845l.507,1.183a7.3,7.3,0,0,0-1.183,1.1l-1.183-.507a.762.762,0,0,0-.423-.085,1.1,1.1,0,0,0-1.014.676l-.676,1.69a1.146,1.146,0,0,0,.592,1.521l1.183.507a11.326,11.326,0,0,0-.085,1.69l-1.1.423a1.146,1.146,0,0,0-.592,1.521l.676,1.69a1.1,1.1,0,0,0,1.014.676.762.762,0,0,0,.423-.085l1.1-.423a5.687,5.687,0,0,0,1.183,1.268l-.423,1.014a1.146,1.146,0,0,0,.592,1.521l1.69.676a.762.762,0,0,0,.423.085,1.1,1.1,0,0,0,1.014-.676l.423-1.014a6.241,6.241,0,0,0,1.775,0l.423,1.014a1.1,1.1,0,0,0,1.014.676.762.762,0,0,0,.423-.085l1.69-.676A1.333,1.333,0,0,0,15.041,328.67Zm-.761-.592v.169c0,.085-.085.085-.169.169l-1.69.676c-.169.085-.338,0-.338-.169l-.676-1.606-.338.085a9.545,9.545,0,0,1-2.2,0l-.338-.085-.676,1.606a.337.337,0,0,1-.338.169l-1.69-.676a.337.337,0,0,1-.169-.338l.676-1.606-.254-.338a5.542,5.542,0,0,1-1.521-1.606l-.169-.254-1.69.676c-.169.085-.338,0-.338-.169l-.676-1.69c-.085-.169,0-.338.169-.338l1.69-.676-.085-.338a5.93,5.93,0,0,1,.085-2.113l.085-.338-1.775-.676a.337.337,0,0,1-.169-.338l.676-1.69a.337.337,0,0,1,.338-.169l1.775.761.169-.254a11.533,11.533,0,0,1,1.437-1.437l.254-.169-.761-1.859v-.169c0-.085.085-.085.169-.169l1.69-.676c.169-.085.338,0,.338.169l.761,1.859.338-.085a8.145,8.145,0,0,1,2.028,0l.338.085L12,312.7a.337.337,0,0,1,.338-.169l1.69.676a.337.337,0,0,1,.169.338l-.761,1.775.254.169a8.25,8.25,0,0,1,1.521,1.437l.169.254,1.775-.676c.169-.085.338,0,.338.169l.676,1.69v.169c0,.085-.085.085-.169.169l-1.69.676.085.338a6.39,6.39,0,0,1,0,2.2l-.085.338,1.606.676a.337.337,0,0,1,.169.338l-.676,1.69a.337.337,0,0,1-.338.169l-1.606-.676-.169.254a5.541,5.541,0,0,1-1.606,1.521l-.254.169Z" transform="translate(699 1949)"/>
    <path id="Path_3044" data-name="Path 3044" class="cls-1" d="M11.069,318.5a3.392,3.392,0,0,0-1.268.254,3.557,3.557,0,0,0-1.944,4.563,3.412,3.412,0,0,0,4.479,1.944A3.348,3.348,0,0,0,14.2,323.4a3.731,3.731,0,0,0,0-2.7A3.2,3.2,0,0,0,11.069,318.5Zm2.451,4.479a2.658,2.658,0,0,1-1.437,1.437,2.144,2.144,0,0,1-1.014.169,2.707,2.707,0,0,1-2.451-1.606,2.585,2.585,0,0,1,1.437-3.38,2.144,2.144,0,0,1,1.014-.169,2.707,2.707,0,0,1,2.451,1.606A2.576,2.576,0,0,1,13.519,322.979Z" transform="translate(697.987 1947.931)"/>
    <path id="Path_3045" data-name="Path 3045" class="cls-1" d="M14.829,320.22a4.214,4.214,0,0,0-3.887-2.62,3.094,3.094,0,0,0-1.521.338,4.1,4.1,0,0,0-2.282,5.408,4.214,4.214,0,0,0,3.887,2.62,3.094,3.094,0,0,0,1.521-.338,4.155,4.155,0,0,0,2.282-2.2A4.225,4.225,0,0,0,14.829,320.22Zm-2.366,5.239a4.785,4.785,0,0,1-1.521.254,3.941,3.941,0,0,1-1.437-7.606,4.785,4.785,0,0,1,1.521-.254A3.972,3.972,0,0,1,14.66,320.3a3.809,3.809,0,0,1,0,3.042A4.11,4.11,0,0,1,12.463,325.459Z" transform="translate(698.114 1948.07)"/>
    <path id="Path_3046" data-name="Path 3046" class="cls-1" d="M27.318,332.394a.767.767,0,0,0-.592-.254H26.22a5.387,5.387,0,0,1-.169-.592l.338-.338a.73.73,0,0,0,.254-.507,1.221,1.221,0,0,0-.169-.592l-.592-.676a.767.767,0,0,0-.592-.254.906.906,0,0,0-.507.169l-.338.338-.507-.254v-.507a1.567,1.567,0,0,0-.169-.592.73.73,0,0,0-.507-.254l-.93-.085h0a.757.757,0,0,0-.761.761v.507c-.169.085-.338.085-.507.169l-.338-.338a.8.8,0,0,0-1.1-.085l-.676.592a.79.79,0,0,0-.085,1.1l.338.338-.254.507h-.507a.757.757,0,0,0-.761.761l-.085.93a1.567,1.567,0,0,0,.169.592.767.767,0,0,0,.592.254h.423c.085.169.085.423.169.592l-.338.254a.79.79,0,0,0-.085,1.1l.592.676a.767.767,0,0,0,.592.254.906.906,0,0,0,.507-.169l.254-.254c.169.085.423.169.592.254v.423a1.221,1.221,0,0,0,.169.592.767.767,0,0,0,.592.254l.93.085h0a.757.757,0,0,0,.761-.761v-.423a4.127,4.127,0,0,0,.592-.254l.254.254a.767.767,0,0,0,.592.254.906.906,0,0,0,.507-.169l.676-.592a.79.79,0,0,0,.085-1.1l-.254-.338a4.119,4.119,0,0,0,.254-.592h.423a.757.757,0,0,0,.761-.761l.085-.93Zm-.761,1.437-1.014-.085-.085.338a3.124,3.124,0,0,1-.423.93l-.169.254.676.761-.592.507-.676-.761-.338.169a2.4,2.4,0,0,1-1.014.338l-.338.085L22.5,337.38h-.761l.085-1.014-.338-.085a3.123,3.123,0,0,1-.93-.423l-.254-.169-.761.676-.507-.592.761-.676-.169-.338a4.764,4.764,0,0,1-.338-1.014l-.085-.338-1.014-.085v-.761l1.014.085.085-.338a4.529,4.529,0,0,1,.423-.93l.169-.254-.761-.845.592-.507.761.845.338-.169a3.027,3.027,0,0,1,.93-.338l.338-.085.085-1.1h.761l-.085,1.1.338.085a4.529,4.529,0,0,1,.93.423l.254.169.845-.761.507.592-.845.761.169.338a3.027,3.027,0,0,1,.338.93l.085.338,1.014.085Z" transform="translate(696.441 1946.459)"/>
    <path id="Path_3047" data-name="Path 3047" class="cls-1" d="M23.013,331.9a1.986,1.986,0,0,0-2.113,1.859,2.3,2.3,0,0,0,.507,1.437,2.086,2.086,0,0,0,1.352.676h.085a2.029,2.029,0,0,0,2.028-1.859,2.3,2.3,0,0,0-.507-1.437A1.764,1.764,0,0,0,23.013,331.9Zm-.169,3.127a1.071,1.071,0,0,1-.761-.338,1.021,1.021,0,0,1-.254-.845,1.119,1.119,0,0,1,1.1-1.1h.085a1.071,1.071,0,0,1,.761.338,1.021,1.021,0,0,1,.254.845A1.139,1.139,0,0,1,22.844,335.026Z" transform="translate(695.93 1945.856)"/>
  </g>
</svg>
