<svg id="Group_3707" data-name="Group 3707" xmlns="http://www.w3.org/2000/svg" viewBox="-7281 -10228.5 58 58.5">
  <defs>
    <style>
      .cls-1 {
        fill: #fff;
      }

      .cls-2 {
        fill: none;
      }
    </style>
  </defs>
  <path id="Path_4044" data-name="Path 4044" class="cls-1" d="M56.5,306.069,37.87,287.442l6.774-6.774,7.832-2.328,3.387-9.1-3.6-3.6-9.1,3.387-2.328,7.62-6.985,6.985-2.964-2.964h0c1.693-5.292,1.482-12.489-2.752-16.723A15.177,15.177,0,0,0,17.125,259.5a16.372,16.372,0,0,0-7.2,1.693l-1.27.635,9.737,9.737a2.3,2.3,0,0,1,0,3.175l-1.482,1.482a2.576,2.576,0,0,1-3.387,0l-9.737-9.737-.635,1.27a15.4,15.4,0,0,0,2.752,18.2c2.964,2.963,7.2,3.6,10.161,3.6a23.606,23.606,0,0,0,6.562-1.058h0l2.964,2.964L23.9,293.157a5.748,5.748,0,0,0-3.6-1.27,4.308,4.308,0,0,0-3.175,1.27L5.06,305.223a5.341,5.341,0,0,0-1.27,3.6,7.252,7.252,0,0,0,1.905,3.81l2.964,2.964a5.989,5.989,0,0,0,4.234,1.905,4.308,4.308,0,0,0,3.175-1.27l12.066-12.066c1.693-1.693,1.693-4.657-.212-6.985l1.693-1.693,18.628,18.628c1.27,1.27,2.752,2.54,4.445,2.54h0a3.726,3.726,0,0,0,2.752-1.27l1.905-1.905C60.519,310.3,57.556,307.128,56.5,306.069ZM24.534,287.018l-.423-.423-.423-.635-.847.212a23.606,23.606,0,0,1-6.562,1.058c-2.54,0-6.139-.423-8.679-2.964a13.131,13.131,0,0,1-2.964-14.183l7.62,7.62a4.308,4.308,0,0,0,3.175,1.27,4.308,4.308,0,0,0,3.175-1.27l1.482-1.482a4.6,4.6,0,0,0,0-6.35l-7.62-7.62a12.42,12.42,0,0,1,4.869-.847,14.21,14.21,0,0,1,9.526,3.81c3.81,3.81,3.6,10.372,1.905,15.029l-.212.847.635.423.423.423,2.964,2.964-4.869,4.869ZM6.33,308.61a2.587,2.587,0,0,1,.635-1.905L19.03,294.639A2.4,2.4,0,0,1,20.724,294a4.982,4.982,0,0,1,1.693.423L6.965,309.88A1.509,1.509,0,0,1,6.33,308.61Zm1.27,2.54c-.212-.212-.423-.423-.423-.635L22.841,294.85c.212.212.423.212.635.423l1.482,1.482L9.081,312.631Zm2.964,2.752L9.5,312.843l15.664-15.664,1.058,1.058c.212.212.423.635.635.847L11.41,314.536C10.987,314.536,10.775,314.325,10.563,313.9Zm16.3-11.219L14.8,314.748a2.4,2.4,0,0,1-1.693.635,2.684,2.684,0,0,1-1.27-.212l15.241-15.241A2.6,2.6,0,0,1,26.862,302.682ZM28.344,294,26.651,295.7l-.423-.423-.423-.423,5.08-5.08,4.657-4.657h0l8.044-8.044-.423-.423,1.905-6.139,6.774-2.54,1.482,1.482-2.54,6.774-6.139,1.905-.423-.423-8.044,8.044Zm6.139-3.175,18.628,18.628-1.482,1.482L33,292.31Zm21.591,20.956-1.905,1.905a1.829,1.829,0,0,1-1.27.635h0c-.847,0-2.117-1.058-2.964-1.905L31.308,293.792l.847-.847.423-.423,18.839,18.839h.423l1.905-1.905v-.423L34.906,290.193l1.482-1.482,18.628,18.628C57.344,310.091,56.921,310.938,56.074,311.785Z" transform="translate(-7282 -10488)"/>
  <rect id="Rectangle_1581" data-name="Rectangle 1581" class="cls-2" width="58" height="58" transform="translate(-7281 -10228)"/>
</svg>
