<svg id="Group_3706" data-name="Group 3706" xmlns="http://www.w3.org/2000/svg" viewBox="-7289 -10441 58 60">
  <defs>
    <style>
      .cls-1 {
        fill: #fff;
      }

      .cls-2 {
        fill: none;
      }
    </style>
  </defs>
  <g id="Group_3509" data-name="Group 3509" transform="translate(-8287 -12486)">
    <path id="Path_3048" data-name="Path 3048" class="cls-1" d="M27.147,217.88l-1.46,1.46a2.517,2.517,0,0,0-2.295-1.669h-9.6a2.315,2.315,0,0,0-2.295,2.295v9.6a2.315,2.315,0,0,0,2.295,2.295h9.6a2.315,2.315,0,0,0,2.295-2.295v-7.511l2.921-2.921a1.008,1.008,0,0,0,0-1.46A1.285,1.285,0,0,0,27.147,217.88ZM25.27,229.772a1.87,1.87,0,0,1-1.878,1.878h-9.6a1.87,1.87,0,0,1-1.878-1.878v-9.6a1.87,1.87,0,0,1,1.878-1.878h9.6a1.612,1.612,0,0,1,1.669,1.46l-7.094,7.094-2.295-2.295a1.033,1.033,0,0,0-1.46,1.46l2.921,2.921a1.084,1.084,0,0,0,.835.417.833.833,0,0,0,.835-.417l6.468-6.468v7.3Z" transform="translate(1007.997 1853.616)"/>
    <path id="Path_3049" data-name="Path 3049" class="cls-1" d="M35.065,213.137h-4.8v-2.295H26.094a4.375,4.375,0,0,0,.835-2.295,3.547,3.547,0,0,0-7.094,0,3.138,3.138,0,0,0,.835,2.295H16.5v2.295H12.742A5.97,5.97,0,0,0,6.9,218.978v38.18A5.97,5.97,0,0,0,12.742,263H35.065a5.97,5.97,0,0,0,5.842-5.842V218.77A5.79,5.79,0,0,0,35.065,213.137Zm-11.683-6.259a1.669,1.669,0,1,1-1.669,1.669A1.646,1.646,0,0,1,23.382,206.878Zm15.439,50.281a3.74,3.74,0,0,1-3.755,3.755H12.742a3.74,3.74,0,0,1-3.755-3.755V218.77a3.74,3.74,0,0,1,3.755-3.755H16.5v1.878h13.77v-1.878h4.8a3.74,3.74,0,0,1,3.755,3.755v38.388Z" transform="translate(1003 1840)"/>
  </g>
  <rect id="Rectangle_1580" data-name="Rectangle 1580" class="cls-2" width="58" height="58" transform="translate(-7289 -10439)"/>
</svg>
