<svg xmlns="http://www.w3.org/2000/svg" xmlns:xlink="http://www.w3.org/1999/xlink" viewBox="-13936 -11689 510.4 422.851">
  <defs>
    <style>
      .cls-1 {
        fill: #d1d3d4;
      }

      .cls-10, .cls-2, .cls-26, .cls-32, .cls-5 {
        fill: #414042;
      }

      .cls-2 {
        opacity: 0.7;
      }

      .cls-3 {
        fill: #bcbec0;
      }

      .cls-4 {
        fill: #939598;
      }

      .cls-6 {
        fill: #e2cc96;
      }

      .cls-7 {
        fill: #f1f2f2;
      }

      .cls-8 {
        fill: #fff0c6;
      }

      .cls-9 {
        fill: #58595b;
      }

      .cls-10, .cls-22, .cls-25 {
        opacity: 0.5;
      }

      .cls-11 {
        fill: #f8f8f9;
      }

      .cls-12 {
        clip-path: url(#clip-path);
      }

      .cls-13 {
        fill: url(#linear-gradient);
      }

      .cls-14 {
        fill: #007f3e;
      }

      .cls-15, .cls-18 {
        fill: #3d81a0;
      }

      .cls-16 {
        fill: #e6e7e8;
      }

      .cls-17 {
        fill: #cfb47c;
      }

      .cls-18 {
        opacity: 0.3;
      }

      .cls-19 {
        fill: #a7a9ac;
      }

      .cls-20 {
        fill: #39b54a;
      }

      .cls-21, .cls-34 {
        fill: #006838;
      }

      .cls-23, .cls-25 {
        fill: #fff;
      }

      .cls-24 {
        fill: #27aae1;
      }

      .cls-26 {
        opacity: 0.1;
      }

      .cls-27 {
        fill: #bce4f9;
      }

      .cls-28 {
        fill: #1b75bc;
      }

      .cls-29 {
        fill: #1c3d1d;
      }

      .cls-30 {
        fill: #90cb81;
      }

      .cls-31 {
        fill: #bddfb6;
      }

      .cls-32 {
        opacity: 0.4;
      }

      .cls-33 {
        fill: none;
        stroke: #006838;
        stroke-linecap: round;
        stroke-linejoin: round;
        stroke-miterlimit: 10;
        stroke-width: 2px;
      }

      .cls-34 {
        font-size: 30px;
        font-family: Raleway-Bold, Raleway;
        font-weight: 700;
      }
    </style>
    <clipPath id="clip-path">
      <path id="Path_4909" data-name="Path 4909" d="M165.5,192.6c.3.4.7.7.7-.3a20.33,20.33,0,0,0-2.6-8l-.1.2-.5-1.4.9.7-.1.2a24.55,24.55,0,0,1,2.2,5l-.1-1.2a18.429,18.429,0,0,0-1.6-6.1l-.1.1-.3-1.4.9,1-.2.1a13.315,13.315,0,0,1,1,2.8l-.3-4-.2-.1.4-.9.5,1.5-.2-.1.3,4a8.65,8.65,0,0,1,.7-1.7l-.2-.3.8.1-.1,1.2-.2-.3a6.778,6.778,0,0,0-.8,4.5l.1,1.2a3.572,3.572,0,0,1,1.6-2.5l-.2-.4.9.5-.3,1-.2-.4c-1.3.8-1.9,2.6-1.7,5.2.1.9.4,1.1.8,1.2,5.2,1.5,2.7-9.4-2.3-17.8-3.9,2.5-4.8,10.9.5,16.4"/>
    </clipPath>
    <linearGradient id="linear-gradient" x1="-76.215" y1="15.695" x2="-76.206" y2="15.695" gradientUnits="objectBoundingBox">
      <stop offset="0" stop-color="#a6ce39"/>
      <stop offset="0.1" stop-color="#a6ce39"/>
      <stop offset="0.9" stop-color="#007f3e"/>
      <stop offset="1" stop-color="#007f3e"/>
    </linearGradient>
  </defs>
  <g id="Group_4065" data-name="Group 4065" transform="translate(-13936 -11686.649)">
    <path id="Path_4895" data-name="Path 4895" class="cls-1" d="M.1,207.7,340.3,404.1l170.1-98.4L170.1,109.5Z"/>
    <path id="Path_4896" data-name="Path 4896" class="cls-2" d="M241.1,232.2l-21.8,12.6L395.1,345.3l31-6.8Z"/>
    <path id="Path_4897" data-name="Path 4897" class="cls-3" d="M340.3,420.5l170.1-98.2V305.7L340.3,404.1Z"/>
    <path id="Path_4898" data-name="Path 4898" class="cls-4" d="M0,223.8,340.3,420.5V404.1L.1,207.7Z"/>
    <path id="Path_4899" data-name="Path 4899" class="cls-4" d="M425.3,338.6,241.1,232.2V215.9l170.1,98.2,14.1-8.2Z"/>
    <path id="Path_4900" data-name="Path 4900" class="cls-5" d="M425.3,338.6V305.9l14.3-8.1-.1,32.6Z"/>
    <path id="Path_4901" data-name="Path 4901" class="cls-6" d="M411.2,321.1l42.5-24.9v-5.1l-42.5,24.4Z"/>
    <path id="Path_4902" data-name="Path 4902" class="cls-6" d="M143.1,159.9l12.9-7.6v.6l-11.9,6.8-.6.4Z"/>
    <path id="Path_4903" data-name="Path 4903" class="cls-7" d="M411.2,321.1v-7l-266.6-154s-.8-.7-1.5-.2a1.673,1.673,0,0,0-.7,1.5v4.5Z"/>
    <path id="Path_4904" data-name="Path 4904" class="cls-8" d="M326.7,266.6l42.5-24.4a2.937,2.937,0,0,0-1.4-2.4c-.3-.2-1.3-.8-1.3-.8L186.9,135.5l-42.8,24.3L323.8,263.7s1.3.7,1.7,1A2.146,2.146,0,0,1,326.7,266.6Z"/>
    <path id="Path_4905" data-name="Path 4905" class="cls-9" d="M226.9,214.7l14.2,8.3v9.3l-28.4,16.4V183.2s3.3-26,23.6-57.5c24.2-37.6,47.3-48.9,47.3-48.9V191.4l-14.2-8.2V150.5L226.6,175Z"/>
    <path id="Path_4906" data-name="Path 4906" class="cls-10" d="M226.6,210.1l-13.9,17.1v21.4L238,234.1l-3.2-14.8-7.9-4.6Z"/>
    <path id="Path_4907" data-name="Path 4907" class="cls-11" d="M212.7,183.1s3.3-26,23.6-57.5c24.2-37.6,47.3-48.9,47.3-48.9L226.9,44s-23,11.3-47.3,48.9c-20.3,31.5-23.6,57.5-23.6,57.5v65.5l56.7,32.7V183.1Z"/>
    <g id="Group_3972" data-name="Group 3972">
      <g id="Group_3971" data-name="Group 3971">
        <g id="Group_3970" data-name="Group 3970" class="cls-12">
          <path id="Path_4908" data-name="Path 4908" class="cls-13" d="M164.4,167.2l14,25.9-11.3,9.4-12.9-25.3Z"/>
        </g>
      </g>
      <path id="Path_4910" data-name="Path 4910" class="cls-14" d="M194.4,209.6l-1.4-1,1.6-7.4,1.6,1,3,10.6-1.5-1-1.7-6.2-.3-1.2a8.374,8.374,0,0,1-.2-1c0,.4-.1.9-.2,1.7Z"/>
      <path id="Path_4911" data-name="Path 4911" class="cls-14" d="M174.2,196l-1.9-7.5h0c.2,1.4.2,2.3.3,2.7l.3,3.9-1.1-.7-.6-8.3,1.7,1.1,1.9,7.3h0l1-5.4,1.7,1.1.6,8.4-1.2-.8-.3-4v-.6a18.786,18.786,0,0,0-.1-1.9h0l-1,5.5Z"/>
      <path id="Path_4912" data-name="Path 4912" class="cls-14" d="M182,193.1l1.3.9-1.5,7.2-1.4-1-2.7-9.8,1.3.8,1.5,5.8a10.378,10.378,0,0,1,.3,1.2,5.072,5.072,0,0,1,.2.9c0-.3.1-.9.2-1.7Z"/>
      <path id="Path_4913" data-name="Path 4913" class="cls-14" d="M183.7,194.1l1.3.9.7,8.7-1.4-.9Z"/>
      <path id="Path_4914" data-name="Path 4914" class="cls-14" d="M190.4,204.6c.1.8-.1,1.3-.5,1.4-.4.2-1,0-1.7-.5a8.01,8.01,0,0,1-1.9-1.8l-.1-1.7c.5.5.8,1,1.1,1.3s.6.5.8.7c.3.2.5.3.7.2.2,0,.2-.2.2-.5,0-.2-.1-.3-.1-.5l-.3-.6a5.286,5.286,0,0,0-.9-1.1,7.7,7.7,0,0,1-.9-1.3,5.36,5.36,0,0,1-.5-1.1l-.3-1.2c-.1-.8.1-1.2.4-1.4s.9-.1,1.6.4a7.006,7.006,0,0,1,1,.8,10.948,10.948,0,0,1,1,1.1l-.3,1.2a7.3,7.3,0,0,1-.9-1,3.039,3.039,0,0,0-.7-.5c-.3-.2-.5-.2-.6-.1a.588.588,0,0,0-.2.5c0,.2.1.3.1.5.1.2.2.3.3.5a8.658,8.658,0,0,0,.9,1.2,10.828,10.828,0,0,1,1.3,2,2.251,2.251,0,0,1,.5,1.5"/>
      <path id="Path_4915" data-name="Path 4915" class="cls-14" d="M190.7,198.7l1.4.9.6,8.8-1.4-.9Z"/>
    </g>
    <path id="Path_4916" data-name="Path 4916" class="cls-5" d="M269.4,183.1V150.4l-28.6,16.4Z"/>
    <g id="Group_3973" data-name="Group 3973">
      <path id="Path_4917" data-name="Path 4917" class="cls-15" d="M227.7,212.1a4.239,4.239,0,0,0,2.3,3.6c1.3.7,2.3.2,2.1-2.1a4.393,4.393,0,0,0-2.5-3.8C228.6,209.1,227.6,210,227.7,212.1Z"/>
      <path id="Path_4918" data-name="Path 4918" class="cls-5" d="M228.7,212.4a2.578,2.578,0,0,0,1.3,2.1c.7.4,1.3.1,1.2-1.2a2.657,2.657,0,0,0-1.4-2.2C229.2,210.7,228.6,211.2,228.7,212.4Z"/>
      <path id="Path_4919" data-name="Path 4919" class="cls-16" d="M229.5,212.7a1.02,1.02,0,0,0,.5.8c.3.1.5.1.4-.4a.824.824,0,0,0-.5-.8C229.7,212,229.5,212.2,229.5,212.7Z"/>
    </g>
    <g id="Group_3974" data-name="Group 3974">
      <path id="Path_4920" data-name="Path 4920" class="cls-15" d="M233.4,215.4a4.239,4.239,0,0,0,2.3,3.6c1.3.7,2.3.2,2.1-2.1a4.393,4.393,0,0,0-2.5-3.8C234.2,212.4,233.2,213.2,233.4,215.4Z"/>
      <path id="Path_4921" data-name="Path 4921" class="cls-5" d="M234.3,215.7a2.578,2.578,0,0,0,1.3,2.1c.7.4,1.3.1,1.2-1.2a2.657,2.657,0,0,0-1.4-2.2C234.8,213.9,234.2,214.4,234.3,215.7Z"/>
      <path id="Path_4922" data-name="Path 4922" class="cls-16" d="M235.1,215.9a1.02,1.02,0,0,0,.5.8c.3.1.5.1.4-.4a.824.824,0,0,0-.5-.8C235.3,215.3,235.1,215.5,235.1,215.9Z"/>
    </g>
    <g id="Group_3975" data-name="Group 3975">
      <path id="Path_4923" data-name="Path 4923" class="cls-15" d="M239.2,218.9a4.239,4.239,0,0,0,2.3,3.6c1.3.7,2.3.2,2.1-2.1a4.393,4.393,0,0,0-2.5-3.8C240,215.9,239,216.7,239.2,218.9Z"/>
      <path id="Path_4924" data-name="Path 4924" class="cls-5" d="M240.1,219.2a2.578,2.578,0,0,0,1.3,2.1c.7.4,1.3.1,1.2-1.2a2.657,2.657,0,0,0-1.4-2.2C240.6,217.4,240,217.9,240.1,219.2Z"/>
      <path id="Path_4925" data-name="Path 4925" class="cls-16" d="M241,219.4a1.02,1.02,0,0,0,.5.8c.3.1.5.1.4-.4a.824.824,0,0,0-.5-.8C241.1,218.8,240.9,219,241,219.4Z"/>
    </g>
    <g id="Group_3976" data-name="Group 3976">
      <path id="Path_4926" data-name="Path 4926" class="cls-15" d="M245.6,222.5a4.239,4.239,0,0,0,2.3,3.6c1.3.7,2.3.2,2.1-2.1a4.393,4.393,0,0,0-2.5-3.8C246.4,219.4,245.4,220.3,245.6,222.5Z"/>
      <path id="Path_4927" data-name="Path 4927" class="cls-5" d="M246.6,222.7a2.578,2.578,0,0,0,1.3,2.1c.7.4,1.3.1,1.2-1.2a2.657,2.657,0,0,0-1.4-2.2C247,221,246.5,221.5,246.6,222.7Z"/>
      <path id="Path_4928" data-name="Path 4928" class="cls-16" d="M247.4,223a1.02,1.02,0,0,0,.5.8c.3.1.5.1.4-.4a.824.824,0,0,0-.5-.8C247.5,222.4,247.3,222.5,247.4,223Z"/>
    </g>
    <g id="Group_3977" data-name="Group 3977">
      <path id="Path_4929" data-name="Path 4929" class="cls-15" d="M252.2,226.3a4.239,4.239,0,0,0,2.3,3.6c1.3.7,2.3.2,2.1-2.1a4.393,4.393,0,0,0-2.5-3.8C253,223.3,252,224.1,252.2,226.3Z"/>
      <path id="Path_4930" data-name="Path 4930" class="cls-5" d="M253.1,226.6a2.578,2.578,0,0,0,1.3,2.1c.7.4,1.3.1,1.2-1.2a2.657,2.657,0,0,0-1.4-2.2C253.6,224.8,253,225.3,253.1,226.6Z"/>
      <path id="Path_4931" data-name="Path 4931" class="cls-16" d="M253.9,226.8a1.02,1.02,0,0,0,.5.8c.3.1.5.1.4-.4a.824.824,0,0,0-.5-.8C254.1,226.2,253.9,226.3,253.9,226.8Z"/>
    </g>
    <g id="Group_3978" data-name="Group 3978">
      <path id="Path_4932" data-name="Path 4932" class="cls-15" d="M258,229.5a4.239,4.239,0,0,0,2.3,3.6c1.3.7,2.3.2,2.1-2.1a4.393,4.393,0,0,0-2.5-3.8C258.8,226.5,257.8,227.3,258,229.5Z"/>
      <path id="Path_4933" data-name="Path 4933" class="cls-5" d="M258.9,229.8a2.578,2.578,0,0,0,1.3,2.1c.7.4,1.3.1,1.2-1.2a2.657,2.657,0,0,0-1.4-2.2C259.4,228.1,258.9,228.5,258.9,229.8Z"/>
      <path id="Path_4934" data-name="Path 4934" class="cls-16" d="M259.8,230a1.02,1.02,0,0,0,.5.8c.3.1.5.1.4-.4a.824.824,0,0,0-.5-.8C259.9,229.4,259.7,229.6,259.8,230Z"/>
    </g>
    <g id="Group_3979" data-name="Group 3979">
      <path id="Path_4935" data-name="Path 4935" class="cls-15" d="M264.8,233.4a4.239,4.239,0,0,0,2.3,3.6c1.3.7,2.3.2,2.1-2.1a4.393,4.393,0,0,0-2.5-3.8C265.6,230.4,264.6,231.2,264.8,233.4Z"/>
      <path id="Path_4936" data-name="Path 4936" class="cls-5" d="M265.7,233.7a2.578,2.578,0,0,0,1.3,2.1c.7.4,1.3.1,1.2-1.2a2.657,2.657,0,0,0-1.4-2.2C266.2,232,265.6,232.5,265.7,233.7Z"/>
      <path id="Path_4937" data-name="Path 4937" class="cls-16" d="M266.5,234a1.02,1.02,0,0,0,.5.8c.3.1.5.1.4-.4a.824.824,0,0,0-.5-.8C266.7,233.3,266.5,233.5,266.5,234Z"/>
    </g>
    <g id="Group_3980" data-name="Group 3980">
      <path id="Path_4938" data-name="Path 4938" class="cls-15" d="M271.5,237.4a4.239,4.239,0,0,0,2.3,3.6c1.3.7,2.3.2,2.1-2.1a4.393,4.393,0,0,0-2.5-3.8C272.3,234.3,271.3,235.2,271.5,237.4Z"/>
      <path id="Path_4939" data-name="Path 4939" class="cls-5" d="M272.4,237.6a2.578,2.578,0,0,0,1.3,2.1c.7.4,1.3.1,1.2-1.2a2.657,2.657,0,0,0-1.4-2.2C272.9,235.9,272.3,236.4,272.4,237.6Z"/>
      <path id="Path_4940" data-name="Path 4940" class="cls-16" d="M273.2,237.9a1.02,1.02,0,0,0,.5.8c.3.1.5.1.4-.4a.824.824,0,0,0-.5-.8C273.4,237.3,273.2,237.4,273.2,237.9Z"/>
    </g>
    <g id="Group_3981" data-name="Group 3981">
      <path id="Path_4941" data-name="Path 4941" class="cls-15" d="M278.2,241.3a4.239,4.239,0,0,0,2.3,3.6c1.3.7,2.3.2,2.1-2.1a4.393,4.393,0,0,0-2.5-3.8C279,238.3,278,239.1,278.2,241.3Z"/>
      <path id="Path_4942" data-name="Path 4942" class="cls-5" d="M279.2,241.6a2.578,2.578,0,0,0,1.3,2.1c.7.4,1.3.1,1.2-1.2a2.657,2.657,0,0,0-1.4-2.2C279.6,239.8,279.1,240.3,279.2,241.6Z"/>
      <path id="Path_4943" data-name="Path 4943" class="cls-16" d="M280,241.8a1.02,1.02,0,0,0,.5.8c.3.1.5.1.4-.4a.824.824,0,0,0-.5-.8C280.1,241.2,279.9,241.4,280,241.8Z"/>
    </g>
    <g id="Group_3982" data-name="Group 3982">
      <path id="Path_4944" data-name="Path 4944" class="cls-15" d="M285,245.2a4.239,4.239,0,0,0,2.3,3.6c1.3.7,2.3.2,2.1-2.1a4.393,4.393,0,0,0-2.5-3.8C285.8,242.2,284.8,243,285,245.2Z"/>
      <path id="Path_4945" data-name="Path 4945" class="cls-5" d="M285.9,245.5a2.578,2.578,0,0,0,1.3,2.1c.7.4,1.3.1,1.2-1.2a2.657,2.657,0,0,0-1.4-2.2C286.4,243.8,285.8,244.2,285.9,245.5Z"/>
      <path id="Path_4946" data-name="Path 4946" class="cls-16" d="M286.7,245.7a1.02,1.02,0,0,0,.5.8c.3.1.5.1.4-.4a.824.824,0,0,0-.5-.8C286.9,245.1,286.7,245.3,286.7,245.7Z"/>
    </g>
    <g id="Group_3983" data-name="Group 3983">
      <path id="Path_4947" data-name="Path 4947" class="cls-15" d="M291.7,249.1a4.239,4.239,0,0,0,2.3,3.6c1.3.7,2.3.2,2.1-2.1a4.393,4.393,0,0,0-2.5-3.8C292.5,246.1,291.5,246.9,291.7,249.1Z"/>
      <path id="Path_4948" data-name="Path 4948" class="cls-5" d="M292.7,249.4a2.578,2.578,0,0,0,1.3,2.1c.7.4,1.3.1,1.2-1.2a2.657,2.657,0,0,0-1.4-2.2C293.1,247.7,292.6,248.2,292.7,249.4Z"/>
      <path id="Path_4949" data-name="Path 4949" class="cls-16" d="M293.5,249.7a1.02,1.02,0,0,0,.5.8c.3.1.5.1.4-.4a.824.824,0,0,0-.5-.8C293.6,249,293.4,249.2,293.5,249.7Z"/>
    </g>
    <g id="Group_3984" data-name="Group 3984">
      <path id="Path_4950" data-name="Path 4950" class="cls-15" d="M298.5,253a4.239,4.239,0,0,0,2.3,3.6c1.3.7,2.3.2,2.1-2.1a4.393,4.393,0,0,0-2.5-3.8C299.3,250,298.3,250.9,298.5,253Z"/>
      <path id="Path_4951" data-name="Path 4951" class="cls-5" d="M299.4,253.3a2.578,2.578,0,0,0,1.3,2.1c.7.4,1.3.1,1.2-1.2a2.657,2.657,0,0,0-1.4-2.2C299.9,251.6,299.3,252.1,299.4,253.3Z"/>
      <path id="Path_4952" data-name="Path 4952" class="cls-16" d="M300.2,253.6a1.02,1.02,0,0,0,.5.8c.3.1.5.1.4-.4a.824.824,0,0,0-.5-.8C300.4,252.9,300.2,253.1,300.2,253.6Z"/>
    </g>
    <g id="Group_3985" data-name="Group 3985">
      <path id="Path_4953" data-name="Path 4953" class="cls-15" d="M305.2,257a4.239,4.239,0,0,0,2.3,3.6c1.3.7,2.3.2,2.1-2.1a4.393,4.393,0,0,0-2.5-3.8C306,254,305,254.8,305.2,257Z"/>
      <path id="Path_4954" data-name="Path 4954" class="cls-5" d="M306.2,257.3a2.578,2.578,0,0,0,1.3,2.1c.7.4,1.3.1,1.2-1.2a2.657,2.657,0,0,0-1.4-2.2C306.6,255.5,306.1,256,306.2,257.3Z"/>
      <path id="Path_4955" data-name="Path 4955" class="cls-16" d="M307,257.5a1.02,1.02,0,0,0,.5.8c.3.1.5.1.4-.4a.824.824,0,0,0-.5-.8C307.1,256.9,306.9,257,307,257.5Z"/>
    </g>
    <g id="Group_3986" data-name="Group 3986">
      <path id="Path_4956" data-name="Path 4956" class="cls-15" d="M312,260.9a4.239,4.239,0,0,0,2.3,3.6c1.3.7,2.3.2,2.1-2.1a4.393,4.393,0,0,0-2.5-3.8C312.8,257.9,311.8,258.7,312,260.9Z"/>
      <path id="Path_4957" data-name="Path 4957" class="cls-5" d="M312.9,261.2a2.578,2.578,0,0,0,1.3,2.1c.7.4,1.3.1,1.2-1.2a2.657,2.657,0,0,0-1.4-2.2C313.4,259.4,312.8,259.9,312.9,261.2Z"/>
      <path id="Path_4958" data-name="Path 4958" class="cls-16" d="M313.7,261.4a1.02,1.02,0,0,0,.5.8c.3.1.5.1.4-.4a.824.824,0,0,0-.5-.8C313.9,260.8,313.7,261,313.7,261.4Z"/>
    </g>
    <g id="Group_3987" data-name="Group 3987">
      <path id="Path_4959" data-name="Path 4959" class="cls-15" d="M318.7,264.8a4.239,4.239,0,0,0,2.3,3.6c1.3.7,2.3.2,2.1-2.1a4.393,4.393,0,0,0-2.5-3.8C319.5,261.8,318.5,262.6,318.7,264.8Z"/>
      <path id="Path_4960" data-name="Path 4960" class="cls-5" d="M319.7,265.1a2.578,2.578,0,0,0,1.3,2.1c.7.4,1.3.1,1.2-1.2a2.657,2.657,0,0,0-1.4-2.2C320.1,263.4,319.6,263.8,319.7,265.1Z"/>
      <path id="Path_4961" data-name="Path 4961" class="cls-16" d="M320.5,265.3a1.02,1.02,0,0,0,.5.8c.3.1.5.1.4-.4a.824.824,0,0,0-.5-.8C320.6,264.7,320.4,264.9,320.5,265.3Z"/>
    </g>
    <g id="Group_3988" data-name="Group 3988">
      <path id="Path_4962" data-name="Path 4962" class="cls-15" d="M325.5,268.7a4.239,4.239,0,0,0,2.3,3.6c1.3.7,2.3.2,2.1-2.1a4.393,4.393,0,0,0-2.5-3.8C326.3,265.7,325.3,266.5,325.5,268.7Z"/>
      <path id="Path_4963" data-name="Path 4963" class="cls-5" d="M326.4,269a2.578,2.578,0,0,0,1.3,2.1c.7.4,1.3.1,1.2-1.2a2.657,2.657,0,0,0-1.4-2.2C326.9,267.3,326.3,267.8,326.4,269Z"/>
      <path id="Path_4964" data-name="Path 4964" class="cls-16" d="M327.2,269.3a1.02,1.02,0,0,0,.5.8c.3.1.5.1.4-.4a.824.824,0,0,0-.5-.8C327.4,268.6,327.2,268.8,327.2,269.3Z"/>
    </g>
    <g id="Group_3989" data-name="Group 3989">
      <path id="Path_4965" data-name="Path 4965" class="cls-15" d="M332.2,272.7a4.239,4.239,0,0,0,2.3,3.6c1.3.7,2.3.2,2.1-2.1a4.393,4.393,0,0,0-2.5-3.8C333,269.6,332,270.5,332.2,272.7Z"/>
      <path id="Path_4966" data-name="Path 4966" class="cls-5" d="M333.2,272.9a2.578,2.578,0,0,0,1.3,2.1c.7.4,1.3.1,1.2-1.2a2.657,2.657,0,0,0-1.4-2.2C333.6,271.2,333.1,271.7,333.2,272.9Z"/>
      <path id="Path_4967" data-name="Path 4967" class="cls-16" d="M334,273.2a1.02,1.02,0,0,0,.5.8c.3.1.5.1.4-.4a.824.824,0,0,0-.5-.8C334.1,272.6,333.9,272.7,334,273.2Z"/>
    </g>
    <g id="Group_3990" data-name="Group 3990">
      <path id="Path_4968" data-name="Path 4968" class="cls-15" d="M339,276.6a4.239,4.239,0,0,0,2.3,3.6c1.3.7,2.3.2,2.1-2.1a4.393,4.393,0,0,0-2.5-3.8C339.8,273.6,338.8,274.4,339,276.6Z"/>
      <path id="Path_4969" data-name="Path 4969" class="cls-5" d="M339.9,276.9a2.578,2.578,0,0,0,1.3,2.1c.7.4,1.3.1,1.2-1.2a2.657,2.657,0,0,0-1.4-2.2C340.4,275.1,339.8,275.6,339.9,276.9Z"/>
      <path id="Path_4970" data-name="Path 4970" class="cls-16" d="M340.7,277.1a1.02,1.02,0,0,0,.5.8c.3.1.5.1.4-.4a.824.824,0,0,0-.5-.8C340.9,276.5,340.7,276.7,340.7,277.1Z"/>
    </g>
    <g id="Group_3991" data-name="Group 3991">
      <path id="Path_4971" data-name="Path 4971" class="cls-15" d="M345.7,280.5a4.239,4.239,0,0,0,2.3,3.6c1.3.7,2.3.2,2.1-2.1a4.393,4.393,0,0,0-2.5-3.8C346.5,277.5,345.5,278.3,345.7,280.5Z"/>
      <path id="Path_4972" data-name="Path 4972" class="cls-5" d="M346.7,280.8a2.578,2.578,0,0,0,1.3,2.1c.7.4,1.3.1,1.2-1.2a2.657,2.657,0,0,0-1.4-2.2C347.1,279.1,346.6,279.5,346.7,280.8Z"/>
      <path id="Path_4973" data-name="Path 4973" class="cls-16" d="M347.5,281a1.02,1.02,0,0,0,.5.8c.3.1.5.1.4-.4a.824.824,0,0,0-.5-.8C347.6,280.4,347.4,280.6,347.5,281Z"/>
    </g>
    <g id="Group_3992" data-name="Group 3992">
      <path id="Path_4974" data-name="Path 4974" class="cls-15" d="M352.5,284.4a4.239,4.239,0,0,0,2.3,3.6c1.3.7,2.3.2,2.1-2.1a4.393,4.393,0,0,0-2.5-3.8C353.3,281.4,352.3,282.2,352.5,284.4Z"/>
      <path id="Path_4975" data-name="Path 4975" class="cls-5" d="M353.4,284.7a2.578,2.578,0,0,0,1.3,2.1c.7.4,1.3.1,1.2-1.2a2.657,2.657,0,0,0-1.4-2.2C353.9,283,353.3,283.5,353.4,284.7Z"/>
      <path id="Path_4976" data-name="Path 4976" class="cls-16" d="M354.2,285a1.02,1.02,0,0,0,.5.8c.3.1.5.1.4-.4a.824.824,0,0,0-.5-.8C354.4,284.3,354.2,284.5,354.2,285Z"/>
    </g>
    <g id="Group_3993" data-name="Group 3993">
      <path id="Path_4977" data-name="Path 4977" class="cls-15" d="M359.2,288.3a4.239,4.239,0,0,0,2.3,3.6c1.3.7,2.3.2,2.1-2.1a4.393,4.393,0,0,0-2.5-3.8C360,285.3,359,286.2,359.2,288.3Z"/>
      <path id="Path_4978" data-name="Path 4978" class="cls-5" d="M360.2,288.6a2.578,2.578,0,0,0,1.3,2.1c.7.4,1.3.1,1.2-1.2a2.657,2.657,0,0,0-1.4-2.2C360.6,286.9,360.1,287.4,360.2,288.6Z"/>
      <path id="Path_4979" data-name="Path 4979" class="cls-16" d="M361,288.9a1.02,1.02,0,0,0,.5.8c.3.1.5.1.4-.4a.824.824,0,0,0-.5-.8C361.1,288.2,360.9,288.4,361,288.9Z"/>
    </g>
    <g id="Group_3994" data-name="Group 3994">
      <path id="Path_4980" data-name="Path 4980" class="cls-15" d="M366,292.3a4.239,4.239,0,0,0,2.3,3.6c1.3.7,2.3.2,2.1-2.1a4.393,4.393,0,0,0-2.5-3.8C366.8,289.3,365.8,290.1,366,292.3Z"/>
      <path id="Path_4981" data-name="Path 4981" class="cls-5" d="M366.9,292.5a2.578,2.578,0,0,0,1.3,2.1c.7.4,1.3.1,1.2-1.2a2.657,2.657,0,0,0-1.4-2.2C367.4,290.8,366.8,291.3,366.9,292.5Z"/>
      <path id="Path_4982" data-name="Path 4982" class="cls-16" d="M367.7,292.8a1.02,1.02,0,0,0,.5.8c.3.1.5.1.4-.4a.824.824,0,0,0-.5-.8C367.9,292.2,367.7,292.3,367.7,292.8Z"/>
    </g>
    <g id="Group_3995" data-name="Group 3995">
      <path id="Path_4983" data-name="Path 4983" class="cls-15" d="M372.7,296.2a4.239,4.239,0,0,0,2.3,3.6c1.3.7,2.3.2,2.1-2.1a4.393,4.393,0,0,0-2.5-3.8C373.5,293.2,372.5,294,372.7,296.2Z"/>
      <path id="Path_4984" data-name="Path 4984" class="cls-5" d="M373.7,296.5a2.578,2.578,0,0,0,1.3,2.1c.7.4,1.3.1,1.2-1.2a2.657,2.657,0,0,0-1.4-2.2C374.1,294.7,373.6,295.2,373.7,296.5Z"/>
      <path id="Path_4985" data-name="Path 4985" class="cls-16" d="M374.5,296.7a1.02,1.02,0,0,0,.5.8c.3.1.5.1.4-.4a.824.824,0,0,0-.5-.8C374.6,296.1,374.4,296.3,374.5,296.7Z"/>
    </g>
    <g id="Group_3996" data-name="Group 3996">
      <path id="Path_4986" data-name="Path 4986" class="cls-15" d="M379.5,300.1a4.239,4.239,0,0,0,2.3,3.6c1.3.7,2.3.2,2.1-2.1a4.393,4.393,0,0,0-2.5-3.8C380.3,297.1,379.3,297.9,379.5,300.1Z"/>
      <path id="Path_4987" data-name="Path 4987" class="cls-5" d="M380.4,300.4a2.578,2.578,0,0,0,1.3,2.1c.7.4,1.3.1,1.2-1.2a2.657,2.657,0,0,0-1.4-2.2C380.9,298.7,380.3,299.1,380.4,300.4Z"/>
      <path id="Path_4988" data-name="Path 4988" class="cls-16" d="M381.2,300.6a1.02,1.02,0,0,0,.5.8c.3.1.5.1.4-.4a.824.824,0,0,0-.5-.8C381.4,300,381.2,300.2,381.2,300.6Z"/>
    </g>
    <g id="Group_3997" data-name="Group 3997">
      <path id="Path_4989" data-name="Path 4989" class="cls-15" d="M386.2,304a4.239,4.239,0,0,0,2.3,3.6c1.3.7,2.3.2,2.1-2.1a4.393,4.393,0,0,0-2.5-3.8C387,301,386,301.8,386.2,304Z"/>
      <path id="Path_4990" data-name="Path 4990" class="cls-5" d="M387.2,304.3a2.578,2.578,0,0,0,1.3,2.1c.7.4,1.3.1,1.2-1.2a2.657,2.657,0,0,0-1.4-2.2C387.6,302.6,387.1,303.1,387.2,304.3Z"/>
      <path id="Path_4991" data-name="Path 4991" class="cls-16" d="M388,304.6a1.02,1.02,0,0,0,.5.8c.3.1.5.1.4-.4a.824.824,0,0,0-.5-.8C388.1,303.9,387.9,304.1,388,304.6Z"/>
    </g>
    <g id="Group_3998" data-name="Group 3998">
      <path id="Path_4992" data-name="Path 4992" class="cls-15" d="M393,308a4.239,4.239,0,0,0,2.3,3.6c1.3.7,2.3.2,2.1-2.1a4.393,4.393,0,0,0-2.5-3.8C393.8,304.9,392.8,305.8,393,308Z"/>
      <path id="Path_4993" data-name="Path 4993" class="cls-5" d="M393.9,308.2a2.578,2.578,0,0,0,1.3,2.1c.7.4,1.3.1,1.2-1.2a2.657,2.657,0,0,0-1.4-2.2C394.4,306.5,393.8,307,393.9,308.2Z"/>
      <path id="Path_4994" data-name="Path 4994" class="cls-16" d="M394.7,308.5a1.02,1.02,0,0,0,.5.8c.3.1.5.1.4-.4a.824.824,0,0,0-.5-.8C394.9,307.9,394.7,308,394.7,308.5Z"/>
    </g>
    <g id="Group_3999" data-name="Group 3999">
      <path id="Path_4995" data-name="Path 4995" class="cls-15" d="M399.7,311.9a4.239,4.239,0,0,0,2.3,3.6c1.3.7,2.3.2,2.1-2.1a4.393,4.393,0,0,0-2.5-3.8C400.5,308.9,399.5,309.7,399.7,311.9Z"/>
      <path id="Path_4996" data-name="Path 4996" class="cls-5" d="M400.7,312.2a2.578,2.578,0,0,0,1.3,2.1c.7.4,1.3.1,1.2-1.2a2.657,2.657,0,0,0-1.4-2.2C401.1,310.4,400.6,310.9,400.7,312.2Z"/>
      <path id="Path_4997" data-name="Path 4997" class="cls-16" d="M401.5,312.4a1.02,1.02,0,0,0,.5.8c.3.1.5.1.4-.4a.824.824,0,0,0-.5-.8C401.6,311.8,401.4,311.9,401.5,312.4Z"/>
    </g>
    <g id="Group_4000" data-name="Group 4000">
      <path id="Path_4998" data-name="Path 4998" class="cls-15" d="M406.5,315.8a4.239,4.239,0,0,0,2.3,3.6c1.3.7,2.3.2,2.1-2.1a4.393,4.393,0,0,0-2.5-3.8C407.3,312.8,406.3,313.6,406.5,315.8Z"/>
      <path id="Path_4999" data-name="Path 4999" class="cls-5" d="M407.4,316.1a2.578,2.578,0,0,0,1.3,2.1c.7.4,1.3.1,1.2-1.2a2.657,2.657,0,0,0-1.4-2.2C407.9,314.4,407.3,314.8,407.4,316.1Z"/>
      <path id="Path_5000" data-name="Path 5000" class="cls-16" d="M408.2,316.3a1.02,1.02,0,0,0,.5.8c.3.1.5.1.4-.4a.824.824,0,0,0-.5-.8C408.4,315.7,408.2,315.9,408.2,316.3Z"/>
    </g>
    <path id="Path_5001" data-name="Path 5001" class="cls-8" d="M411.2,315.5l42.5-24.4a2.937,2.937,0,0,0-1.4-2.4c-.3-.2-1.3-.8-1.3-.8L240.8,166.8l-14.2,8.1.3,32.8L408.3,312.4s1.3.7,1.7,1A2.586,2.586,0,0,1,411.2,315.5Z"/>
    <g id="Group_4001" data-name="Group 4001">
      <path id="Path_5002" data-name="Path 5002" class="cls-17" d="M453.1,289.4l-42.8,24.2h0a2.614,2.614,0,0,1,.9,1.9l42.5-24.4A3.124,3.124,0,0,0,453.1,289.4Z"/>
    </g>
    <g id="Group_4002" data-name="Group 4002">
      <path id="Path_5003" data-name="Path 5003" class="cls-17" d="M436.9,282.7c-.1,0-.2,0-.2-.1a.192.192,0,0,1,.1-.3l1.3-.8a.224.224,0,1,1,.2.4l-1.3.8Z"/>
      <path id="Path_5004" data-name="Path 5004" class="cls-17" d="M433.6,284.6c-.1,0-.2,0-.2-.1a.192.192,0,0,1,.1-.3l2.5-1.4a.224.224,0,1,1,.2.4l-2.5,1.4Z"/>
      <path id="Path_5005" data-name="Path 5005" class="cls-17" d="M400.7,303.7c-.1,0-.2,0-.2-.1a.192.192,0,0,1,.1-.3l2.5-1.4a.224.224,0,1,1,.2.4l-2.5,1.4C400.8,303.6,400.8,303.7,400.7,303.7Zm3.3-1.9c-.1,0-.2,0-.2-.1a.192.192,0,0,1,.1-.3l2.5-1.4a.224.224,0,0,1,.2.4l-2.5,1.4C404.1,301.7,404,301.8,404,301.8Zm3.3-1.9c-.1,0-.2,0-.2-.1a.192.192,0,0,1,.1-.3l2.5-1.4a.224.224,0,0,1,.2.4l-2.5,1.4C407.4,299.8,407.3,299.9,407.3,299.9Zm3.3-1.9c-.1,0-.2,0-.2-.1a.192.192,0,0,1,.1-.3l2.5-1.4a.224.224,0,0,1,.2.4l-2.5,1.4C410.7,297.9,410.6,298,410.6,298Zm3.3-1.9c-.1,0-.2,0-.2-.1a.192.192,0,0,1,.1-.3l2.5-1.4a.224.224,0,0,1,.2.4L414,296Zm3.3-1.9c-.1,0-.2,0-.2-.1a.192.192,0,0,1,.1-.3l2.5-1.4a.224.224,0,1,1,.2.4l-2.5,1.4C417.3,294.1,417.2,294.2,417.2,294.2Zm3.3-1.9c-.1,0-.2,0-.2-.1a.192.192,0,0,1,.1-.3l2.5-1.4a.224.224,0,0,1,.2.4l-2.5,1.4C420.5,292.2,420.5,292.3,420.5,292.3Zm3.3-1.9c-.1,0-.2,0-.2-.1a.192.192,0,0,1,.1-.3l2.5-1.4a.224.224,0,1,1,.2.4l-2.5,1.4C423.8,290.3,423.8,290.4,423.8,290.4Zm3.2-1.9c-.1,0-.2,0-.2-.1a.192.192,0,0,1,.1-.3l2.5-1.4a.224.224,0,0,1,.2.4l-2.5,1.4C427.1,288.4,427.1,288.5,427,288.5Zm3.3-2c-.1,0-.2,0-.2-.1a.192.192,0,0,1,.1-.3l2.5-1.4a.224.224,0,0,1,.2.4l-2.5,1.4Z"/>
      <path id="Path_5006" data-name="Path 5006" class="cls-17" d="M398.6,304.9c-.1,0-.2,0-.2-.1a.192.192,0,0,1,.1-.3l1.3-.8a.224.224,0,0,1,.2.4l-1.3.8Z"/>
    </g>
    <g id="Group_4003" data-name="Group 4003">
      <path id="Path_5007" data-name="Path 5007" class="cls-17" d="M435.5,281.9c-.1,0-.2,0-.2-.1a.192.192,0,0,1,.1-.3l1.3-.8a.224.224,0,0,1,.2.4l-1.3.8Z"/>
      <path id="Path_5008" data-name="Path 5008" class="cls-17" d="M432.2,283.8c-.1,0-.2,0-.2-.1a.192.192,0,0,1,.1-.3l2.5-1.4a.224.224,0,1,1,.2.4l-2.5,1.4Z"/>
      <path id="Path_5009" data-name="Path 5009" class="cls-17" d="M425.7,287.6c-.1,0-.2,0-.2-.1a.192.192,0,0,1,.1-.3l2.5-1.4a.224.224,0,1,1,.2.4l-2.5,1.4Zm3.2-1.9c-.1,0-.2,0-.2-.1a.192.192,0,0,1,.1-.3l2.5-1.4a.224.224,0,0,1,.2.4l-2.5,1.4Z"/>
      <path id="Path_5010" data-name="Path 5010" class="cls-17" d="M423.5,288.8c-.1,0-.2,0-.2-.1a.192.192,0,0,1,.1-.3l1.3-.8a.224.224,0,1,1,.2.4l-1.3.8Z"/>
    </g>
    <g id="Group_4004" data-name="Group 4004">
      <path id="Path_5011" data-name="Path 5011" class="cls-17" d="M416.5,275.8c-.1,0-.2,0-.2-.1a.192.192,0,0,1,.1-.3l1.3-.8a.224.224,0,0,1,.2.4l-1.3.8Z"/>
      <path id="Path_5012" data-name="Path 5012" class="cls-17" d="M413.2,277.7c-.1,0-.2,0-.2-.1a.192.192,0,0,1,.1-.3l2.5-1.4a.224.224,0,1,1,.2.4l-2.5,1.4Z"/>
      <path id="Path_5013" data-name="Path 5013" class="cls-17" d="M406.6,281.5c-.1,0-.2,0-.2-.1a.192.192,0,0,1,.1-.3l2.5-1.4a.224.224,0,0,1,.2.4l-2.5,1.4Zm3.3-1.9c-.1,0-.2,0-.2-.1a.192.192,0,0,1,.1-.3l2.5-1.4a.224.224,0,0,1,.2.4l-2.5,1.4Z"/>
      <path id="Path_5014" data-name="Path 5014" class="cls-17" d="M404.5,282.7c-.1,0-.2,0-.2-.1a.192.192,0,0,1,.1-.3l1.3-.8a.224.224,0,0,1,.2.4l-1.3.8Z"/>
    </g>
    <g id="Group_4005" data-name="Group 4005">
      <path id="Path_5015" data-name="Path 5015" class="cls-17" d="M376.5,266.6c-.1,0-.2,0-.2-.1a.192.192,0,0,1,.1-.3l1.3-.8a.224.224,0,0,1,.2.4l-1.3.8C376.6,266.5,376.6,266.6,376.5,266.6Z"/>
      <path id="Path_5016" data-name="Path 5016" class="cls-17" d="M373.2,268.5c-.1,0-.2,0-.2-.1a.192.192,0,0,1,.1-.3l2.5-1.4a.224.224,0,0,1,.2.4l-2.5,1.4Z"/>
      <path id="Path_5017" data-name="Path 5017" class="cls-17" d="M366.6,272.3c-.1,0-.2,0-.2-.1a.192.192,0,0,1,.1-.3l2.5-1.4a.224.224,0,1,1,.2.4l-2.5,1.4Zm3.3-1.9c-.1,0-.2,0-.2-.1a.192.192,0,0,1,.1-.3l2.5-1.4a.224.224,0,0,1,.2.4l-2.5,1.4Z"/>
      <path id="Path_5018" data-name="Path 5018" class="cls-17" d="M364.5,273.5c-.1,0-.2,0-.2-.1a.192.192,0,0,1,.1-.3l1.3-.8a.224.224,0,0,1,.2.4l-1.3.8Z"/>
    </g>
    <g id="Group_4006" data-name="Group 4006">
      <path id="Path_5019" data-name="Path 5019" class="cls-17" d="M369.9,253.2c-.1,0-.2,0-.2-.1a.192.192,0,0,1,.1-.3l1.3-.8a.224.224,0,0,1,.2.4l-1.3.8Z"/>
      <path id="Path_5020" data-name="Path 5020" class="cls-17" d="M366.6,255.1c-.1,0-.2,0-.2-.1a.192.192,0,0,1,.1-.3l2.5-1.4a.224.224,0,0,1,.2.4l-2.5,1.4Z"/>
      <path id="Path_5021" data-name="Path 5021" class="cls-17" d="M360,258.9c-.1,0-.2,0-.2-.1a.192.192,0,0,1,.1-.3l2.5-1.4a.224.224,0,0,1,.2.4l-2.5,1.4Zm3.3-1.9c-.1,0-.2,0-.2-.1a.192.192,0,0,1,.1-.3l2.5-1.4a.224.224,0,0,1,.2.4l-2.5,1.4Z"/>
      <path id="Path_5022" data-name="Path 5022" class="cls-17" d="M357.8,260.1c-.1,0-.2,0-.2-.1a.192.192,0,0,1,.1-.3l1.3-.8a.224.224,0,0,1,.2.4l-1.3.8Z"/>
    </g>
    <g id="Group_4007" data-name="Group 4007">
      <path id="Path_5023" data-name="Path 5023" class="cls-17" d="M341.1,253.2c-.1,0-.2,0-.2-.1a.192.192,0,0,1,.1-.3l1.3-.8a.224.224,0,0,1,.2.4l-1.3.8Z"/>
      <path id="Path_5024" data-name="Path 5024" class="cls-17" d="M337.8,255.1c-.1,0-.2,0-.2-.1a.192.192,0,0,1,.1-.3l2.5-1.4a.224.224,0,0,1,.2.4l-2.5,1.4Z"/>
      <path id="Path_5025" data-name="Path 5025" class="cls-17" d="M331.2,258.9c-.1,0-.2,0-.2-.1a.192.192,0,0,1,.1-.3l2.5-1.4a.224.224,0,1,1,.2.4l-2.5,1.4Zm3.3-1.9c-.1,0-.2,0-.2-.1a.192.192,0,0,1,.1-.3l2.5-1.4a.224.224,0,0,1,.2.4l-2.5,1.4Z"/>
      <path id="Path_5026" data-name="Path 5026" class="cls-17" d="M329,260.1c-.1,0-.2,0-.2-.1a.192.192,0,0,1,.1-.3l1.3-.8a.224.224,0,0,1,.2.4l-1.3.8Z"/>
    </g>
    <g id="Group_4008" data-name="Group 4008">
      <path id="Path_5027" data-name="Path 5027" class="cls-17" d="M345.7,234.5c-.1,0-.2,0-.2-.1a.192.192,0,0,1,.1-.3l1.3-.8a.224.224,0,0,1,.2.4l-1.3.8Z"/>
      <path id="Path_5028" data-name="Path 5028" class="cls-17" d="M342.4,236.4c-.1,0-.2,0-.2-.1a.192.192,0,0,1,.1-.3l2.5-1.4a.224.224,0,0,1,.2.4l-2.5,1.4Z"/>
      <path id="Path_5029" data-name="Path 5029" class="cls-17" d="M335.8,240.2c-.1,0-.2,0-.2-.1a.192.192,0,0,1,.1-.3l2.5-1.4a.224.224,0,0,1,.2.4l-2.5,1.4Zm3.3-1.9c-.1,0-.2,0-.2-.1a.192.192,0,0,1,.1-.3l2.5-1.4a.224.224,0,0,1,.2.4l-2.5,1.4Z"/>
      <path id="Path_5030" data-name="Path 5030" class="cls-17" d="M333.6,241.4c-.1,0-.2,0-.2-.1a.192.192,0,0,1,.1-.3l1.3-.8a.224.224,0,0,1,.2.4l-1.3.8Z"/>
    </g>
    <g id="Group_4009" data-name="Group 4009">
      <path id="Path_5031" data-name="Path 5031" class="cls-17" d="M321.8,231.9c-.1,0-.2,0-.2-.1a.192.192,0,0,1,.1-.3l1.3-.8a.224.224,0,0,1,.2.4l-1.3.8Z"/>
      <path id="Path_5032" data-name="Path 5032" class="cls-17" d="M318.5,233.8c-.1,0-.2,0-.2-.1a.192.192,0,0,1,.1-.3l2.5-1.4a.224.224,0,0,1,.2.4l-2.5,1.4Z"/>
      <path id="Path_5033" data-name="Path 5033" class="cls-17" d="M311.9,237.7c-.1,0-.2,0-.2-.1a.192.192,0,0,1,.1-.3l2.5-1.4a.224.224,0,0,1,.2.4l-2.5,1.4C312,237.6,311.9,237.7,311.9,237.7Zm3.3-1.9c-.1,0-.2,0-.2-.1a.192.192,0,0,1,.1-.3l2.5-1.4a.224.224,0,0,1,.2.4l-2.5,1.4C315.3,235.7,315.2,235.8,315.2,235.8Z"/>
      <path id="Path_5034" data-name="Path 5034" class="cls-17" d="M309.8,238.9c-.1,0-.2,0-.2-.1a.192.192,0,0,1,.1-.3l1.3-.8a.224.224,0,0,1,.2.4l-1.3.8Z"/>
    </g>
    <g id="Group_4010" data-name="Group 4010">
      <path id="Path_5035" data-name="Path 5035" class="cls-17" d="M406.8,265.4c-.1,0-.2,0-.2-.1a.192.192,0,0,1,.1-.3l1.3-.8a.224.224,0,0,1,.2.4l-1.3.8Z"/>
      <path id="Path_5036" data-name="Path 5036" class="cls-17" d="M403.5,267.3c-.1,0-.2,0-.2-.1a.192.192,0,0,1,.1-.3l2.5-1.4a.224.224,0,0,1,.2.4l-2.5,1.4Z"/>
      <path id="Path_5037" data-name="Path 5037" class="cls-17" d="M396.9,271.1c-.1,0-.2,0-.2-.1a.192.192,0,0,1,.1-.3l2.5-1.4a.224.224,0,0,1,.2.4l-2.5,1.4Zm3.3-1.9c-.1,0-.2,0-.2-.1a.192.192,0,0,1,.1-.3l2.5-1.4a.224.224,0,1,1,.2.4l-2.5,1.4Z"/>
      <path id="Path_5038" data-name="Path 5038" class="cls-17" d="M394.8,272.3c-.1,0-.2,0-.2-.1a.192.192,0,0,1,.1-.3l1.3-.8a.224.224,0,0,1,.2.4l-1.3.8Z"/>
    </g>
    <g id="Group_4011" data-name="Group 4011">
      <path id="Path_5039" data-name="Path 5039" class="cls-17" d="M421.7,274.6c-.1,0-.2,0-.2-.1a.192.192,0,0,1,.1-.3l1.3-.8a.224.224,0,0,1,.2.4l-1.3.8Z"/>
      <path id="Path_5040" data-name="Path 5040" class="cls-17" d="M418.4,276.5c-.1,0-.2,0-.2-.1a.192.192,0,0,1,.1-.3l2.5-1.4a.224.224,0,0,1,.2.4l-2.5,1.4Z"/>
      <path id="Path_5041" data-name="Path 5041" class="cls-17" d="M385.5,295.6c-.1,0-.2,0-.2-.1a.192.192,0,0,1,.1-.3l2.5-1.4a.224.224,0,1,1,.2.4l-2.5,1.4C385.6,295.5,385.6,295.6,385.5,295.6Zm3.3-1.9c-.1,0-.2,0-.2-.1a.192.192,0,0,1,.1-.3l2.5-1.4a.224.224,0,0,1,.2.4l-2.5,1.4C388.9,293.6,388.8,293.7,388.8,293.7Zm3.3-1.9c-.1,0-.2,0-.2-.1a.192.192,0,0,1,.1-.3l2.5-1.4a.224.224,0,1,1,.2.4l-2.5,1.4C392.2,291.7,392.1,291.8,392.1,291.8Zm3.3-1.9c-.1,0-.2,0-.2-.1a.192.192,0,0,1,.1-.3l2.5-1.4a.224.224,0,0,1,.2.4l-2.5,1.4C395.5,289.8,395.4,289.9,395.4,289.9Zm3.3-1.9c-.1,0-.2,0-.2-.1a.192.192,0,0,1,.1-.3l2.5-1.4a.224.224,0,0,1,.2.4l-2.5,1.4C398.8,287.9,398.7,288,398.7,288Zm3.3-1.9c-.1,0-.2,0-.2-.1a.192.192,0,0,1,.1-.3l2.5-1.4a.224.224,0,1,1,.2.4l-2.5,1.4C402.1,286,402,286.1,402,286.1Zm3.3-1.9c-.1,0-.2,0-.2-.1a.192.192,0,0,1,.1-.3l2.5-1.4a.224.224,0,0,1,.2.4l-2.5,1.4C405.4,284.1,405.3,284.2,405.3,284.2Zm3.3-2c-.1,0-.2,0-.2-.1a.192.192,0,0,1,.1-.3l2.5-1.4a.224.224,0,0,1,.2.4l-2.5,1.4Zm3.2-1.9c-.1,0-.2,0-.2-.1a.192.192,0,0,1,.1-.3l2.5-1.4a.224.224,0,0,1,.2.4l-2.5,1.4Zm3.3-1.9c-.1,0-.2,0-.2-.1a.192.192,0,0,1,.1-.3l2.5-1.4a.224.224,0,1,1,.2.4l-2.5,1.4Z"/>
      <path id="Path_5042" data-name="Path 5042" class="cls-17" d="M383.4,296.8c-.1,0-.2,0-.2-.1a.192.192,0,0,1,.1-.3l1.3-.8a.224.224,0,1,1,.2.4l-1.3.8Z"/>
    </g>
    <g id="Group_4012" data-name="Group 4012">
      <path id="Path_5043" data-name="Path 5043" class="cls-17" d="M408.2,266.5c-.1,0-.2,0-.2-.1a.192.192,0,0,1,.1-.3l1.3-.8a.224.224,0,1,1,.2.4l-1.3.8Z"/>
      <path id="Path_5044" data-name="Path 5044" class="cls-17" d="M404.9,268.4c-.1,0-.2,0-.2-.1a.192.192,0,0,1,.1-.3l2.5-1.4a.224.224,0,0,1,.2.4l-2.5,1.4Z"/>
      <path id="Path_5045" data-name="Path 5045" class="cls-17" d="M372,287.5c-.1,0-.2,0-.2-.1a.192.192,0,0,1,.1-.3l2.5-1.4a.224.224,0,0,1,.2.4l-2.5,1.4C372.1,287.4,372.1,287.5,372,287.5Zm3.3-1.9c-.1,0-.2,0-.2-.1a.192.192,0,0,1,.1-.3l2.5-1.4a.224.224,0,0,1,.2.4l-2.5,1.4C375.4,285.5,375.3,285.6,375.3,285.6Zm3.3-1.9c-.1,0-.2,0-.2-.1a.192.192,0,0,1,.1-.3l2.5-1.4a.224.224,0,1,1,.2.4l-2.5,1.4C378.7,283.6,378.6,283.7,378.6,283.7Zm3.3-1.9c-.1,0-.2,0-.2-.1a.192.192,0,0,1,.1-.3l2.5-1.4a.224.224,0,0,1,.2.4l-2.5,1.4C382,281.7,381.9,281.8,381.9,281.8Zm3.3-1.9c-.1,0-.2,0-.2-.1a.192.192,0,0,1,.1-.3l2.5-1.4a.224.224,0,0,1,.2.4l-2.5,1.4C385.3,279.8,385.2,279.9,385.2,279.9Zm3.3-2c-.1,0-.2,0-.2-.1a.192.192,0,0,1,.1-.3l2.5-1.4a.224.224,0,0,1,.2.4l-2.5,1.4Zm3.3-1.9c-.1,0-.2,0-.2-.1a.192.192,0,0,1,.1-.3l2.5-1.4a.224.224,0,0,1,.2.4l-2.5,1.4Zm3.3-1.9c-.1,0-.2,0-.2-.1a.192.192,0,0,1,.1-.3l2.5-1.4a.224.224,0,1,1,.2.4l-2.5,1.4Zm3.2-1.9c-.1,0-.2,0-.2-.1a.192.192,0,0,1,.1-.3l2.5-1.4a.224.224,0,0,1,.2.4l-2.5,1.4Zm3.3-1.9c-.1,0-.2,0-.2-.1a.192.192,0,0,1,.1-.3l2.5-1.4a.224.224,0,1,1,.2.4l-2.5,1.4Z"/>
      <path id="Path_5046" data-name="Path 5046" class="cls-17" d="M369.9,288.7c-.1,0-.2,0-.2-.1a.192.192,0,0,1,.1-.3l1.3-.8a.224.224,0,1,1,.2.4l-1.3.8Z"/>
    </g>
    <g id="Group_4013" data-name="Group 4013">
      <path id="Path_5047" data-name="Path 5047" class="cls-17" d="M393.9,258.4c-.1,0-.2,0-.2-.1a.192.192,0,0,1,.1-.3l1.3-.8a.224.224,0,0,1,.2.4l-1.3.8Z"/>
      <path id="Path_5048" data-name="Path 5048" class="cls-17" d="M390.6,260.3c-.1,0-.2,0-.2-.1a.192.192,0,0,1,.1-.3l2.5-1.4a.224.224,0,1,1,.2.4l-2.5,1.4Z"/>
      <path id="Path_5049" data-name="Path 5049" class="cls-17" d="M357.7,279.4c-.1,0-.2,0-.2-.1a.192.192,0,0,1,.1-.3l2.5-1.4a.224.224,0,0,1,.2.4l-2.5,1.4C357.8,279.3,357.7,279.4,357.7,279.4Zm3.3-1.9c-.1,0-.2,0-.2-.1a.192.192,0,0,1,.1-.3l2.5-1.4a.224.224,0,0,1,.2.4l-2.5,1.4C361.1,277.4,361,277.5,361,277.5Zm3.3-1.9c-.1,0-.2,0-.2-.1a.192.192,0,0,1,.1-.3l2.5-1.4a.224.224,0,0,1,.2.4l-2.5,1.4C364.4,275.5,364.3,275.6,364.3,275.6Zm3.3-1.9c-.1,0-.2,0-.2-.1a.192.192,0,0,1,.1-.3l2.5-1.4a.224.224,0,0,1,.2.4l-2.5,1.4C367.7,273.6,367.6,273.7,367.6,273.7Zm3.3-2c-.1,0-.2,0-.2-.1a.192.192,0,0,1,.1-.3l2.5-1.4a.224.224,0,1,1,.2.4l-2.5,1.4Zm3.3-1.9c-.1,0-.2,0-.2-.1a.192.192,0,0,1,.1-.3l2.5-1.4a.224.224,0,1,1,.2.4l-2.5,1.4Zm3.2-1.9c-.1,0-.2,0-.2-.1a.192.192,0,0,1,.1-.3l2.5-1.4a.224.224,0,0,1,.2.4l-2.5,1.4Zm3.3-1.9c-.1,0-.2,0-.2-.1a.192.192,0,0,1,.1-.3l2.5-1.4a.224.224,0,0,1,.2.4l-2.5,1.4Zm3.3-1.9c-.1,0-.2,0-.2-.1a.192.192,0,0,1,.1-.3l2.5-1.4a.224.224,0,1,1,.2.4l-2.5,1.4Zm3.3-1.9c-.1,0-.2,0-.2-.1a.192.192,0,0,1,.1-.3l2.5-1.4a.224.224,0,0,1,.2.4l-2.5,1.4Z"/>
      <path id="Path_5050" data-name="Path 5050" class="cls-17" d="M355.6,280.6c-.1,0-.2,0-.2-.1a.192.192,0,0,1,.1-.3l1.3-.8a.224.224,0,0,1,.2.4l-1.3.8Z"/>
    </g>
    <g id="Group_4014" data-name="Group 4014">
      <path id="Path_5051" data-name="Path 5051" class="cls-17" d="M379.5,250.3c-.1,0-.2,0-.2-.1a.192.192,0,0,1,.1-.3l1.3-.8a.224.224,0,0,1,.2.4l-1.3.8Z"/>
      <path id="Path_5052" data-name="Path 5052" class="cls-17" d="M376.2,252.2c-.1,0-.2,0-.2-.1a.192.192,0,0,1,.1-.3l2.5-1.4a.224.224,0,0,1,.2.4l-2.5,1.4Z"/>
      <path id="Path_5053" data-name="Path 5053" class="cls-17" d="M343.3,271.3c-.1,0-.2,0-.2-.1a.192.192,0,0,1,.1-.3l2.5-1.4a.224.224,0,0,1,.2.4l-2.5,1.4C343.3,271.2,343.3,271.3,343.3,271.3Zm3.2-2c-.1,0-.2,0-.2-.1a.192.192,0,0,1,.1-.3l2.5-1.4a.224.224,0,0,1,.2.4l-2.5,1.4Zm3.3-1.9c-.1,0-.2,0-.2-.1a.192.192,0,0,1,.1-.3l2.5-1.4a.224.224,0,0,1,.2.4l-2.5,1.4Zm3.3-1.9c-.1,0-.2,0-.2-.1a.192.192,0,0,1,.1-.3l2.5-1.4a.224.224,0,0,1,.2.4l-2.5,1.4Zm3.3-1.9c-.1,0-.2,0-.2-.1a.192.192,0,0,1,.1-.3l2.5-1.4a.224.224,0,1,1,.2.4l-2.5,1.4Zm3.3-1.9c-.1,0-.2,0-.2-.1a.192.192,0,0,1,.1-.3l2.5-1.4a.224.224,0,1,1,.2.4l-2.5,1.4Zm3.3-1.9c-.1,0-.2,0-.2-.1a.192.192,0,0,1,.1-.3l2.5-1.4a.224.224,0,0,1,.2.4l-2.5,1.4Zm3.3-1.9c-.1,0-.2,0-.2-.1a.192.192,0,0,1,.1-.3l2.5-1.4a.224.224,0,1,1,.2.4l-2.5,1.4Zm3.3-1.9c-.1,0-.2,0-.2-.1a.192.192,0,0,1,.1-.3l2.5-1.4a.224.224,0,0,1,.2.4l-2.5,1.4Zm3.3-1.9c-.1,0-.2,0-.2-.1a.192.192,0,0,1,.1-.3l2.5-1.4a.224.224,0,0,1,.2.4l-2.5,1.4Z"/>
      <path id="Path_5054" data-name="Path 5054" class="cls-17" d="M341.1,272.5c-.1,0-.2,0-.2-.1a.192.192,0,0,1,.1-.3l1.3-.8a.224.224,0,1,1,.2.4l-1.3.8Z"/>
    </g>
    <g id="Group_4015" data-name="Group 4015">
      <path id="Path_5055" data-name="Path 5055" class="cls-17" d="M365.6,242.2c-.1,0-.2,0-.2-.1a.192.192,0,0,1,.1-.3l1.3-.8a.224.224,0,0,1,.2.4l-1.3.8Z"/>
      <path id="Path_5056" data-name="Path 5056" class="cls-17" d="M362.3,244.1c-.1,0-.2,0-.2-.1a.192.192,0,0,1,.1-.3l2.5-1.4a.224.224,0,0,1,.2.4l-2.5,1.4Z"/>
      <path id="Path_5057" data-name="Path 5057" class="cls-17" d="M329.3,263.1c-.1,0-.2,0-.2-.1a.192.192,0,0,1,.1-.3l2.5-1.4a.224.224,0,0,1,.2.4l-2.5,1.4Zm3.3-1.9c-.1,0-.2,0-.2-.1a.192.192,0,0,1,.1-.3l2.5-1.4a.224.224,0,0,1,.2.4l-2.5,1.4Zm3.3-1.9c-.1,0-.2,0-.2-.1a.192.192,0,0,1,.1-.3l2.5-1.4a.224.224,0,1,1,.2.4l-2.5,1.4Zm3.3-1.9c-.1,0-.2,0-.2-.1a.192.192,0,0,1,.1-.3l2.5-1.4a.224.224,0,0,1,.2.4l-2.5,1.4Zm3.3-1.9c-.1,0-.2,0-.2-.1a.192.192,0,0,1,.1-.3l2.5-1.4a.224.224,0,0,1,.2.4l-2.5,1.4Zm3.3-1.9c-.1,0-.2,0-.2-.1a.192.192,0,0,1,.1-.3l2.5-1.4a.224.224,0,0,1,.2.4l-2.5,1.4Zm3.3-1.9c-.1,0-.2,0-.2-.1a.192.192,0,0,1,.1-.3l2.5-1.4a.224.224,0,0,1,.2.4l-2.5,1.4Zm3.3-1.9c-.1,0-.2,0-.2-.1a.192.192,0,0,1,.1-.3l2.5-1.4a.224.224,0,0,1,.2.4l-2.5,1.4Zm3.3-1.9c-.1,0-.2,0-.2-.1a.192.192,0,0,1,.1-.3l2.5-1.4a.224.224,0,0,1,.2.4l-2.5,1.4ZM359,246c-.1,0-.2,0-.2-.1a.192.192,0,0,1,.1-.3l2.5-1.4a.224.224,0,0,1,.2.4l-2.5,1.4Z"/>
      <path id="Path_5058" data-name="Path 5058" class="cls-17" d="M327.2,264.4c-.1,0-.2,0-.2-.1a.192.192,0,0,1,.1-.3l1.3-.8a.224.224,0,0,1,.2.4l-1.3.8Z"/>
    </g>
    <g id="Group_4016" data-name="Group 4016">
      <path id="Path_5059" data-name="Path 5059" class="cls-17" d="M351.7,234.1c-.1,0-.2,0-.2-.1a.192.192,0,0,1,.1-.3l1.3-.8a.224.224,0,0,1,.2.4l-1.3.8Z"/>
      <path id="Path_5060" data-name="Path 5060" class="cls-17" d="M348.4,236c-.1,0-.2,0-.2-.1a.192.192,0,0,1,.1-.3l2.5-1.4a.224.224,0,0,1,.2.4l-2.5,1.4Z"/>
      <path id="Path_5061" data-name="Path 5061" class="cls-17" d="M315.4,255c-.1,0-.2,0-.2-.1a.192.192,0,0,1,.1-.3l2.5-1.4a.224.224,0,0,1,.2.4l-2.5,1.4Zm3.3-1.9c-.1,0-.2,0-.2-.1a.192.192,0,0,1,.1-.3l2.5-1.4a.224.224,0,0,1,.2.4l-2.5,1.4Zm3.3-1.9c-.1,0-.2,0-.2-.1a.192.192,0,0,1,.1-.3l2.5-1.4a.224.224,0,0,1,.2.4l-2.5,1.4Zm3.3-1.9c-.1,0-.2,0-.2-.1a.192.192,0,0,1,.1-.3l2.5-1.4a.224.224,0,0,1,.2.4l-2.5,1.4Zm3.3-1.9c-.1,0-.2,0-.2-.1a.192.192,0,0,1,.1-.3l2.5-1.4a.224.224,0,0,1,.2.4l-2.5,1.4Zm3.3-1.9c-.1,0-.2,0-.2-.1a.192.192,0,0,1,.1-.3l2.5-1.4a.224.224,0,0,1,.2.4l-2.5,1.4Zm3.3-1.9c-.1,0-.2,0-.2-.1a.192.192,0,0,1,.1-.3l2.5-1.4a.224.224,0,0,1,.2.4l-2.5,1.4Zm3.3-1.9c-.1,0-.2,0-.2-.1a.192.192,0,0,1,.1-.3l2.5-1.4a.224.224,0,0,1,.2.4l-2.5,1.4Zm3.3-1.9c-.1,0-.2,0-.2-.1a.192.192,0,0,1,.1-.3l2.5-1.4a.224.224,0,0,1,.2.4l-2.5,1.4Zm3.3-1.9c-.1,0-.2,0-.2-.1a.192.192,0,0,1,.1-.3l2.5-1.4a.224.224,0,0,1,.2.4l-2.5,1.4Z"/>
      <path id="Path_5062" data-name="Path 5062" class="cls-17" d="M313.3,256.3c-.1,0-.2,0-.2-.1a.192.192,0,0,1,.1-.3l1.3-.8a.224.224,0,0,1,.2.4l-1.3.8Z"/>
    </g>
    <g id="Group_4017" data-name="Group 4017">
      <path id="Path_5063" data-name="Path 5063" class="cls-17" d="M337.6,225.7c-.1,0-.2,0-.2-.1a.192.192,0,0,1,.1-.3l1.3-.8a.224.224,0,0,1,.2.4l-1.3.8Z"/>
      <path id="Path_5064" data-name="Path 5064" class="cls-17" d="M334.3,227.6c-.1,0-.2,0-.2-.1a.192.192,0,0,1,.1-.3l2.5-1.4a.224.224,0,0,1,.2.4l-2.5,1.4Z"/>
      <path id="Path_5065" data-name="Path 5065" class="cls-17" d="M301.3,246.6c-.1,0-.2,0-.2-.1a.192.192,0,0,1,.1-.3l2.5-1.4a.224.224,0,0,1,.2.4l-2.5,1.4Zm3.3-1.9c-.1,0-.2,0-.2-.1a.192.192,0,0,1,.1-.3l2.5-1.4a.224.224,0,0,1,.2.4l-2.5,1.4Zm3.3-1.9c-.1,0-.2,0-.2-.1a.192.192,0,0,1,.1-.3l2.5-1.4a.224.224,0,0,1,.2.4l-2.5,1.4Zm3.3-1.9c-.1,0-.2,0-.2-.1a.192.192,0,0,1,.1-.3l2.5-1.4a.224.224,0,0,1,.2.4l-2.5,1.4Zm3.3-1.9c-.1,0-.2,0-.2-.1a.192.192,0,0,1,.1-.3l2.5-1.4a.224.224,0,0,1,.2.4l-2.5,1.4Zm3.3-1.9c-.1,0-.2,0-.2-.1a.192.192,0,0,1,.1-.3l2.5-1.4a.224.224,0,0,1,.2.4l-2.5,1.4Zm3.3-1.9c-.1,0-.2,0-.2-.1a.192.192,0,0,1,.1-.3l2.5-1.4a.224.224,0,0,1,.2.4l-2.5,1.4Zm3.3-1.9c-.1,0-.2,0-.2-.1a.192.192,0,0,1,.1-.3l2.5-1.4a.224.224,0,0,1,.2.4l-2.5,1.4Zm3.3-1.9c-.1,0-.2,0-.2-.1a.192.192,0,0,1,.1-.3l2.5-1.4a.224.224,0,0,1,.2.4l-2.5,1.4Zm3.3-1.9c-.1,0-.2,0-.2-.1a.192.192,0,0,1,.1-.3l2.5-1.4a.224.224,0,0,1,.2.4l-2.5,1.4Z"/>
      <path id="Path_5066" data-name="Path 5066" class="cls-17" d="M299.2,247.9c-.1,0-.2,0-.2-.1a.192.192,0,0,1,.1-.3l1.3-.8a.224.224,0,0,1,.2.4l-1.3.8Z"/>
    </g>
    <g id="Group_4018" data-name="Group 4018">
      <path id="Path_5067" data-name="Path 5067" class="cls-17" d="M323.4,217.2c-.1,0-.2,0-.2-.1a.192.192,0,0,1,.1-.3l1.3-.8a.224.224,0,0,1,.2.4l-1.3.8Z"/>
      <path id="Path_5068" data-name="Path 5068" class="cls-17" d="M320.1,219.1c-.1,0-.2,0-.2-.1a.192.192,0,0,1,.1-.3l2.5-1.4a.224.224,0,0,1,.2.4l-2.5,1.4Z"/>
      <path id="Path_5069" data-name="Path 5069" class="cls-17" d="M287.2,238.1c-.1,0-.2,0-.2-.1a.192.192,0,0,1,.1-.3l2.5-1.4a.224.224,0,0,1,.2.4l-2.5,1.4Zm3.3-1.9c-.1,0-.2,0-.2-.1a.192.192,0,0,1,.1-.3l2.5-1.4a.224.224,0,0,1,.2.4l-2.5,1.4Zm3.3-1.9c-.1,0-.2,0-.2-.1a.192.192,0,0,1,.1-.3l2.5-1.4a.224.224,0,0,1,.2.4l-2.5,1.4Zm3.3-1.9c-.1,0-.2,0-.2-.1a.192.192,0,0,1,.1-.3l2.5-1.4a.224.224,0,0,1,.2.4l-2.5,1.4Zm3.2-1.9c-.1,0-.2,0-.2-.1a.192.192,0,0,1,.1-.3l2.5-1.4a.224.224,0,0,1,.2.4l-2.5,1.4Zm3.3-1.9c-.1,0-.2,0-.2-.1a.192.192,0,0,1,.1-.3l2.5-1.4a.224.224,0,0,1,.2.4l-2.5,1.4Zm3.3-1.9c-.1,0-.2,0-.2-.1a.192.192,0,0,1,.1-.3l2.5-1.4a.224.224,0,0,1,.2.4l-2.5,1.4Zm3.3-1.9c-.1,0-.2,0-.2-.1a.192.192,0,0,1,.1-.3l2.5-1.4a.224.224,0,0,1,.2.4l-2.5,1.4Zm3.3-1.9c-.1,0-.2,0-.2-.1a.192.192,0,0,1,.1-.3l2.5-1.4a.224.224,0,0,1,.2.4l-2.5,1.4Zm3.3-1.9c-.1,0-.2,0-.2-.1a.192.192,0,0,1,.1-.3l2.5-1.4a.224.224,0,0,1,.2.4l-2.5,1.4Z"/>
      <path id="Path_5070" data-name="Path 5070" class="cls-17" d="M285.1,239.3c-.1,0-.2,0-.2-.1a.192.192,0,0,1,.1-.3l1.3-.8a.224.224,0,0,1,.2.4l-1.3.8Z"/>
    </g>
    <g id="Group_4019" data-name="Group 4019">
      <path id="Path_5071" data-name="Path 5071" class="cls-17" d="M309.2,209.4c-.1,0-.2,0-.2-.1a.192.192,0,0,1,.1-.3l1.3-.8a.224.224,0,0,1,.2.4l-1.3.8Z"/>
      <path id="Path_5072" data-name="Path 5072" class="cls-17" d="M305.9,211.3c-.1,0-.2,0-.2-.1a.192.192,0,0,1,.1-.3l2.5-1.4a.224.224,0,0,1,.2.4l-2.5,1.4Z"/>
      <path id="Path_5073" data-name="Path 5073" class="cls-17" d="M273,230.4c-.1,0-.2,0-.2-.1a.192.192,0,0,1,.1-.3l2.5-1.4a.224.224,0,0,1,.2.4l-2.5,1.4C273.1,230.3,273,230.4,273,230.4Zm3.3-1.9c-.1,0-.2,0-.2-.1a.192.192,0,0,1,.1-.3l2.5-1.4a.224.224,0,0,1,.2.4l-2.5,1.4C276.4,228.4,276.3,228.5,276.3,228.5Zm3.3-1.9c-.1,0-.2,0-.2-.1a.192.192,0,0,1,.1-.3l2.5-1.4a.224.224,0,0,1,.2.4l-2.5,1.4C279.7,226.5,279.6,226.6,279.6,226.6Zm3.3-1.9c-.1,0-.2,0-.2-.1a.192.192,0,0,1,.1-.3l2.5-1.4a.224.224,0,0,1,.2.4l-2.5,1.4C283,224.6,282.9,224.7,282.9,224.7Zm3.3-1.9c-.1,0-.2,0-.2-.1a.192.192,0,0,1,.1-.3l2.5-1.4a.224.224,0,0,1,.2.4l-2.5,1.4C286.3,222.7,286.2,222.8,286.2,222.8Zm3.3-2c-.1,0-.2,0-.2-.1a.192.192,0,0,1,.1-.3l2.5-1.4a.224.224,0,0,1,.2.4l-2.5,1.4Zm3.3-1.9c-.1,0-.2,0-.2-.1a.192.192,0,0,1,.1-.3l2.5-1.4a.224.224,0,0,1,.2.4l-2.5,1.4ZM296,217c-.1,0-.2,0-.2-.1a.192.192,0,0,1,.1-.3l2.5-1.4a.224.224,0,0,1,.2.4l-2.5,1.4Zm3.3-1.9c-.1,0-.2,0-.2-.1a.192.192,0,0,1,.1-.3l2.5-1.4a.224.224,0,0,1,.2.4l-2.5,1.4Zm3.3-1.9c-.1,0-.2,0-.2-.1a.192.192,0,0,1,.1-.3l2.5-1.4a.224.224,0,0,1,.2.4l-2.5,1.4Z"/>
      <path id="Path_5074" data-name="Path 5074" class="cls-17" d="M270.9,231.6c-.1,0-.2,0-.2-.1a.192.192,0,0,1,.1-.3l1.3-.8a.224.224,0,0,1,.2.4l-1.3.8Z"/>
    </g>
    <g id="Group_4020" data-name="Group 4020">
      <path id="Path_5075" data-name="Path 5075" class="cls-17" d="M295,201.7c-.1,0-.2,0-.2-.1a.192.192,0,0,1,.1-.3l1.3-.8a.224.224,0,0,1,.2.4l-1.3.8Z"/>
      <path id="Path_5076" data-name="Path 5076" class="cls-17" d="M291.8,203.6c-.1,0-.2,0-.2-.1a.192.192,0,0,1,.1-.3l2.5-1.4a.224.224,0,0,1,.2.4l-2.5,1.4Z"/>
      <path id="Path_5077" data-name="Path 5077" class="cls-17" d="M258.8,222.6c-.1,0-.2,0-.2-.1a.192.192,0,0,1,.1-.3l2.5-1.4a.224.224,0,0,1,.2.4l-2.5,1.4Zm3.3-1.9c-.1,0-.2,0-.2-.1a.192.192,0,0,1,.1-.3l2.5-1.4a.224.224,0,0,1,.2.4l-2.5,1.4Zm3.3-1.9c-.1,0-.2,0-.2-.1a.192.192,0,0,1,.1-.3l2.5-1.4a.224.224,0,0,1,.2.4l-2.5,1.4Zm3.3-1.9c-.1,0-.2,0-.2-.1a.192.192,0,0,1,.1-.3l2.5-1.4a.224.224,0,0,1,.2.4l-2.5,1.4ZM272,215c-.1,0-.2,0-.2-.1a.192.192,0,0,1,.1-.3l2.5-1.4a.224.224,0,0,1,.2.4l-2.5,1.4Zm3.3-1.9c-.1,0-.2,0-.2-.1a.192.192,0,0,1,.1-.3l2.5-1.4a.224.224,0,0,1,.2.4l-2.5,1.4Zm3.3-1.9c-.1,0-.2,0-.2-.1a.192.192,0,0,1,.1-.3l2.5-1.4a.224.224,0,0,1,.2.4l-2.5,1.4Zm3.3-1.9c-.1,0-.2,0-.2-.1a.192.192,0,0,1,.1-.3l2.5-1.4a.224.224,0,0,1,.2.4l-2.5,1.4Zm3.3-1.9c-.1,0-.2,0-.2-.1a.192.192,0,0,1,.1-.3l2.5-1.4a.224.224,0,0,1,.2.4l-2.5,1.4Zm3.3-1.9c-.1,0-.2,0-.2-.1a.192.192,0,0,1,.1-.3l2.5-1.4a.224.224,0,0,1,.2.4l-2.5,1.4Z"/>
      <path id="Path_5078" data-name="Path 5078" class="cls-17" d="M256.7,223.8c-.1,0-.2,0-.2-.1a.192.192,0,0,1,.1-.3l1.3-.8a.224.224,0,0,1,.2.4l-1.3.8Z"/>
    </g>
    <g id="Group_4021" data-name="Group 4021">
      <path id="Path_5079" data-name="Path 5079" class="cls-17" d="M281,193.2c-.1,0-.2,0-.2-.1a.192.192,0,0,1,.1-.3l1.3-.8a.224.224,0,0,1,.2.4l-1.3.8C281.1,193.1,281,193.2,281,193.2Z"/>
      <path id="Path_5080" data-name="Path 5080" class="cls-17" d="M277.7,195.1c-.1,0-.2,0-.2-.1a.192.192,0,0,1,.1-.3l2.5-1.4a.224.224,0,0,1,.2.4l-2.5,1.4C277.8,195,277.7,195.1,277.7,195.1Z"/>
      <path id="Path_5081" data-name="Path 5081" class="cls-17" d="M244.8,214.1c-.1,0-.2,0-.2-.1a.192.192,0,0,1,.1-.3l2.5-1.4a.224.224,0,0,1,.2.4l-2.5,1.4Zm3.3-1.9c-.1,0-.2,0-.2-.1a.192.192,0,0,1,.1-.3l2.5-1.4a.224.224,0,0,1,.2.4l-2.5,1.4Zm3.2-1.9c-.1,0-.2,0-.2-.1a.192.192,0,0,1,.1-.3l2.5-1.4a.224.224,0,0,1,.2.4l-2.5,1.4Zm3.3-1.9c-.1,0-.2,0-.2-.1a.192.192,0,0,1,.1-.3l2.5-1.4a.224.224,0,0,1,.2.4l-2.5,1.4Zm3.3-1.9c-.1,0-.2,0-.2-.1a.192.192,0,0,1,.1-.3l2.5-1.4a.224.224,0,0,1,.2.4l-2.5,1.4Zm3.3-1.9c-.1,0-.2,0-.2-.1a.192.192,0,0,1,.1-.3l2.5-1.4a.224.224,0,0,1,.2.4l-2.5,1.4C261.3,204.5,261.3,204.6,261.2,204.6Zm3.3-1.9c-.1,0-.2,0-.2-.1a.192.192,0,0,1,.1-.3l2.5-1.4a.224.224,0,0,1,.2.4l-2.5,1.4C264.6,202.6,264.6,202.7,264.5,202.7Zm3.3-1.9c-.1,0-.2,0-.2-.1a.192.192,0,0,1,.1-.3l2.5-1.4a.224.224,0,0,1,.2.4l-2.5,1.4C267.9,200.7,267.9,200.8,267.8,200.8Zm3.3-1.9c-.1,0-.2,0-.2-.1a.192.192,0,0,1,.1-.3l2.5-1.4a.224.224,0,0,1,.2.4l-2.5,1.4C271.2,198.8,271.1,198.9,271.1,198.9Zm3.3-1.9c-.1,0-.2,0-.2-.1a.192.192,0,0,1,.1-.3l2.5-1.4a.224.224,0,0,1,.2.4l-2.5,1.4C274.5,196.9,274.4,197,274.4,197Z"/>
      <path id="Path_5082" data-name="Path 5082" class="cls-17" d="M242.6,215.3c-.1,0-.2,0-.2-.1a.192.192,0,0,1,.1-.3l1.3-.8a.224.224,0,0,1,.2.4l-1.3.8Z"/>
    </g>
    <g id="Group_4022" data-name="Group 4022">
      <path id="Path_5083" data-name="Path 5083" class="cls-17" d="M266.8,184.6c-.1,0-.2,0-.2-.1a.192.192,0,0,1,.1-.3l1.3-.8a.224.224,0,0,1,.2.4l-1.3.8Z"/>
      <path id="Path_5084" data-name="Path 5084" class="cls-17" d="M263.5,186.5c-.1,0-.2,0-.2-.1a.192.192,0,0,1,.1-.3l2.5-1.4a.224.224,0,0,1,.2.4l-2.5,1.4Z"/>
      <path id="Path_5085" data-name="Path 5085" class="cls-17" d="M230.6,205.5c-.1,0-.2,0-.2-.1a.192.192,0,0,1,.1-.3l2.5-1.4a.224.224,0,1,1,.2.4l-2.5,1.4Zm3.3-1.9c-.1,0-.2,0-.2-.1a.192.192,0,0,1,.1-.3l2.5-1.4a.224.224,0,0,1,.2.4l-2.5,1.4Zm3.3-1.9c-.1,0-.2,0-.2-.1a.192.192,0,0,1,.1-.3l2.5-1.4a.224.224,0,0,1,.2.4l-2.5,1.4Zm3.3-1.9c-.1,0-.2,0-.2-.1a.192.192,0,0,1,.1-.3l2.5-1.4a.224.224,0,0,1,.2.4l-2.5,1.4Zm3.3-1.9c-.1,0-.2,0-.2-.1a.192.192,0,0,1,.1-.3l2.5-1.4a.224.224,0,0,1,.2.4l-2.5,1.4Zm3.3-1.9c-.1,0-.2,0-.2-.1a.192.192,0,0,1,.1-.3l2.5-1.4a.224.224,0,1,1,.2.4l-2.5,1.4Zm3.3-1.9c-.1,0-.2,0-.2-.1a.192.192,0,0,1,.1-.3l2.5-1.4a.224.224,0,0,1,.2.4l-2.5,1.4Zm3.2-1.9c-.1,0-.2,0-.2-.1a.192.192,0,0,1,.1-.3l2.5-1.4a.224.224,0,0,1,.2.4l-2.5,1.4Zm3.3-1.9c-.1,0-.2,0-.2-.1a.192.192,0,0,1,.1-.3l2.5-1.4a.224.224,0,0,1,.2.4l-2.5,1.4Zm3.3-1.9c-.1,0-.2,0-.2-.1a.192.192,0,0,1,.1-.3l2.5-1.4a.224.224,0,0,1,.2.4l-2.5,1.4Z"/>
      <path id="Path_5086" data-name="Path 5086" class="cls-17" d="M228.5,206.7c-.1,0-.2,0-.2-.1a.192.192,0,0,1,.1-.3l1.3-.8a.224.224,0,0,1,.2.4l-1.3.8Z"/>
    </g>
    <g id="Group_4023" data-name="Group 4023">
      <path id="Path_5087" data-name="Path 5087" class="cls-17" d="M252.5,176.7c-.1,0-.2,0-.2-.1a.192.192,0,0,1,.1-.3l1.3-.8a.224.224,0,0,1,.2.4l-1.3.8Z"/>
      <path id="Path_5088" data-name="Path 5088" class="cls-17" d="M249.4,178.5c-.1,0-.2,0-.2-.1a.192.192,0,0,1,.1-.3l2.3-1.3a.224.224,0,1,1,.2.4l-2.3,1.3Z"/>
      <path id="Path_5089" data-name="Path 5089" class="cls-17" d="M230.7,189.3c-.1,0-.2,0-.2-.1a.192.192,0,0,1,.1-.3l2.3-1.3a.224.224,0,0,1,.2.4l-2.3,1.3Zm3.2-1.8c-.1,0-.2,0-.2-.1a.192.192,0,0,1,.1-.3l2.3-1.3a.224.224,0,1,1,.2.4l-2.3,1.3Zm3.1-1.8c-.1,0-.2,0-.2-.1a.192.192,0,0,1,.1-.3l2.3-1.3a.224.224,0,1,1,.2.4l-2.3,1.3Zm3.1-1.8c-.1,0-.2,0-.2-.1a.192.192,0,0,1,.1-.3l2.3-1.3a.224.224,0,0,1,.2.4l-2.3,1.3Zm3.1-1.8c-.1,0-.2,0-.2-.1a.192.192,0,0,1,.1-.3l2.3-1.3a.224.224,0,0,1,.2.4l-2.3,1.3Zm3.1-1.8c-.1,0-.2,0-.2-.1a.192.192,0,0,1,.1-.3l2.3-1.3a.224.224,0,1,1,.2.4l-2.3,1.3Z"/>
      <path id="Path_5090" data-name="Path 5090" class="cls-17" d="M228.7,190.5c-.1,0-.2,0-.2-.1a.192.192,0,0,1,.1-.3l1.3-.8a.224.224,0,0,1,.2.4l-1.3.8Z"/>
    </g>
    <path id="Path_5091" data-name="Path 5091" class="cls-11" d="M241.1,216.1l14.2,7.9-14.2,7.5-14.2-8.3Z"/>
    <path id="Path_5092" data-name="Path 5092" class="cls-18" d="M255.3,219l-12.8,6a4.07,4.07,0,0,0-1.3,2.9v3.6l14.2-7.5Z"/>
    <path id="Path_5093" data-name="Path 5093" class="cls-11" d="M226.9,227.4l14.2,8.2v-4.1l-14.2-8.2Z"/>
    <path id="Path_5094" data-name="Path 5094" class="cls-19" d="M255.3,224.1l-14.2,7.4v4.1l14.2-8.2Z"/>
    <g id="Group_4024" data-name="Group 4024">
      <path id="Path_5095" data-name="Path 5095" class="cls-20" d="M251.4,219.2a2.32,2.32,0,1,1-2.5-3.9c1.1-.7,5-.5,5-.5S252.5,218.4,251.4,219.2Z"/>
      <path id="Path_5096" data-name="Path 5096" class="cls-21" d="M246.9,219.3c-.1-.1,0-.2.1-.2l5.1-3.3c.1-.1.2,0,.2.1.1.1,0,.2-.1.2l-5.1,3.3A.31.31,0,0,1,246.9,219.3Z"/>
      <path id="Path_5097" data-name="Path 5097" class="cls-21" d="M249.2,217.9v-.1c0-.1.1-.2.2-.1l1.7.4c.1,0,.2.1.1.2,0,.1-.1.2-.2.1l-1.7-.4Z"/>
      <path id="Path_5098" data-name="Path 5098" class="cls-21" d="M249.2,217.9v-.1l.3-1.6c0-.1.1-.2.2-.1.1,0,.2.1.1.2l-.3,1.6c0,.1-.1.2-.2.1Z"/>
      <path id="Path_5099" data-name="Path 5099" class="cls-21" d="M250.6,216.9v-.1c0-.1.1-.2.2-.1l1.1.2c.1,0,.2.1.1.2,0,.1-.1.2-.2.1l-1.1-.2A.1.1,0,0,1,250.6,216.9Z"/>
    </g>
    <g id="Group_4025" data-name="Group 4025" class="cls-22">
      <path id="Path_5100" data-name="Path 5100" class="cls-23" d="M227.2,223.1v-2.6a2.814,2.814,0,0,1,.6-2.1c.6-.8,8.2-4.5,13.3-6.8l13.6,7.4-12.4,5.8a4.268,4.268,0,0,0-1.5,3.2v3.1Z"/>
      <path id="Path_5101" data-name="Path 5101" class="cls-24" d="M241.1,211.9l13.1,7.1-11.9,5.6a.1.1,0,0,0-.1.1,4.671,4.671,0,0,0-1.5,3.4v2.7l-13.2-7.7v-2.6a3.018,3.018,0,0,1,.6-1.9c.4-.8,7.8-4.4,13-6.7m0-.6s-12.7,5.8-13.5,7a3.158,3.158,0,0,0-.6,2.2v2.8l14.2,8.3V228a4.156,4.156,0,0,1,1.3-3l12.8-6-14.2-7.7Z"/>
    </g>
    <path id="Path_5102" data-name="Path 5102" class="cls-18" d="M241.1,211.3l-12.8,6.2a4.07,4.07,0,0,0-1.3,2.9v2.8l14.2-7.2v-4.7Z"/>
    <path id="Path_5103" data-name="Path 5103" class="cls-19" d="M241.1,235.6l1.1-.6v29.6l-1.1.6Z"/>
    <path id="Path_5104" data-name="Path 5104" class="cls-5" d="M228.3,228.2l1.1.7V257l-1.1.6Z"/>
    <path id="Path_5105" data-name="Path 5105" class="cls-11" d="M239.8,234.8v29.6l1.3.8V235.6Z"/>
    <path id="Path_5106" data-name="Path 5106" class="cls-11" d="M226.9,227.3v29.6l1.4.8V228.1Z"/>
    <path id="Path_5107" data-name="Path 5107" class="cls-11" d="M256.4,224.9l14.2,8-14.2,7.4-14.2-8.2Z"/>
    <path id="Path_5108" data-name="Path 5108" class="cls-18" d="M270.6,227.8l-12.8,6a4.07,4.07,0,0,0-1.3,2.9v3.6l14.2-7.5Z"/>
    <path id="Path_5109" data-name="Path 5109" class="cls-11" d="M242.2,236.3l14.2,8.2v-4.1l-14.2-8.3Z"/>
    <path id="Path_5110" data-name="Path 5110" class="cls-19" d="M270.6,232.9l-14.2,7.5v4.1l14.2-8.2Z"/>
    <g id="Group_4026" data-name="Group 4026" class="cls-22">
      <path id="Path_5111" data-name="Path 5111" class="cls-23" d="M242.5,232v-2.6a2.814,2.814,0,0,1,.6-2.1c.6-.8,8.2-4.5,13.3-6.8l13.6,7.4-12.4,5.8a4.268,4.268,0,0,0-1.5,3.2V240Z"/>
      <path id="Path_5112" data-name="Path 5112" class="cls-24" d="M256.4,220.7l13.1,7.1-11.9,5.6a.1.1,0,0,0-.1.1,4.671,4.671,0,0,0-1.5,3.4v2.7l-13.2-7.7v-2.6a3.018,3.018,0,0,1,.6-1.9c.4-.7,7.8-4.3,13-6.7m0-.5s-12.7,5.8-13.5,7a3.158,3.158,0,0,0-.6,2.2v2.8l14.2,8.3v-3.6a4.156,4.156,0,0,1,1.3-3l12.8-6-14.2-7.7Z"/>
    </g>
    <path id="Path_5113" data-name="Path 5113" class="cls-18" d="M256.4,220.2l-12.8,6.2a4.07,4.07,0,0,0-1.3,2.9v2.8l14.2-7.2v-4.7Z"/>
    <path id="Path_5114" data-name="Path 5114" class="cls-19" d="M256.4,244.5l1.1-.7v29.6l-1.1.6Z"/>
    <path id="Path_5115" data-name="Path 5115" class="cls-5" d="M243.6,237.1l1.1.6v28.1l-1.1.6Z"/>
    <path id="Path_5116" data-name="Path 5116" class="cls-11" d="M255,243.7v29.5l1.4.8V244.5Z"/>
    <path id="Path_5117" data-name="Path 5117" class="cls-11" d="M242.2,236.2v29.5l1.4.8V237Z"/>
    <path id="Path_5118" data-name="Path 5118" class="cls-11" d="M271.7,233.8l14.1,7.9-14.1,7.5-14.2-8.3Z"/>
    <path id="Path_5119" data-name="Path 5119" class="cls-18" d="M285.8,236.7l-12.8,6a4.07,4.07,0,0,0-1.3,2.9v3.6l14.2-7.5Z"/>
    <path id="Path_5120" data-name="Path 5120" class="cls-11" d="M257.5,245.1l14.2,8.2v-4.1L257.5,241Z"/>
    <path id="Path_5121" data-name="Path 5121" class="cls-19" d="M285.8,241.8l-14.1,7.4v4.1l14.1-8.2Z"/>
    <path id="Path_5122" data-name="Path 5122" class="cls-20" d="M271.1,241.5a2.349,2.349,0,0,1-3.3-.4,2.324,2.324,0,0,1,.6-3.3c1.1-.8,5-.8,5-.8S272.2,240.7,271.1,241.5Z"/>
    <path id="Path_5123" data-name="Path 5123" class="cls-21" d="M266.6,241.9c-.1-.1,0-.2,0-.3l4.9-3.7c.1-.1.2,0,.3,0,.1.1,0,.2,0,.3l-4.9,3.7A.187.187,0,0,1,266.6,241.9Z"/>
    <path id="Path_5124" data-name="Path 5124" class="cls-21" d="M268.8,240.3v-.1a.215.215,0,0,1,.2-.2l1.7.2a.2.2,0,1,1,0,.4l-1.7-.2A.349.349,0,0,1,268.8,240.3Z"/>
    <path id="Path_5125" data-name="Path 5125" class="cls-21" d="M268.8,240.3v-.1l.2-1.6a.2.2,0,0,1,.4,0l-.2,1.6a.215.215,0,0,1-.2.2A.349.349,0,0,1,268.8,240.3Z"/>
    <path id="Path_5126" data-name="Path 5126" class="cls-21" d="M270.2,239.3v-.1a.215.215,0,0,1,.2-.2l1.1.2a.2.2,0,1,1,0,.4l-1.1-.2A.31.31,0,0,0,270.2,239.3Z"/>
    <g id="Group_4027" data-name="Group 4027" class="cls-22">
      <path id="Path_5127" data-name="Path 5127" class="cls-23" d="M257.7,240.8v-2.6a2.814,2.814,0,0,1,.6-2.1c.6-.8,8.2-4.5,13.3-6.8l13.6,7.4-12.4,5.8a4.268,4.268,0,0,0-1.5,3.2v3.1Z"/>
      <path id="Path_5128" data-name="Path 5128" class="cls-24" d="M271.6,229.6l13.1,7.1-11.9,5.6a.1.1,0,0,0-.1.1,4.671,4.671,0,0,0-1.5,3.4v2.7L258,240.8v-2.6a3.018,3.018,0,0,1,.6-1.9c.5-.8,7.9-4.4,13-6.7m.1-.6s-12.7,5.8-13.5,7a3.159,3.159,0,0,0-.6,2.2V241l14.2,8.3v-3.6a4.156,4.156,0,0,1,1.3-3l12.8-6L271.7,229Z"/>
    </g>
    <path id="Path_5129" data-name="Path 5129" class="cls-18" d="M271.7,229l-12.8,6.2a4.07,4.07,0,0,0-1.3,2.9v2.8l14.2-7.2V229Z"/>
    <path id="Path_5130" data-name="Path 5130" class="cls-19" d="M271.7,253.3l1.1-.6v29.6l-1.1.6Z"/>
    <path id="Path_5131" data-name="Path 5131" class="cls-5" d="M258.8,245.9l1.1.7v28.1l-1.1.6Z"/>
    <path id="Path_5132" data-name="Path 5132" class="cls-11" d="M270.3,252.5v29.6l1.4.8V253.3Z"/>
    <path id="Path_5133" data-name="Path 5133" class="cls-11" d="M257.5,245v29.6l1.3.8V245.8Z"/>
    <path id="Path_5134" data-name="Path 5134" class="cls-11" d="M287,242.6l14.1,8L287,258l-14.2-8.2Z"/>
    <path id="Path_5135" data-name="Path 5135" class="cls-18" d="M301.1,245.5l-12.8,6a4.07,4.07,0,0,0-1.3,2.9V258l14.2-7.5Z"/>
    <path id="Path_5136" data-name="Path 5136" class="cls-11" d="M272.8,254l14.1,8.2v-4.1l-14.1-8.3Z"/>
    <path id="Path_5137" data-name="Path 5137" class="cls-19" d="M301.1,250.6l-14.2,7.5v4.1l14.2-8.2Z"/>
    <g id="Group_4028" data-name="Group 4028" class="cls-22">
      <path id="Path_5138" data-name="Path 5138" class="cls-23" d="M273,249.7v-2.6a2.814,2.814,0,0,1,.6-2.1c.6-.8,8.2-4.5,13.3-6.8l13.6,7.4-12.4,5.8a4.268,4.268,0,0,0-1.5,3.2v3.1Z"/>
      <path id="Path_5139" data-name="Path 5139" class="cls-24" d="M286.9,238.4l13.1,7.1-11.9,5.6a.1.1,0,0,0-.1.1,4.671,4.671,0,0,0-1.5,3.4v2.7l-13.2-7.7V247a3.018,3.018,0,0,1,.6-1.9c.5-.7,7.8-4.3,13-6.7m0-.5s-12.7,5.8-13.5,7a3.159,3.159,0,0,0-.6,2.2v2.8l14.2,8.3v-3.6a4.156,4.156,0,0,1,1.3-3l12.8-6-14.2-7.7Z"/>
    </g>
    <path id="Path_5140" data-name="Path 5140" class="cls-18" d="M286.9,237.9l-12.8,6.2a4.07,4.07,0,0,0-1.3,2.9v2.8l14.2-7.2v-4.7Z"/>
    <path id="Path_5141" data-name="Path 5141" class="cls-19" d="M286.9,262.2l1.1-.7v29.6l-1.1.6Z"/>
    <path id="Path_5142" data-name="Path 5142" class="cls-5" d="M274.1,254.8l1.1.6v28.1l-1.1.6Z"/>
    <path id="Path_5143" data-name="Path 5143" class="cls-11" d="M285.6,261.4v29.5l1.3.8V262.2Z"/>
    <path id="Path_5144" data-name="Path 5144" class="cls-11" d="M272.8,253.9v29.5l1.3.8V254.7Z"/>
    <path id="Path_5145" data-name="Path 5145" class="cls-11" d="M302.2,251.5l14.2,7.9-14.2,7.5-14.1-8.3Z"/>
    <path id="Path_5146" data-name="Path 5146" class="cls-18" d="M316.4,254.4l-12.8,6a4.07,4.07,0,0,0-1.3,2.9v3.6l14.2-7.5Z"/>
    <path id="Path_5147" data-name="Path 5147" class="cls-11" d="M288.1,262.8l14.1,8.2v-4.1l-14.1-8.2Z"/>
    <path id="Path_5148" data-name="Path 5148" class="cls-19" d="M316.4,259.5l-14.2,7.4V271l14.2-8.2Z"/>
    <path id="Path_5149" data-name="Path 5149" class="cls-20" d="M305.2,256.9a2.62,2.62,0,0,1-3.5.3,2.5,2.5,0,0,1-.1-3.5c.9-1,4.9-1.8,4.9-1.8S306.2,255.9,305.2,256.9Z"/>
    <path id="Path_5150" data-name="Path 5150" class="cls-21" d="M299.1,260.2a.187.187,0,0,1,0-.3l6-6.6a.212.212,0,1,1,.3.3l-6,6.6Z"/>
    <path id="Path_5151" data-name="Path 5151" class="cls-21" d="M302.7,256.1l-.1-.1a.215.215,0,0,1,.2-.2l1.8-.1a.2.2,0,1,1,0,.4l-1.8.1A.1.1,0,0,1,302.7,256.1Z"/>
    <path id="Path_5152" data-name="Path 5152" class="cls-21" d="M302.7,256.1l-.1-.1-.1-1.7a.2.2,0,0,1,.4,0l.1,1.7a.215.215,0,0,1-.2.2A.1.1,0,0,1,302.7,256.1Z"/>
    <path id="Path_5153" data-name="Path 5153" class="cls-21" d="M303.9,254.8l-.1-.1a.215.215,0,0,1,.2-.2l1.1-.1a.2.2,0,1,1,0,.4l-1.1.1A.1.1,0,0,1,303.9,254.8Z"/>
    <path id="Path_5154" data-name="Path 5154" class="cls-20" d="M302.2,259.5a.817.817,0,0,1-.9-.8.876.876,0,0,1,.8-.9,4.917,4.917,0,0,1,1.6.7A5.4,5.4,0,0,1,302.2,259.5Z"/>
    <path id="Path_5155" data-name="Path 5155" class="cls-21" d="M300.3,258.9l-.1-.1a.215.215,0,0,1,.2-.2l1.5-.1a.2.2,0,0,1,0,.4l-1.5.1C300.4,258.9,300.4,258.9,300.3,258.9Z"/>
    <g id="Group_4029" data-name="Group 4029" class="cls-22">
      <path id="Path_5156" data-name="Path 5156" class="cls-23" d="M288.3,258.5v-2.6a2.814,2.814,0,0,1,.6-2.1c.6-.8,8.2-4.5,13.3-6.8l13.6,7.4-12.4,5.8a4.268,4.268,0,0,0-1.5,3.2v3.1Z"/>
      <path id="Path_5157" data-name="Path 5157" class="cls-24" d="M302.2,247.3l13.1,7.1L303.4,260a.1.1,0,0,0-.1.1,4.671,4.671,0,0,0-1.5,3.4v2.7l-13.2-7.7v-2.6a3.018,3.018,0,0,1,.6-1.9c.5-.8,7.8-4.3,13-6.7m0-.6s-12.7,5.8-13.5,7a3.159,3.159,0,0,0-.6,2.2v2.8l14.2,8.3v-3.6a4.156,4.156,0,0,1,1.3-3l12.8-6-14.2-7.7Z"/>
    </g>
    <path id="Path_5158" data-name="Path 5158" class="cls-18" d="M302.2,246.7l-12.8,6.2a4.07,4.07,0,0,0-1.3,2.9v2.8l14.2-7.2v-4.7Z"/>
    <path id="Path_5159" data-name="Path 5159" class="cls-19" d="M302.2,271l1.1-.6V300l-1.1.6Z"/>
    <path id="Path_5160" data-name="Path 5160" class="cls-5" d="M289.4,263.6l1.1.7v28.1l-1.1.6Z"/>
    <path id="Path_5161" data-name="Path 5161" class="cls-11" d="M300.9,270.2v29.6l1.3.8V271Z"/>
    <path id="Path_5162" data-name="Path 5162" class="cls-11" d="M288.1,262.7v29.6l1.3.8V263.5Z"/>
    <path id="Path_5163" data-name="Path 5163" class="cls-11" d="M317.5,260.3l14.2,8-14.2,7.4-14.1-8.2Z"/>
    <path id="Path_5164" data-name="Path 5164" class="cls-18" d="M331.7,263.2l-12.8,6a4.07,4.07,0,0,0-1.3,2.9v3.6l14.2-7.5Z"/>
    <path id="Path_5165" data-name="Path 5165" class="cls-11" d="M303.3,271.7l14.2,8.2v-4.1l-14.2-8.3Z"/>
    <path id="Path_5166" data-name="Path 5166" class="cls-19" d="M331.7,268.3l-14.2,7.5v4.1l14.2-8.2Z"/>
    <g id="Group_4030" data-name="Group 4030" class="cls-22">
      <path id="Path_5167" data-name="Path 5167" class="cls-23" d="M303.6,267.4v-2.6a2.814,2.814,0,0,1,.6-2.1c.6-.8,8.2-4.5,13.3-6.8l13.6,7.4-12.4,5.8a4.268,4.268,0,0,0-1.5,3.2v3.1Z"/>
      <path id="Path_5168" data-name="Path 5168" class="cls-24" d="M317.5,256.1l13.1,7.1-11.9,5.6a.1.1,0,0,0-.1.1,4.671,4.671,0,0,0-1.5,3.4V275l-13.2-7.7v-2.6a3.018,3.018,0,0,1,.6-1.9c.4-.7,7.8-4.3,13-6.7m0-.5s-12.7,5.8-13.5,7a3.159,3.159,0,0,0-.6,2.2v2.8l14.2,8.3v-3.6a4.156,4.156,0,0,1,1.3-3l12.8-6-14.2-7.7Z"/>
    </g>
    <path id="Path_5169" data-name="Path 5169" class="cls-25" d="M317.5,255.6l-12.8,6.2a4.07,4.07,0,0,0-1.3,2.9v2.8l14.2-7.2v-4.7Z"/>
    <path id="Path_5170" data-name="Path 5170" class="cls-19" d="M317.5,279.9l1.1-.7v29.6l-1.1.6Z"/>
    <path id="Path_5171" data-name="Path 5171" class="cls-5" d="M304.7,272.5l1.1.6v28.1l-1.1.6Z"/>
    <path id="Path_5172" data-name="Path 5172" class="cls-11" d="M316.2,279.1v29.6l1.3.7V279.9Z"/>
    <path id="Path_5173" data-name="Path 5173" class="cls-11" d="M303.3,271.6v29.5l1.4.8V272.4Z"/>
    <path id="Path_5174" data-name="Path 5174" class="cls-11" d="M332.8,269.2l14.2,7.9-14.2,7.5-14.2-8.3Z"/>
    <path id="Path_5175" data-name="Path 5175" class="cls-18" d="M347,272.1l-12.8,6a4.07,4.07,0,0,0-1.3,2.9v3.6l14.2-7.5Z"/>
    <path id="Path_5176" data-name="Path 5176" class="cls-11" d="M318.6,280.5l14.2,8.2v-4.1l-14.2-8.2Z"/>
    <path id="Path_5177" data-name="Path 5177" class="cls-19" d="M347,277.2l-14.2,7.4v4.1l14.2-8.2Z"/>
    <g id="Group_4031" data-name="Group 4031">
      <path id="Path_5178" data-name="Path 5178" class="cls-20" d="M333.1,275.8a2.311,2.311,0,1,1-4.6.4c-.1-1.3,1.9-4.6,1.9-4.6S333,274.4,333.1,275.8Z"/>
      <path id="Path_5179" data-name="Path 5179" class="cls-21" d="M331.1,279.8a.215.215,0,0,1-.2-.2l-.5-6.1a.2.2,0,0,1,.4,0l.5,6.1A.215.215,0,0,1,331.1,279.8Z"/>
      <path id="Path_5180" data-name="Path 5180" class="cls-21" d="M330.9,277.1h-.1a.187.187,0,0,1,0-.3l1.1-1.3a.212.212,0,0,1,.3.3L331,277C330.9,277,330.9,277,330.9,277.1Z"/>
      <path id="Path_5181" data-name="Path 5181" class="cls-21" d="M330.9,277.1h-.1l-1.3-1.1a.212.212,0,0,1,.3-.3l1.3,1.1a.187.187,0,0,1,0,.3C330.9,277,330.9,277,330.9,277.1Z"/>
      <path id="Path_5182" data-name="Path 5182" class="cls-21" d="M330.7,275.3h-.1a.187.187,0,0,1,0-.3l.7-.8a.212.212,0,0,1,.3.3l-.7.8Z"/>
    </g>
    <g id="Group_4032" data-name="Group 4032" class="cls-22">
      <path id="Path_5183" data-name="Path 5183" class="cls-23" d="M318.9,276.2v-2.6a2.814,2.814,0,0,1,.6-2.1c.6-.8,8.2-4.5,13.3-6.8l13.6,7.4L334,277.9a4.268,4.268,0,0,0-1.5,3.2v3.1Z"/>
      <path id="Path_5184" data-name="Path 5184" class="cls-24" d="M332.8,265l13.1,7.1L334,277.7a.1.1,0,0,0-.1.1,4.671,4.671,0,0,0-1.5,3.4v2.7l-13.2-7.7v-2.6a3.018,3.018,0,0,1,.6-1.9c.4-.8,7.8-4.3,13-6.7m0-.6s-12.7,5.8-13.5,7a3.159,3.159,0,0,0-.6,2.2v2.8l14.2,8.3v-3.6a4.156,4.156,0,0,1,1.3-3l12.8-6-14.2-7.7Z"/>
    </g>
    <path id="Path_5185" data-name="Path 5185" class="cls-18" d="M332.8,264.4,320,270.6a4.07,4.07,0,0,0-1.3,2.9v2.8l14.2-7.2v-4.7Z"/>
    <path id="Path_5186" data-name="Path 5186" class="cls-19" d="M332.8,288.7l1.1-.6v29.6l-1.1.6Z"/>
    <path id="Path_5187" data-name="Path 5187" class="cls-5" d="M320,281.3l1.1.7v28.1l-1.1.6Z"/>
    <path id="Path_5188" data-name="Path 5188" class="cls-11" d="M331.5,288v29.5l1.3.8V288.7Z"/>
    <path id="Path_5189" data-name="Path 5189" class="cls-11" d="M318.6,280.4V310l1.4.8V281.2Z"/>
    <path id="Path_5190" data-name="Path 5190" class="cls-11" d="M348.1,278l14.2,8-14.2,7.4-14.2-8.2Z"/>
    <path id="Path_5191" data-name="Path 5191" class="cls-18" d="M362.3,280.9l-12.8,6a4.07,4.07,0,0,0-1.3,2.9v3.6l14.2-7.5Z"/>
    <path id="Path_5192" data-name="Path 5192" class="cls-11" d="M333.9,289.4l14.2,8.2v-4.1l-14.2-8.3Z"/>
    <path id="Path_5193" data-name="Path 5193" class="cls-19" d="M362.3,286l-14.2,7.5v4.1l14.2-8.2Z"/>
    <g id="Group_4033" data-name="Group 4033">
      <path id="Path_5194" data-name="Path 5194" class="cls-20" d="M347.2,286.4a2.393,2.393,0,0,1-3.3.4,2.266,2.266,0,0,1-.2-3.3c.9-1,4.7-1.9,4.7-1.9S348.1,285.4,347.2,286.4Z"/>
      <path id="Path_5195" data-name="Path 5195" class="cls-21" d="M343,287.8a.187.187,0,0,1,0-.3l3.9-4.7a.212.212,0,1,1,.3.3l-3.9,4.7A.187.187,0,0,1,343,287.8Z"/>
      <path id="Path_5196" data-name="Path 5196" class="cls-21" d="M344.7,285.7l-.1-.1a.215.215,0,0,1,.2-.2l1.7-.1a.2.2,0,1,1,0,.4l-1.7.1Z"/>
      <path id="Path_5197" data-name="Path 5197" class="cls-21" d="M344.7,285.7l-.1-.1-.1-1.7a.2.2,0,0,1,.4,0l.1,1.7a.215.215,0,0,1-.2.2Z"/>
      <path id="Path_5198" data-name="Path 5198" class="cls-21" d="M345.8,284.4l-.1-.1a.215.215,0,0,1,.2-.2l1.1-.1a.2.2,0,0,1,0,.4l-1.1.1Z"/>
    </g>
    <g id="Group_4034" data-name="Group 4034" class="cls-22">
      <path id="Path_5199" data-name="Path 5199" class="cls-23" d="M334.2,285.1v-2.6a2.814,2.814,0,0,1,.6-2.1c.6-.8,8.2-4.5,13.3-6.8l13.6,7.4-12.4,5.8a4.268,4.268,0,0,0-1.5,3.2v3.1Z"/>
      <path id="Path_5200" data-name="Path 5200" class="cls-24" d="M348.1,273.8l13.1,7.1-11.9,5.6a.1.1,0,0,0-.1.1,4.671,4.671,0,0,0-1.5,3.4v2.7L334.5,285v-2.6a3.018,3.018,0,0,1,.6-1.9c.4-.7,7.8-4.3,13-6.7m0-.5s-12.7,5.8-13.5,7a3.159,3.159,0,0,0-.6,2.2v2.8l14.2,8.3V290a4.156,4.156,0,0,1,1.3-3l12.8-6-14.2-7.7Z"/>
    </g>
    <path id="Path_5201" data-name="Path 5201" class="cls-25" d="M348.1,273.3l-12.8,6.2a4.07,4.07,0,0,0-1.3,2.9v2.8l14.2-7.2v-4.7Z"/>
    <path id="Path_5202" data-name="Path 5202" class="cls-19" d="M348.1,297.6l1.1-.7v29.6l-1.1.6Z"/>
    <path id="Path_5203" data-name="Path 5203" class="cls-5" d="M335.3,290.2l1.1.6v28.1l-1.1.7Z"/>
    <path id="Path_5204" data-name="Path 5204" class="cls-11" d="M346.7,296.8v29.6l1.4.7V297.6Z"/>
    <path id="Path_5205" data-name="Path 5205" class="cls-11" d="M333.9,289.3v29.5l1.4.8V290.1Z"/>
    <path id="Path_5206" data-name="Path 5206" class="cls-11" d="M363.4,286.9l14.1,7.9-14.1,7.5L349.2,294Z"/>
    <path id="Path_5207" data-name="Path 5207" class="cls-18" d="M377.5,289.8l-12.8,6a4.07,4.07,0,0,0-1.3,2.9v3.6l14.2-7.5Z"/>
    <path id="Path_5208" data-name="Path 5208" class="cls-11" d="M349.2,298.2l14.2,8.2v-4.1l-14.2-8.2Z"/>
    <path id="Path_5209" data-name="Path 5209" class="cls-19" d="M377.5,294.9l-14.1,7.4v4.1l14.1-8.2Z"/>
    <g id="Group_4035" data-name="Group 4035" class="cls-22">
      <path id="Path_5210" data-name="Path 5210" class="cls-23" d="M349.4,293.9v-2.6a2.814,2.814,0,0,1,.6-2.1c.6-.8,8.2-4.5,13.3-6.8l13.6,7.4-12.4,5.8a4.268,4.268,0,0,0-1.5,3.2v3.1Z"/>
      <path id="Path_5211" data-name="Path 5211" class="cls-24" d="M363.3,282.7l13.1,7.1-11.9,5.6a.1.1,0,0,0-.1.1,4.671,4.671,0,0,0-1.5,3.4v2.7l-13.2-7.7v-2.6a3.018,3.018,0,0,1,.6-1.9c.5-.8,7.9-4.3,13-6.7m.1-.6s-12.7,5.8-13.5,7a3.159,3.159,0,0,0-.6,2.2v2.8l14.2,8.3v-3.6a4.156,4.156,0,0,1,1.3-3l12.8-6-14.2-7.7Z"/>
    </g>
    <path id="Path_5212" data-name="Path 5212" class="cls-18" d="M363.4,282.1l-12.8,6.2a4.07,4.07,0,0,0-1.3,2.9V294l14.2-7.2v-4.7Z"/>
    <path id="Path_5213" data-name="Path 5213" class="cls-19" d="M363.4,306.4l1.1-.6v29.6l-1.1.6Z"/>
    <path id="Path_5214" data-name="Path 5214" class="cls-5" d="M350.5,299l1.1.7v28.1l-1.1.6Z"/>
    <path id="Path_5215" data-name="Path 5215" class="cls-11" d="M362,305.7v29.5l1.4.8V306.4Z"/>
    <path id="Path_5216" data-name="Path 5216" class="cls-11" d="M349.2,298.1v29.6l1.3.8V298.9Z"/>
    <path id="Path_5217" data-name="Path 5217" class="cls-26" d="M226.7,186l-.1-11.1,14.2-8.1,26.3,14.8Z"/>
    <g id="Group_4036" data-name="Group 4036">
      <path id="Path_5218" data-name="Path 5218" class="cls-20" d="M241.6,181.4a3.23,3.23,0,1,1-4.2,4.9c-1.4-1.2-2.7-6.5-2.7-6.5S240.2,180.2,241.6,181.4Z"/>
      <path id="Path_5219" data-name="Path 5219" class="cls-21" d="M243.6,187.3c-.1.1-.2.1-.4,0l-6.5-5.5c-.1-.1-.1-.2,0-.4.1-.1.2-.1.4,0l6.5,5.5C243.7,187.1,243.7,187.2,243.6,187.3Z"/>
      <path id="Path_5220" data-name="Path 5220" class="cls-21" d="M240.7,184.9a.349.349,0,0,1-.2.1c-.1,0-.3-.1-.3-.2l-.2-2.4c0-.1.1-.3.2-.3s.3.1.3.2l.2,2.4C240.8,184.8,240.7,184.8,240.7,184.9Z"/>
      <path id="Path_5221" data-name="Path 5221" class="cls-21" d="M240.7,184.9a.349.349,0,0,1-.2.1l-2.3.2c-.1,0-.3-.1-.3-.2s.1-.3.2-.3l2.3-.2c.1,0,.3.1.3.2C240.8,184.8,240.7,184.8,240.7,184.9Z"/>
      <path id="Path_5222" data-name="Path 5222" class="cls-21" d="M238.9,183.3a.349.349,0,0,1-.2.1c-.1,0-.3-.1-.3-.2l-.1-1.5c0-.1.1-.3.2-.3s.3.1.3.2l.1,1.5Z"/>
    </g>
    <path id="Path_5223" data-name="Path 5223" class="cls-26" d="M292.8,196.4,419,268.8l-31.1,6.8-131-74.8Z"/>
    <g id="Group_4037" data-name="Group 4037">
      <path id="Path_5224" data-name="Path 5224" class="cls-20" d="M288,213.4a2.393,2.393,0,0,1,.4,3.3,2.266,2.266,0,0,1-3.3.2c-1-.9-1.9-4.7-1.9-4.7S287,212.5,288,213.4Z"/>
      <path id="Path_5225" data-name="Path 5225" class="cls-21" d="M289.4,217.6a.187.187,0,0,1-.3,0l-4.7-3.9a.212.212,0,1,1,.3-.3l4.7,3.9C289.5,217.4,289.5,217.6,289.4,217.6Z"/>
      <path id="Path_5226" data-name="Path 5226" class="cls-21" d="M287.3,215.9l-.1.1a.215.215,0,0,1-.2-.2l-.1-1.7a.2.2,0,0,1,.4,0l.1,1.7Z"/>
      <path id="Path_5227" data-name="Path 5227" class="cls-21" d="M287.3,215.9l-.1.1-1.7.1a.2.2,0,1,1,0-.4l1.7-.1a.215.215,0,0,1,.2.2Z"/>
      <path id="Path_5228" data-name="Path 5228" class="cls-21" d="M286,214.8l-.1.1a.215.215,0,0,1-.2-.2l-.1-1.1a.2.2,0,0,1,.4,0l.1,1.1Z"/>
    </g>
    <g id="Group_4038" data-name="Group 4038">
      <path id="Path_5229" data-name="Path 5229" class="cls-20" d="M273.2,204a2.393,2.393,0,0,1,.4,3.3,2.266,2.266,0,0,1-3.3.2c-1-.9-1.9-4.7-1.9-4.7S272.1,203.1,273.2,204Z"/>
      <path id="Path_5230" data-name="Path 5230" class="cls-21" d="M274.6,208.2a.187.187,0,0,1-.3,0l-4.7-3.9a.212.212,0,0,1,.3-.3l4.7,3.9C274.6,208,274.7,208.1,274.6,208.2Z"/>
      <path id="Path_5231" data-name="Path 5231" class="cls-21" d="M272.5,206.4l-.1.1a.215.215,0,0,1-.2-.2l-.1-1.7a.2.2,0,0,1,.4,0l.1,1.7A.1.1,0,0,1,272.5,206.4Z"/>
      <path id="Path_5232" data-name="Path 5232" class="cls-21" d="M272.5,206.4l-.1.1-1.7.1a.2.2,0,1,1,0-.4l1.7-.1a.215.215,0,0,1,.2.2A.1.1,0,0,1,272.5,206.4Z"/>
      <path id="Path_5233" data-name="Path 5233" class="cls-21" d="M271.2,205.3l-.1.1a.215.215,0,0,1-.2-.2l-.1-1.1a.2.2,0,0,1,.4,0l.1,1.1Z"/>
    </g>
    <g id="Group_4039" data-name="Group 4039">
      <path id="Path_5234" data-name="Path 5234" class="cls-20" d="M315.3,231.3a2.393,2.393,0,0,1,.4,3.3,2.266,2.266,0,0,1-3.3.2c-1-.9-1.9-4.7-1.9-4.7S314.3,230.5,315.3,231.3Z"/>
      <path id="Path_5235" data-name="Path 5235" class="cls-21" d="M316.7,235.6a.187.187,0,0,1-.3,0l-4.7-3.9a.212.212,0,0,1,.3-.3l4.7,3.9A.188.188,0,0,1,316.7,235.6Z"/>
      <path id="Path_5236" data-name="Path 5236" class="cls-21" d="M314.7,233.8l-.1.1a.215.215,0,0,1-.2-.2l-.1-1.7a.2.2,0,0,1,.4,0l.1,1.7A.1.1,0,0,0,314.7,233.8Z"/>
      <path id="Path_5237" data-name="Path 5237" class="cls-21" d="M314.7,233.8l-.1.1-1.7.1a.2.2,0,1,1,0-.4l1.7-.1a.215.215,0,0,1,.2.2A.1.1,0,0,0,314.7,233.8Z"/>
      <path id="Path_5238" data-name="Path 5238" class="cls-21" d="M313.4,232.7l-.1.1a.215.215,0,0,1-.2-.2l-.1-1.1a.2.2,0,0,1,.4,0l.1,1.1A.1.1,0,0,0,313.4,232.7Z"/>
    </g>
    <g id="Group_4040" data-name="Group 4040">
      <path id="Path_5239" data-name="Path 5239" class="cls-20" d="M362.3,253.3a2.393,2.393,0,0,1,.4,3.3,2.266,2.266,0,0,1-3.3.2c-1-.9-1.9-4.7-1.9-4.7S361.2,252.5,362.3,253.3Z"/>
      <path id="Path_5240" data-name="Path 5240" class="cls-21" d="M363.7,257.6a.187.187,0,0,1-.3,0l-4.7-3.9a.212.212,0,0,1,.3-.3l4.7,3.9C363.7,257.4,363.8,257.5,363.7,257.6Z"/>
      <path id="Path_5241" data-name="Path 5241" class="cls-21" d="M361.6,255.8l-.1.1a.215.215,0,0,1-.2-.2l-.1-1.7a.2.2,0,0,1,.4,0l.1,1.7Z"/>
      <path id="Path_5242" data-name="Path 5242" class="cls-21" d="M361.6,255.8l-.1.1-1.7.1a.2.2,0,1,1,0-.4l1.7-.1a.215.215,0,0,1,.2.2Z"/>
      <path id="Path_5243" data-name="Path 5243" class="cls-21" d="M360.3,254.7l-.1.1a.215.215,0,0,1-.2-.2l-.1-1.1a.2.2,0,0,1,.4,0l.1,1.1A.1.1,0,0,0,360.3,254.7Z"/>
    </g>
    <g id="Group_4041" data-name="Group 4041">
      <path id="Path_5244" data-name="Path 5244" class="cls-20" d="M386.7,269.4a2.393,2.393,0,0,1,.4,3.3,2.266,2.266,0,0,1-3.3.2c-1-.9-1.9-4.7-1.9-4.7S385.6,268.6,386.7,269.4Z"/>
      <path id="Path_5245" data-name="Path 5245" class="cls-21" d="M388.1,273.7a.187.187,0,0,1-.3,0l-4.7-3.9a.212.212,0,0,1,.3-.3l4.7,3.9Z"/>
      <path id="Path_5246" data-name="Path 5246" class="cls-21" d="M386,271.9l-.1.1a.215.215,0,0,1-.2-.2l-.1-1.7a.2.2,0,1,1,.4,0l.1,1.7Z"/>
      <path id="Path_5247" data-name="Path 5247" class="cls-21" d="M386,271.9l-.1.1-1.7.1a.2.2,0,0,1,0-.4l1.7-.1a.215.215,0,0,1,.2.2Z"/>
      <path id="Path_5248" data-name="Path 5248" class="cls-21" d="M384.7,270.8l-.1.1a.215.215,0,0,1-.2-.2l-.1-1.1a.2.2,0,0,1,.4,0l.1,1.1A.1.1,0,0,0,384.7,270.8Z"/>
    </g>
    <g id="Group_4042" data-name="Group 4042">
      <path id="Path_5249" data-name="Path 5249" class="cls-20" d="M370.6,267.4a2.393,2.393,0,0,1,.4,3.3,2.266,2.266,0,0,1-3.3.2c-1-.9-1.9-4.7-1.9-4.7S369.5,266.5,370.6,267.4Z"/>
      <path id="Path_5250" data-name="Path 5250" class="cls-21" d="M372,271.6a.187.187,0,0,1-.3,0l-4.7-3.9a.212.212,0,0,1,.3-.3l4.7,3.9C372,271.4,372.1,271.5,372,271.6Z"/>
      <path id="Path_5251" data-name="Path 5251" class="cls-21" d="M369.9,269.8l-.1.1a.215.215,0,0,1-.2-.2l-.1-1.7a.2.2,0,0,1,.4,0l.1,1.7A.1.1,0,0,1,369.9,269.8Z"/>
      <path id="Path_5252" data-name="Path 5252" class="cls-21" d="M369.9,269.8l-.1.1-1.7.1a.2.2,0,0,1,0-.4l1.7-.1a.215.215,0,0,1,.2.2A.1.1,0,0,1,369.9,269.8Z"/>
      <path id="Path_5253" data-name="Path 5253" class="cls-21" d="M368.6,268.7l-.1.1a.215.215,0,0,1-.2-.2l-.1-1.1a.2.2,0,1,1,.4,0l.1,1.1A.1.1,0,0,1,368.6,268.7Z"/>
    </g>
    <g id="Group_4043" data-name="Group 4043">
      <path id="Path_5254" data-name="Path 5254" class="cls-20" d="M348.8,243.4a2.393,2.393,0,0,1,.4,3.3,2.266,2.266,0,0,1-3.3.2c-1-.9-1.9-4.7-1.9-4.7S347.7,242.6,348.8,243.4Z"/>
      <path id="Path_5255" data-name="Path 5255" class="cls-21" d="M350.2,247.7a.187.187,0,0,1-.3,0l-4.7-3.9a.212.212,0,0,1,.3-.3l4.7,3.9Z"/>
      <path id="Path_5256" data-name="Path 5256" class="cls-21" d="M348.1,245.9l-.1.1a.215.215,0,0,1-.2-.2l-.1-1.7a.2.2,0,0,1,.4,0l.1,1.7Z"/>
      <path id="Path_5257" data-name="Path 5257" class="cls-21" d="M348.1,245.9l-.1.1-1.7.1a.2.2,0,1,1,0-.4l1.7-.1a.215.215,0,0,1,.2.2Z"/>
      <path id="Path_5258" data-name="Path 5258" class="cls-21" d="M346.8,244.8l-.1.1a.215.215,0,0,1-.2-.2l-.1-1.1a.2.2,0,0,1,.4,0l.1,1.1A.1.1,0,0,0,346.8,244.8Z"/>
    </g>
    <g id="Group_4044" data-name="Group 4044">
      <path id="Path_5259" data-name="Path 5259" class="cls-20" d="M331.9,237.6a3.36,3.36,0,0,1,.8,4.6,3.208,3.208,0,0,1-4.6.5c-1.5-1.1-3-6.3-3-6.3S330.4,236.5,331.9,237.6Z"/>
      <path id="Path_5260" data-name="Path 5260" class="cls-21" d="M337,245.5a.187.187,0,0,1-.3,0l-9.6-7.2a.212.212,0,0,1,.3-.3l9.6,7.2C337.1,245.2,337.1,245.4,337,245.5Z"/>
      <path id="Path_5261" data-name="Path 5261" class="cls-21" d="M331.2,241.1c0,.1-.1.1-.2.1s-.3-.1-.3-.2l-.3-2.4c0-.1.1-.3.2-.3s.3.1.3.2l.3,2.4Z"/>
      <path id="Path_5262" data-name="Path 5262" class="cls-21" d="M331.2,241.1c0,.1-.1.1-.2.1l-2.3.3c-.1,0-.3-.1-.3-.2s.1-.3.2-.3l2.3-.3c.1,0,.3.1.3.2Z"/>
      <path id="Path_5263" data-name="Path 5263" class="cls-21" d="M329.3,239.6c0,.1-.1.1-.2.1s-.3-.1-.3-.2l-.2-1.5c0-.1.1-.3.2-.3s.3.1.3.2l.2,1.5Z"/>
      <path id="Path_5264" data-name="Path 5264" class="cls-20" d="M335.7,241.3a1.13,1.13,0,0,1-.9,1.3,1.2,1.2,0,0,1-1.3-1,6.654,6.654,0,0,1,.8-2.3A7.415,7.415,0,0,1,335.7,241.3Z"/>
      <path id="Path_5265" data-name="Path 5265" class="cls-21" d="M335.1,243.9c0,.1-.1.1-.2.1s-.3-.1-.3-.2l-.3-2c0-.1.1-.3.2-.3s.3.1.3.2l.3,2C335.2,243.8,335.2,243.9,335.1,243.9Z"/>
    </g>
    <g id="Group_4045" data-name="Group 4045">
      <path id="Path_5266" data-name="Path 5266" class="cls-20" d="M303.5,214.7a3.36,3.36,0,0,1,.8,4.6,3.208,3.208,0,0,1-4.6.5c-1.5-1.1-3-6.3-3-6.3S302,213.6,303.5,214.7Z"/>
      <path id="Path_5267" data-name="Path 5267" class="cls-21" d="M308.6,222.6a.187.187,0,0,1-.3,0l-9.6-7.2a.212.212,0,0,1,.3-.3l9.6,7.2C308.7,222.3,308.7,222.5,308.6,222.6Z"/>
      <path id="Path_5268" data-name="Path 5268" class="cls-21" d="M302.8,218.2c0,.1-.1.1-.2.1s-.3-.1-.3-.2l-.3-2.4c0-.1.1-.3.2-.3s.3.1.3.2l.3,2.4A.138.138,0,0,1,302.8,218.2Z"/>
      <path id="Path_5269" data-name="Path 5269" class="cls-21" d="M302.8,218.2c0,.1-.1.1-.2.1l-2.3.3c-.1,0-.3-.1-.3-.2s.1-.3.2-.3l2.3-.3c.1,0,.3.1.3.2A.138.138,0,0,1,302.8,218.2Z"/>
      <path id="Path_5270" data-name="Path 5270" class="cls-21" d="M300.9,216.8c0,.1-.1.1-.2.1s-.3-.1-.3-.2l-.2-1.5c0-.1.1-.3.2-.3s.3.1.3.2l.2,1.5C301,216.7,300.9,216.7,300.9,216.8Z"/>
      <path id="Path_5271" data-name="Path 5271" class="cls-20" d="M307.3,218.5a1.13,1.13,0,0,1-.9,1.3,1.2,1.2,0,0,1-1.3-1,6.654,6.654,0,0,1,.8-2.3S307.2,217.8,307.3,218.5Z"/>
      <path id="Path_5272" data-name="Path 5272" class="cls-21" d="M306.8,221.1c0,.1-.1.1-.2.1s-.3-.1-.3-.2l-.3-2c0-.1.1-.3.2-.3s.3.1.3.2l.3,2Z"/>
    </g>
    <g id="Group_4046" data-name="Group 4046">
      <path id="Path_5273" data-name="Path 5273" class="cls-20" d="M255.2,194a3.36,3.36,0,0,1,.8,4.6,3.208,3.208,0,0,1-4.6.5c-1.5-1.1-3-6.3-3-6.3S253.8,192.9,255.2,194Z"/>
      <path id="Path_5274" data-name="Path 5274" class="cls-21" d="M260.4,201.9a.187.187,0,0,1-.3,0l-9.6-7.2c-.1-.1-.1-.2,0-.4a.187.187,0,0,1,.3,0l9.6,7.2C260.4,201.6,260.5,201.8,260.4,201.9Z"/>
      <path id="Path_5275" data-name="Path 5275" class="cls-21" d="M254.5,197.5c0,.1-.1.1-.2.1s-.3-.1-.3-.2l-.3-2.4c0-.1.1-.3.2-.3s.3.1.3.2l.3,2.4C254.6,197.4,254.6,197.5,254.5,197.5Z"/>
      <path id="Path_5276" data-name="Path 5276" class="cls-21" d="M254.5,197.5c0,.1-.1.1-.2.1l-2.3.3c-.1,0-.3-.1-.3-.2s.1-.3.2-.3l2.3-.3c.1,0,.3.1.3.2C254.6,197.4,254.6,197.5,254.5,197.5Z"/>
      <path id="Path_5277" data-name="Path 5277" class="cls-21" d="M252.6,196.1c0,.1-.1.1-.2.1s-.3-.1-.3-.2l-.2-1.5c0-.1.1-.3.2-.3s.3.1.3.2l.2,1.5C252.7,196,252.7,196,252.6,196.1Z"/>
      <path id="Path_5278" data-name="Path 5278" class="cls-20" d="M259.1,197.8a1.13,1.13,0,0,1-.9,1.3,1.2,1.2,0,0,1-1.3-1,6.654,6.654,0,0,1,.8-2.3S259,197.1,259.1,197.8Z"/>
      <path id="Path_5279" data-name="Path 5279" class="cls-21" d="M258.5,200.4c0,.1-.1.1-.2.1s-.3-.1-.3-.2l-.3-1.9c0-.1.1-.3.2-.3s.3.1.3.2l.3,1.9C258.6,200.2,258.5,200.3,258.5,200.4Z"/>
    </g>
    <path id="Path_5280" data-name="Path 5280" class="cls-5" d="M425.3,256.8l-6.3,3.7v8.9l6.3,3.8Z"/>
    <path id="Path_5281" data-name="Path 5281" class="cls-19" d="M425.3,256.8,297.8,183l-5.2,3.1L419,260.5Z"/>
    <path id="Path_5282" data-name="Path 5282" class="cls-11" d="M292.6,186.1v10.4L419,269.4v-8.9Z"/>
    <g id="Group_4047" data-name="Group 4047">
      <path id="Path_5283" data-name="Path 5283" class="cls-27" d="M297.1,193.3a.722.722,0,1,1-.7-.9A.808.808,0,0,1,297.1,193.3Z"/>
      <path id="Path_5284" data-name="Path 5284" class="cls-28" d="M296.5,194.4c-.4,0-.8-.5-.8-1.1s.4-1.1.8-1.1.8.5.8,1.1S296.9,194.4,296.5,194.4Zm0-1.9c-.3,0-.5.4-.5.8s.2.8.5.8.5-.4.5-.8S296.8,192.5,296.5,192.5Z"/>
    </g>
    <g id="Group_4048" data-name="Group 4048">
      <path id="Path_5285" data-name="Path 5285" class="cls-27" d="M305.5,198.1a.722.722,0,1,1-.7-.9A.808.808,0,0,1,305.5,198.1Z"/>
      <path id="Path_5286" data-name="Path 5286" class="cls-28" d="M304.9,199.2c-.4,0-.8-.5-.8-1.1s.4-1.1.8-1.1.8.5.8,1.1S305.3,199.2,304.9,199.2Zm0-1.9c-.3,0-.5.4-.5.8s.2.8.5.8.5-.4.5-.8S305.2,197.3,304.9,197.3Z"/>
    </g>
    <g id="Group_4049" data-name="Group 4049">
      <path id="Path_5287" data-name="Path 5287" class="cls-27" d="M313.9,203a.722.722,0,1,1-.7-.9C313.6,202,313.9,202.4,313.9,203Z"/>
      <path id="Path_5288" data-name="Path 5288" class="cls-28" d="M313.3,204c-.4,0-.8-.5-.8-1.1s.4-1.1.8-1.1.8.5.8,1.1S313.7,204,313.3,204Zm0-1.9c-.3,0-.5.4-.5.8s.2.8.5.8.5-.4.5-.8S313.6,202.1,313.3,202.1Z"/>
    </g>
    <g id="Group_4050" data-name="Group 4050">
      <path id="Path_5289" data-name="Path 5289" class="cls-27" d="M322.3,207.8a.722.722,0,1,1-.7-.9C322,206.8,322.3,207.3,322.3,207.8Z"/>
      <path id="Path_5290" data-name="Path 5290" class="cls-28" d="M321.7,208.8c-.4,0-.8-.5-.8-1.1s.4-1.1.8-1.1.8.5.8,1.1C322.5,208.4,322.1,208.8,321.7,208.8Zm0-1.8c-.3,0-.5.4-.5.8s.2.8.5.8.5-.4.5-.8S322,207,321.7,207Z"/>
    </g>
    <g id="Group_4051" data-name="Group 4051">
      <path id="Path_5291" data-name="Path 5291" class="cls-27" d="M330.7,212.6a.722.722,0,1,1-.7-.9C330.4,211.6,330.7,212.1,330.7,212.6Z"/>
      <path id="Path_5292" data-name="Path 5292" class="cls-28" d="M330.1,213.6c-.4,0-.8-.5-.8-1.1s.4-1.1.8-1.1.8.5.8,1.1C330.9,213.2,330.5,213.6,330.1,213.6Zm0-1.8c-.3,0-.5.4-.5.8s.2.8.5.8.5-.4.5-.8S330.4,211.8,330.1,211.8Z"/>
    </g>
    <g id="Group_4052" data-name="Group 4052">
      <path id="Path_5293" data-name="Path 5293" class="cls-27" d="M339.1,217.4a.722.722,0,1,1-.7-.9A.808.808,0,0,1,339.1,217.4Z"/>
      <path id="Path_5294" data-name="Path 5294" class="cls-28" d="M338.5,218.5c-.4,0-.8-.5-.8-1.1s.4-1.1.8-1.1.8.5.8,1.1S338.9,218.5,338.5,218.5Zm0-1.9c-.3,0-.5.4-.5.8s.2.8.5.8.5-.4.5-.8S338.8,216.6,338.5,216.6Z"/>
    </g>
    <g id="Group_4053" data-name="Group 4053">
      <path id="Path_5295" data-name="Path 5295" class="cls-27" d="M347.5,222.2a.722.722,0,1,1-.7-.9A.808.808,0,0,1,347.5,222.2Z"/>
      <path id="Path_5296" data-name="Path 5296" class="cls-28" d="M346.9,223.3c-.4,0-.8-.5-.8-1.1s.4-1.1.8-1.1.8.5.8,1.1S347.3,223.3,346.9,223.3Zm0-1.9c-.3,0-.5.4-.5.8s.2.8.5.8.5-.4.5-.8S347.2,221.4,346.9,221.4Z"/>
    </g>
    <g id="Group_4054" data-name="Group 4054">
      <path id="Path_5297" data-name="Path 5297" class="cls-27" d="M355.9,227a.722.722,0,1,1-.7-.9A.808.808,0,0,1,355.9,227Z"/>
      <path id="Path_5298" data-name="Path 5298" class="cls-28" d="M355.3,228.1c-.4,0-.8-.5-.8-1.1s.4-1.1.8-1.1.8.5.8,1.1S355.7,228.1,355.3,228.1Zm0-1.9c-.3,0-.5.4-.5.8s.2.8.5.8.5-.4.5-.8S355.6,226.2,355.3,226.2Z"/>
    </g>
    <g id="Group_4055" data-name="Group 4055">
      <path id="Path_5299" data-name="Path 5299" class="cls-27" d="M364.3,232.8a.722.722,0,1,1-.7-.9C364.1,231.9,364.3,232.3,364.3,232.8Z"/>
      <path id="Path_5300" data-name="Path 5300" class="cls-28" d="M363.7,233.9c-.4,0-.8-.5-.8-1.1s.4-1.1.8-1.1.8.5.8,1.1S364.1,233.9,363.7,233.9Zm0-1.9c-.3,0-.5.4-.5.8s.2.8.5.8.5-.4.5-.8S364,232,363.7,232Z"/>
    </g>
    <g id="Group_4056" data-name="Group 4056">
      <path id="Path_5301" data-name="Path 5301" class="cls-27" d="M372.7,237.6a.722.722,0,1,1-.7-.9C372.5,236.7,372.7,237.1,372.7,237.6Z"/>
      <path id="Path_5302" data-name="Path 5302" class="cls-28" d="M372.1,238.7c-.4,0-.8-.5-.8-1.1s.4-1.1.8-1.1.8.5.8,1.1S372.5,238.7,372.1,238.7Zm0-1.9c-.3,0-.5.4-.5.8s.2.8.5.8.5-.4.5-.8S372.4,236.8,372.1,236.8Z"/>
    </g>
    <g id="Group_4057" data-name="Group 4057">
      <path id="Path_5303" data-name="Path 5303" class="cls-27" d="M381.1,242.4a.722.722,0,1,1-.7-.9C380.9,241.5,381.1,241.9,381.1,242.4Z"/>
      <path id="Path_5304" data-name="Path 5304" class="cls-28" d="M380.5,243.5c-.4,0-.8-.5-.8-1.1s.4-1.1.8-1.1.8.5.8,1.1S380.9,243.5,380.5,243.5Zm0-1.9c-.3,0-.5.4-.5.8s.2.8.5.8.5-.4.5-.8S380.8,241.6,380.5,241.6Z"/>
    </g>
    <g id="Group_4058" data-name="Group 4058">
      <path id="Path_5305" data-name="Path 5305" class="cls-27" d="M389.6,247.3a.722.722,0,1,1-.7-.9C389.3,246.3,389.6,246.7,389.6,247.3Z"/>
      <path id="Path_5306" data-name="Path 5306" class="cls-28" d="M388.9,248.3c-.4,0-.8-.5-.8-1.1s.4-1.1.8-1.1.8.5.8,1.1S389.3,248.3,388.9,248.3Zm0-1.9c-.3,0-.5.4-.5.8s.2.8.5.8.5-.4.5-.8S389.2,246.4,388.9,246.4Z"/>
    </g>
    <g id="Group_4059" data-name="Group 4059">
      <path id="Path_5307" data-name="Path 5307" class="cls-27" d="M398,252.1a.722.722,0,1,1-.7-.9C397.7,251.1,398,251.6,398,252.1Z"/>
      <path id="Path_5308" data-name="Path 5308" class="cls-28" d="M397.3,253.1c-.4,0-.8-.5-.8-1.1s.4-1.1.8-1.1.8.5.8,1.1C398.1,252.7,397.7,253.1,397.3,253.1Zm0-1.8c-.3,0-.5.4-.5.8s.2.8.5.8.5-.4.5-.8C397.8,251.6,397.6,251.3,397.3,251.3Z"/>
    </g>
    <g id="Group_4060" data-name="Group 4060">
      <path id="Path_5309" data-name="Path 5309" class="cls-27" d="M406.4,256.9a.722.722,0,1,1-.7-.9C406.1,255.9,406.4,256.4,406.4,256.9Z"/>
      <path id="Path_5310" data-name="Path 5310" class="cls-28" d="M405.7,257.9c-.4,0-.8-.5-.8-1.1s.4-1.1.8-1.1.8.5.8,1.1C406.5,257.5,406.1,257.9,405.7,257.9Zm0-1.8c-.3,0-.5.4-.5.8s.2.8.5.8.5-.4.5-.8S406,256.1,405.7,256.1Z"/>
    </g>
    <g id="Group_4061" data-name="Group 4061">
      <path id="Path_5311" data-name="Path 5311" class="cls-27" d="M414.8,261.7a.722.722,0,1,1-.7-.9A.808.808,0,0,1,414.8,261.7Z"/>
      <path id="Path_5312" data-name="Path 5312" class="cls-28" d="M414.1,262.8c-.4,0-.8-.5-.8-1.1s.4-1.1.8-1.1.8.5.8,1.1S414.5,262.8,414.1,262.8Zm0-1.9c-.3,0-.5.4-.5.8s.2.8.5.8.5-.4.5-.8S414.4,260.9,414.1,260.9Z"/>
    </g>
    <path id="Path_5313" data-name="Path 5313" class="cls-9" d="M224.7,55.8s-14.2,3.5-38.5,41.1c-20.3,31.5-21.8,54.9-21.8,54.9l9.3-7.7,6.5-15.7,10.7-23.1Z"/>
    <path id="Path_5314" data-name="Path 5314" class="cls-29" d="M180.3,128.5,191,105.4l30.3,16-10.6,23.4Z"/>
    <path id="Path_5315" data-name="Path 5315" class="cls-11" d="M182,127.7l9.5-20.3,27.7,14.4L210,142.2Z"/>
    <path id="Path_5316" data-name="Path 5316" class="cls-30" d="M192.8,102.8l31,15.8s10.6-14.9,17-22.7,18.5-20.5,18.5-20.5L224.7,55.8Z"/>
    <path id="Path_5317" data-name="Path 5317" class="cls-30" d="M179.3,130.9,210,147.4l-4.3,14.5-32-17.7Z"/>
    <path id="Path_5318" data-name="Path 5318" class="cls-31" d="M164.5,151.9l39,22,2.2-12-32-17.7Z"/>
    <path id="Path_5319" data-name="Path 5319" class="cls-32" d="M156,215.9,51.7,237.2l59.5,34.3,101.5-22.9Z"/>
    <g id="Group_4062" data-name="Group 4062">
      <rect id="Rectangle_1766" data-name="Rectangle 1766" class="cls-11" width="1" height="12.8" transform="translate(244.6 139.8)"/>
      <rect id="Rectangle_1767" data-name="Rectangle 1767" class="cls-11" width="1" height="12.6" transform="translate(247 138.6)"/>
      <rect id="Rectangle_1768" data-name="Rectangle 1768" class="cls-11" width="1" height="12.7" transform="translate(249.1 137.3)"/>
      <rect id="Rectangle_1769" data-name="Rectangle 1769" class="cls-11" width="1" height="13.1" transform="translate(251.2 136.1)"/>
      <rect id="Rectangle_1770" data-name="Rectangle 1770" class="cls-11" width="1" height="12.7" transform="translate(253.4 134.8)"/>
      <rect id="Rectangle_1771" data-name="Rectangle 1771" class="cls-11" width="1" height="12.5" transform="translate(255.5 133.7)"/>
      <rect id="Rectangle_1772" data-name="Rectangle 1772" class="cls-11" width="1" height="12.6" transform="translate(257.7 132.4)"/>
      <rect id="Rectangle_1773" data-name="Rectangle 1773" class="cls-11" width="1" height="13" transform="translate(259.8 131.1)"/>
      <rect id="Rectangle_1774" data-name="Rectangle 1774" class="cls-11" width="1" height="12.9" transform="translate(262 129.9)"/>
      <rect id="Rectangle_1775" data-name="Rectangle 1775" class="cls-11" width="1" height="12.9" transform="translate(264.1 128.6)"/>
    </g>
    <path id="Path_5320" data-name="Path 5320" class="cls-1" d="M191.2,115.6l1.3-3.1,4.1,2-1.3,3.2Z"/>
    <path id="Path_5321" data-name="Path 5321" class="cls-1" d="M189,120.8l1.3-3.1,4.1,1.9-1.3,3.2Z"/>
    <path id="Path_5322" data-name="Path 5322" class="cls-1" d="M186.4,126.2l1.3-3.1,4.1,2-1.3,3.1Z"/>
    <path id="Path_5323" data-name="Path 5323" class="cls-1" d="M198,119.2l1.3-3.2,4.1,2-1.3,3.2Z"/>
    <path id="Path_5324" data-name="Path 5324" class="cls-1" d="M195.8,124.3l1.3-3.1,4.1,2-1.3,3.1Z"/>
    <path id="Path_5325" data-name="Path 5325" class="cls-1" d="M193.2,129.7l1.3-3.1,4.1,2-1.3,3.1Z"/>
    <g id="Group_4063" data-name="Group 4063">
      <path id="Path_5326" data-name="Path 5326" class="cls-5" d="M326.3,225.4l-6.1,3.7-.1.1a.1.1,0,0,0,.1.1.683.683,0,0,1,.5.3.187.187,0,0,1,0,.3.63.63,0,0,1-.7.4h-.1v.1a1.228,1.228,0,0,1-.1,1,1.346,1.346,0,0,1-.9.5c-.3.1-.5-.1-.7-.5a.1.1,0,0,0-.1-.1,2.246,2.246,0,0,1-1.6-.1,1.364,1.364,0,0,1-.5-1.2.908.908,0,0,1,.3-.7,3.439,3.439,0,0,1,2-.6c.1,0,.1,0,.1-.1a1.222,1.222,0,0,1,.4-.9.3.3,0,0,1,.4,0,.83.83,0,0,1,.5.9.1.1,0,0,0,.1.1h.1l1.8-1.1c.1,0,.1-.1,0-.2,0-.1-.1-.1-.2,0l-1.6,1a.928.928,0,0,0-.7-.9.616.616,0,0,0-.7.1,1.217,1.217,0,0,0-.5,1,3.273,3.273,0,0,0-2.1.7,1.222,1.222,0,0,0-.3.9,1.678,1.678,0,0,0,.6,1.4,2.155,2.155,0,0,0,1.7.2.8.8,0,0,0,.8.6h.1a1.44,1.44,0,0,0,1-.6,2.344,2.344,0,0,0,.2-1.1.733.733,0,0,0,.8-.6c.1-.2,0-.3,0-.5-.1-.2-.3-.3-.4-.4l5.9-3.5c.1,0,.1-.1,0-.2C326.5,225.4,326.4,225.4,326.3,225.4Z"/>
      <path id="Path_5327" data-name="Path 5327" class="cls-5" d="M317.5,229.4a.1.1,0,1,0,0-.2s-1.1.3-1,1.1a1.04,1.04,0,0,0,.9.9h0c.1,0,.1,0,.1-.1s0-.1-.1-.1a.88.88,0,0,1-.7-.7C316.6,229.7,317.5,229.4,317.5,229.4Z"/>
      <path id="Path_5328" data-name="Path 5328" class="cls-5" d="M319,231.6h0a.639.639,0,0,0,.6-.6c0-.1,0-.1-.1-.1s-.1,0-.1.1c0,0-.1.4-.4.4-.1,0-.1,0-.2-.1a.758.758,0,0,1-.2-.4.1.1,0,1,0-.2,0,.988.988,0,0,0,.2.6A.756.756,0,0,0,319,231.6Z"/>
      <path id="Path_5329" data-name="Path 5329" class="cls-5" d="M325.5,226.4l-1.8,1.1c-.1,0-.1.1,0,.2l.1.1h.1l1.8-1.1c.1,0,.1-.1,0-.2A.31.31,0,0,0,325.5,226.4Z"/>
      <path id="Path_5330" data-name="Path 5330" class="cls-5" d="M322.3,228.4l-1.2.7c-.1,0-.1.1,0,.2l.1.1h.1l1.2-.7c.1,0,.1-.1,0-.2S322.4,228.4,322.3,228.4Z"/>
      <path id="Path_5331" data-name="Path 5331" class="cls-5" d="M323.3,227.8l-.6.3c-.1,0-.1.1,0,.2l.1.1h.1l.6-.3c.1,0,.1-.1,0-.2S323.4,227.8,323.3,227.8Z"/>
      <path id="Path_5332" data-name="Path 5332" class="cls-5" d="M322.5,227.2l.6-.3c.1,0,.1-.1,0-.2,0-.1-.1-.1-.2,0l-.6.3c-.1,0-.1.1,0,.2Z"/>
      <path id="Path_5333" data-name="Path 5333" class="cls-5" d="M324.4,226.1l1.3-.8c.1,0,.1-.1,0-.2,0-.1-.1-.1-.2,0l-1.3.8c-.1,0-.1.1,0,.2Z"/>
      <path id="Path_5334" data-name="Path 5334" class="cls-5" d="M319.4,229.3c.1,0,.1,0,.1-.1s0-.1-.1-.1a1.128,1.128,0,0,0-1.1.5v.2h.1a.1.1,0,0,0,.1-.1A.918.918,0,0,1,319.4,229.3Z"/>
      <path id="Path_5335" data-name="Path 5335" class="cls-5" d="M336.6,218.2l-11.8,6.6h0l-4.5,2.7c-.1,0-.1.1,0,.2l.1.1h.1l4.6-2.7h0l11.8-6.6c.1,0,.1-.1,0-.2A.774.774,0,0,0,336.6,218.2Z"/>
      <path id="Path_5336" data-name="Path 5336" class="cls-5" d="M326.1,225l4.3-2.4c.1,0,.1-.1,0-.2,0-.1-.1-.1-.2,0l-4.3,2.4c-.1,0-.1.1,0,.2Z"/>
      <path id="Path_5337" data-name="Path 5337" class="cls-5" d="M334.9,220.5l-7.1,4.1c-.1,0-.1.1,0,.2l.1.1h.1l7.1-4.1c.1,0,.1-.1,0-.2C335.1,220.5,335,220.5,334.9,220.5Z"/>
      <path id="Path_5338" data-name="Path 5338" class="cls-5" d="M375.3,246.6l-6.1,3.7-.1.1a.1.1,0,0,0,.1.1.683.683,0,0,1,.5.3.187.187,0,0,1,0,.3.63.63,0,0,1-.7.4h-.1v.1a1.228,1.228,0,0,1-.1,1,1.346,1.346,0,0,1-.9.5c-.3.1-.5-.1-.7-.5a.1.1,0,0,0-.1-.1,2.246,2.246,0,0,1-1.6-.1,1.364,1.364,0,0,1-.5-1.2.908.908,0,0,1,.3-.7,3.439,3.439,0,0,1,2-.6c.1,0,.1,0,.1-.1a1.222,1.222,0,0,1,.4-.9.3.3,0,0,1,.4,0,.83.83,0,0,1,.5.9.1.1,0,0,0,.1.1h.1l1.8-1.1c.1,0,.1-.1,0-.2,0-.1-.1-.1-.2,0l-1.6,1a.928.928,0,0,0-.7-.9.616.616,0,0,0-.7.1,1.217,1.217,0,0,0-.5,1,3.273,3.273,0,0,0-2.1.7,1.222,1.222,0,0,0-.3.9,1.678,1.678,0,0,0,.6,1.4,2.155,2.155,0,0,0,1.7.2.8.8,0,0,0,.8.6h.1a1.44,1.44,0,0,0,1-.6,2.344,2.344,0,0,0,.2-1.1.733.733,0,0,0,.8-.6c.1-.2,0-.3,0-.5-.1-.2-.3-.3-.4-.4l5.9-3.5c.1,0,.1-.1,0-.2C375.5,246.6,375.4,246.6,375.3,246.6Z"/>
      <path id="Path_5339" data-name="Path 5339" class="cls-5" d="M366.5,250.6a.1.1,0,1,0,0-.2s-1.1.3-1,1.1a1.04,1.04,0,0,0,.9.9h0c.1,0,.1,0,.1-.1s0-.1-.1-.1a.88.88,0,0,1-.7-.7C365.6,250.9,366.5,250.6,366.5,250.6Z"/>
      <path id="Path_5340" data-name="Path 5340" class="cls-5" d="M368.1,252.8h0a.639.639,0,0,0,.6-.6c0-.1,0-.1-.1-.1s-.1,0-.1.1c0,0-.1.4-.4.4-.1,0-.1,0-.2-.1a.758.758,0,0,1-.2-.4.1.1,0,1,0-.2,0,.988.988,0,0,0,.2.6C367.8,252.8,367.9,252.8,368.1,252.8Z"/>
      <path id="Path_5341" data-name="Path 5341" class="cls-5" d="M369.2,249h0l4.9-2.9c.1,0,.1-.1,0-.2,0-.1-.1-.1-.2,0l-4.9,2.9c-.1,0-.1.1,0,.2C369.2,248.9,369.2,249,369.2,249Z"/>
      <path id="Path_5342" data-name="Path 5342" class="cls-5" d="M374.5,247.6l-1.8,1.1c-.1,0-.1.1,0,.2l.1.1h.1l1.8-1.1c.1,0,.1-.1,0-.2S374.6,247.6,374.5,247.6Z"/>
      <path id="Path_5343" data-name="Path 5343" class="cls-5" d="M371.3,249.6l-1.2.7c-.1,0-.1.1,0,.2l.1.1h.1l1.2-.7c.1,0,.1-.1,0-.2S371.4,249.6,371.3,249.6Z"/>
      <path id="Path_5344" data-name="Path 5344" class="cls-5" d="M372.3,249l-.6.3c-.1,0-.1.1,0,.2l.1.1h.1l.6-.3c.1,0,.1-.1,0-.2S372.4,248.9,372.3,249Z"/>
      <path id="Path_5345" data-name="Path 5345" class="cls-5" d="M372,247.8l-.6.3c-.1,0-.1.1,0,.2l.1.1h.1l.6-.3c.1,0,.1-.1,0-.2S372.1,247.8,372,247.8Z"/>
      <path id="Path_5346" data-name="Path 5346" class="cls-5" d="M373.3,247.2l.1.1h.1l1.3-.8c.1,0,.1-.1,0-.2,0-.1-.1-.1-.2,0l-1.3.8S373.2,247.2,373.3,247.2Z"/>
      <path id="Path_5347" data-name="Path 5347" class="cls-5" d="M368.4,250.5c.1,0,.1,0,.1-.1s0-.1-.1-.1a1.128,1.128,0,0,0-1.1.5v.2h.1a.1.1,0,0,0,.1-.1A.918.918,0,0,1,368.4,250.5Z"/>
      <path id="Path_5348" data-name="Path 5348" class="cls-5" d="M379.4,242.9c0-.1-.1-.1-.2,0l-4.3,2.4c-.1,0-.1.1,0,.2l.1.1h.1l4.3-2.4Z"/>
    </g>
    <line id="Line_494" data-name="Line 494" class="cls-33" y2="65.1" transform="translate(399.5 154)"/>
    <path id="Path_5349" data-name="Path 5349" class="cls-33" d="M404.8,214.4l-5.4,5.4-5.2-5.3"/>
    <line id="Line_495" data-name="Line 495" class="cls-33" x2="58.6" transform="translate(399.5 153.4)"/>
    <text id="_04" data-name="04" class="cls-34" transform="translate(412.82 142.524)"><tspan x="0" y="0">04</tspan></text>
    <line id="Line_496" data-name="Line 496" class="cls-33" y2="16.7" transform="translate(274.4 36.5)"/>
    <path id="Path_5350" data-name="Path 5350" class="cls-33" d="M279.7,48.4l-5.4,5.4-5.2-5.2"/>
    <line id="Line_497" data-name="Line 497" class="cls-33" x2="58.6" transform="translate(274.4 36.5)"/>
    <line id="Line_498" data-name="Line 498" class="cls-33" x2="58.7" y2="0.1" transform="translate(62 71.8)"/>
    <text id="_02" data-name="02" class="cls-34" transform="translate(287.745 25.65)"><tspan x="0" y="0">02</tspan></text>
    <path id="Path_5351" data-name="Path 5351" class="cls-33" d="M301.5,124.2l-5.4-5.4,5.2-5.3"/>
    <line id="Line_499" data-name="Line 499" class="cls-33" x2="58.6" transform="translate(298.8 118.8)"/>
    <text id="_03" data-name="03" class="cls-34" transform="translate(312.123 107.925)"><tspan x="0" y="0">03</tspan></text>
    <path id="Path_5352" data-name="Path 5352" class="cls-33" d="M135.2,148.2H120.7V71.9"/>
    <path id="Path_5353" data-name="Path 5353" class="cls-33" d="M129.8,142.6l5.4,5.3-5.3,5.3"/>
    <text id="_01" data-name="01" class="cls-34" transform="translate(75.387 60.982)"><tspan x="0" y="0">01</tspan></text>
  </g>
</svg>
