<svg xmlns="http://www.w3.org/2000/svg" viewBox="-9051 -8051 128.3 45">
  <defs>
    <style>
      .cls-1 {
        fill: #fff;
      }
    </style>
  </defs>
  <g id="Group_3595" data-name="Group 3595" transform="translate(10934 1915)">
    <path id="Path_3026" data-name="Path 3026" class="cls-1" d="M49.046,73.406c1.317.329,2.716.494,2.8-2.057a22.845,22.845,0,0,0-8.23-17.2l-.494.658-1.4-3.21,3.457.411-.494.741a25.05,25.05,0,0,1,7.242,9.876V59.5a23.256,23.256,0,0,0-4.609-13.826l-.658.576L46,42.791l3.292,1.152-.658.576a24.178,24.178,0,0,1,3.292,5.843V39.828h-.905l1.728-3.045,1.728,3.045h-.905V50.28a27.294,27.294,0,0,1,3.292-5.843l-.658-.576L59.5,42.709l-.658,3.457-.658-.576a22.718,22.718,0,0,0-4.609,13.826v3.127a24.278,24.278,0,0,1,7.242-9.876l-.494-.658,3.457-.329-1.4,3.21-.494-.658a22.678,22.678,0,0,0-8.23,17.447c.082,2.222,1.07,2.387,2.88,1.893,19.752-5.432,13.5-30.533-3.7-44.771-17.365,14.073-23.7,39.257-3.786,44.606" transform="translate(-20021.705 -9994.8)"/>
    <path id="Path_3027" data-name="Path 3027" class="cls-1" d="M173.826,69.751H169.3L176.46,48.6h4.856l7.16,21.151h-4.526l-3.868-12.592c-.247-.741-.412-1.646-.658-2.634a10.845,10.845,0,0,1-.411-2.057,39.022,39.022,0,0,1-1.07,4.691Z" transform="translate(-20045.176 -9998.305)"/>
    <path id="Path_3028" data-name="Path 3028" class="cls-1" d="M90.253,69.751l-5.1-16.542h-.165c.165,3.374.247,5.6.247,6.749v9.876H81.2V48.6h6.09l5.02,16.213h.247L97.907,48.6H104V69.751H99.8v-11.6c0-.576.082-2.222.165-4.938H99.8L94.368,69.751Z" transform="translate(-20029.58 -9998.305)"/>
    <path id="Path_3029" data-name="Path 3029" class="cls-1" d="M124.949,48.6h4.526l-7.16,21.151H117.46L110.3,48.6h4.526l3.95,12.592c.247.741.411,1.646.658,2.634a10.845,10.845,0,0,1,.411,2.057,39.019,39.019,0,0,1,1.07-4.691Z" transform="translate(-20034.732 -9998.305)"/>
    <rect id="Rectangle_1397" data-name="Rectangle 1397" class="cls-1" width="4.526" height="21.151" transform="translate(-19904.186 -9949.705)"/>
    <path id="Path_3030" data-name="Path 3030" class="cls-1" d="M157.126,63.854a5.4,5.4,0,0,1-2.057,4.526,9.222,9.222,0,0,1-5.761,1.646,14,14,0,0,1-6.008-1.234V64.6a19.945,19.945,0,0,0,3.621,1.317,11.468,11.468,0,0,0,2.716.411,3.83,3.83,0,0,0,2.3-.576,2.026,2.026,0,0,0,.823-1.646,1.518,1.518,0,0,0-.329-1.07,3.508,3.508,0,0,0-.988-.905,24.134,24.134,0,0,0-2.716-1.4A9.746,9.746,0,0,1,145.851,59a7.208,7.208,0,0,1-1.564-1.975,5.4,5.4,0,0,1-.576-2.634,5.6,5.6,0,0,1,1.893-4.444,7.909,7.909,0,0,1,5.267-1.646,13.026,13.026,0,0,1,3.127.411,28.208,28.208,0,0,1,3.127,1.07l-1.481,3.457a16.685,16.685,0,0,0-2.8-.988,10.054,10.054,0,0,0-2.14-.247,2.973,2.973,0,0,0-1.975.576,1.845,1.845,0,0,0-.658,1.564,2.278,2.278,0,0,0,.247,1.07,2.228,2.228,0,0,0,.905.823c.411.247,1.317.741,2.88,1.481a9.763,9.763,0,0,1,4.033,2.88,6.35,6.35,0,0,1,.988,3.457" transform="translate(-20040.574 -9998.252)"/>
    <rect id="Rectangle_1398" data-name="Rectangle 1398" class="cls-1" width="4.526" height="21.151" transform="translate(-19881.225 -9949.705)"/>
  </g>
</svg>
