<svg xmlns="http://www.w3.org/2000/svg" xmlns:xlink="http://www.w3.org/1999/xlink" viewBox="-9729 -11795 28 28">
  <defs>
    <style>
      .cls-1 {
        fill: #fff;
        stroke: #707070;
      }

      .cls-2, .cls-9 {
        fill: none;
      }

      .cls-2, .cls-3 {
        stroke: #007f3d;
      }

      .cls-2 {
        stroke-width: 1.5px;
      }

      .cls-3 {
        fill: #007f3d;
        stroke-width: 0.5px;
      }

      .cls-4 {
        clip-path: url(#clip-path);
      }

      .cls-5 {
        clip-path: url(#clip-path-2);
      }

      .cls-6 {
        clip-path: url(#clip-path-3);
      }

      .cls-7 {
        clip-path: url(#clip-path-4);
      }

      .cls-8 {
        stroke: none;
      }
    </style>
    <clipPath id="clip-path">
      <rect id="Rectangle_1512" data-name="Rectangle 1512" class="cls-1" width="7" height="7" transform="translate(-9710 -11792)"/>
    </clipPath>
    <clipPath id="clip-path-2">
      <rect id="Rectangle_1514" data-name="Rectangle 1514" class="cls-1" width="7" height="7" transform="translate(-9688 -11792) rotate(90)"/>
    </clipPath>
    <clipPath id="clip-path-3">
      <rect id="Rectangle_1518" data-name="Rectangle 1518" class="cls-1" width="7" height="7" transform="translate(-9688 -11770) rotate(180)"/>
    </clipPath>
    <clipPath id="clip-path-4">
      <rect id="Rectangle_1516" data-name="Rectangle 1516" class="cls-1" width="7" height="7" transform="translate(-9710 -11770) rotate(-90)"/>
    </clipPath>
  </defs>
  <g id="Group_3842" data-name="Group 3842" transform="translate(-16)">
    <g id="Rectangle_1510" data-name="Rectangle 1510" class="cls-2" transform="translate(-9713 -11795)">
      <rect class="cls-8" width="28" height="28" rx="5"/>
      <rect class="cls-9" x="0.75" y="0.75" width="26.5" height="26.5" rx="4.25"/>
    </g>
    <path id="Path_4078" data-name="Path 4078" class="cls-3" d="M14.5,10a4.5,4.5,0,1,0,2.842,7.97l3.882,3.882a.45.45,0,1,0,.637-.632l-3.882-3.882A4.492,4.492,0,0,0,14.5,10Zm0,.9a3.6,3.6,0,1,1-3.6,3.6A3.589,3.589,0,0,1,14.5,10.9Z" transform="translate(-9715 -11797)"/>
    <g id="Mask_Group_179" data-name="Mask Group 179" class="cls-4">
      <g id="Rectangle_1511" data-name="Rectangle 1511" class="cls-2" transform="translate(-9710 -11792)">
        <rect class="cls-8" width="22" height="22" rx="3"/>
        <rect class="cls-9" x="0.75" y="0.75" width="20.5" height="20.5" rx="2.25"/>
      </g>
    </g>
    <g id="Mask_Group_178" data-name="Mask Group 178" class="cls-5">
      <g id="Rectangle_1513" data-name="Rectangle 1513" class="cls-2" transform="translate(-9688 -11792) rotate(90)">
        <rect class="cls-8" width="22" height="22" rx="3"/>
        <rect class="cls-9" x="0.75" y="0.75" width="20.5" height="20.5" rx="2.25"/>
      </g>
    </g>
    <g id="Mask_Group_176" data-name="Mask Group 176" class="cls-6">
      <g id="Rectangle_1515" data-name="Rectangle 1515" class="cls-2" transform="translate(-9710 -11770) rotate(-90)">
        <rect class="cls-8" width="22" height="22" rx="3"/>
        <rect class="cls-9" x="0.75" y="0.75" width="20.5" height="20.5" rx="2.25"/>
      </g>
    </g>
    <g id="Mask_Group_177" data-name="Mask Group 177" class="cls-7">
      <g id="Rectangle_1517" data-name="Rectangle 1517" class="cls-2" transform="translate(-9688 -11770) rotate(180)">
        <rect class="cls-8" width="22" height="22" rx="3"/>
        <rect class="cls-9" x="0.75" y="0.75" width="20.5" height="20.5" rx="2.25"/>
      </g>
    </g>
  </g>
</svg>
