<svg xmlns="http://www.w3.org/2000/svg" viewBox="-9810.334 -11731 28 28">
  <defs>
    <style>
      .cls-1 {
        fill: #007f3d;
      }
    </style>
  </defs>
  <path id="Path_4076" data-name="Path 4076" class="cls-1" d="M31.248,23.038a2.361,2.361,0,0,0-.632.095L28.3,19.666,30.616,16.2a2.391,2.391,0,0,0,.632.094,2.418,2.418,0,1,0-1.71-4.127L22.05,8.422a2.413,2.413,0,1,0-4.8-.338,2.351,2.351,0,0,0,.034.338L9.794,12.166A2.435,2.435,0,1,0,8.716,16.2l2.311,3.467L8.716,23.133a2.364,2.364,0,0,0-.632-.095,2.418,2.418,0,1,0,1.709,4.128l7.488,3.744a2.346,2.346,0,0,0-.034.338,2.42,2.42,0,1,0,4.8-.338l7.488-3.744a2.418,2.418,0,1,0,1.709-4.128Zm-2.23.45-2.445-1.223.815-1.222ZM20.3,28.924a2.359,2.359,0,0,0-.632-.095,2.391,2.391,0,0,0-.632.094L14.99,22.858l2.966-1.483a2.414,2.414,0,0,0,3.42,0l2.966,1.483ZM19.035,10.408a2.159,2.159,0,0,0,1.262,0l4.044,6.066-2.966,1.483a2.413,2.413,0,0,0-3.418,0l-2.966-1.483Zm1.522,9.258a.891.891,0,1,1-.891-.891A.892.892,0,0,1,20.557,19.666Zm-3.275-.339a1.684,1.684,0,0,0,0,.676l-3.145,1.573-1.274-1.911,1.274-1.911ZM22.05,20a1.684,1.684,0,0,0,0-.676l3.145-1.573,1.274,1.911L25.2,21.577Zm4.521-2.937,2.446-1.223-1.63,2.446Zm4.676-4.083a.891.891,0,1,1-.891.891A.892.892,0,0,1,31.248,12.984Zm-2.384,1.229-3.146,1.573L21.9,10.053l6.968,3.484a2.406,2.406,0,0,0-.034.338A2.406,2.406,0,0,0,28.864,14.213Zm-9.2-7.019a.891.891,0,1,1-.891.891A.892.892,0,0,1,19.666,7.193Zm-2.229,2.859-3.823,5.733-3.146-1.573a1.68,1.68,0,0,0,0-.676ZM7.193,13.875a.891.891,0,1,1,.891.891A.892.892,0,0,1,7.193,13.875Zm3.122,1.969,2.446,1.223-.815,1.223Zm2.445,6.421-2.445,1.223,1.63-2.445ZM8.084,26.348a.891.891,0,1,1,.891-.891A.892.892,0,0,1,8.084,26.348Zm2.384-1.229,3.145-1.573,3.822,5.733L10.468,25.8a1.684,1.684,0,0,0,0-.676Zm9.2,7.02a.891.891,0,1,1,.891-.891A.892.892,0,0,1,19.666,32.139Zm2.23-2.86,3.822-5.733,3.145,1.573a1.684,1.684,0,0,0,0,.676Zm9.351-2.931a.891.891,0,1,1,.891-.891A.892.892,0,0,1,31.248,26.348Z" transform="translate(-9816 -11736.666)"/>
</svg>
